<svg width="320" height="376" viewBox="0 0 320 376" fill="none" xmlns="http://www.w3.org/2000/svg">
<path d="M155.673 101.118C154.526 102.993 153.127 104.863 151.104 105.714C149.264 106.486 147.189 106.302 145.203 106.16C115.332 104.028 85.5862 114.448 55.6992 112.305C54.8805 102.574 55.5378 92.7748 57.6487 83.2412C71.7982 86.1245 86.4718 85.2106 100.889 84.2916L144.359 81.4923L155.228 80.7938C158.372 80.5943 161.097 79.3443 161.716 82.8158C162.696 88.2515 158.393 96.6702 155.673 101.118Z" fill="#F0F6FA"/>
<path d="M301.325 146.726C301.015 142.224 300.283 137.761 299.139 133.397C291.399 104.821 261.591 88.4618 233.449 88.4618C228.637 88.4635 223.835 88.9136 219.105 89.8063L218.581 91.907C218.65 91.9811 218.713 92.06 218.77 92.1433C219.162 92.2647 219.521 92.4749 219.818 92.7578C229.251 101.492 233.15 116.454 233.748 128.911C233.8 129.417 233.68 129.925 233.406 130.354C233.133 130.782 232.723 131.105 232.244 131.27C234.02 138.097 235.388 144.993 236.567 151.752C237.982 159.892 237.793 168.668 231.389 174.666C229.618 176.325 226.149 178.048 224.996 179.986C224.64 185.799 223.471 191.377 220.704 196.508C220.704 196.576 220.662 196.645 220.636 196.718C219.404 200.037 219.195 203.582 217.449 206.723C217.326 206.946 217.173 207.151 216.994 207.332C216.637 208.656 215.133 209.832 213.76 209.249C211.32 208.273 208.778 207.577 206.182 207.174C205.627 208.298 205.082 209.422 204.537 210.551C203.646 216.328 201.136 221.722 198.384 226.937C196.508 230.508 194.491 234.032 192.95 237.766C191.268 241.852 189.958 246.07 188.16 250.119C186.237 254.452 184.062 258.664 182.097 262.975C180.189 267.14 178.816 271.51 177.459 275.879C175.127 283.368 172.58 290.521 168.214 296.955L165.982 306.04V374.162H300.926V247.304C300.926 226.822 300.979 206.339 300.926 185.857C300.858 173.468 302.326 159.656 301.325 146.726Z" fill="#F0F6FA"/>
<path d="M97.5924 44.3462C66.9142 44.3462 42.0425 71.2724 42.0425 104.48C42.0425 137.687 66.9142 164.613 97.5924 164.613C128.271 164.613 153.142 137.692 153.142 104.48C153.142 71.2671 128.297 44.3462 97.5924 44.3462ZM98.7611 149.908C75.3148 149.908 56.3125 129.337 56.3125 103.955C56.3125 78.5725 75.32 58.001 98.7611 58.001C122.202 58.001 141.21 78.5777 141.21 103.955C141.21 129.332 122.207 149.908 98.7611 149.908Z" fill="#2F79CD" stroke="#2F79CD" stroke-width="2.72403" stroke-linecap="round" stroke-linejoin="round"/>
<path d="M47.5923 79.5335C49.4317 80.0272 51.0039 81.8286 50.7104 83.735C50.4169 85.6414 48.6404 86.7233 47.042 87.6371C49.1959 87.4218 51.6432 88.2253 52.597 90.1738C52.9269 90.8495 53.0529 91.6071 52.9595 92.3536C52.866 93.1001 52.5572 93.8031 52.071 94.3762C51.5847 94.9494 50.9421 95.3679 50.2219 95.5805C49.5018 95.793 48.7354 95.7903 48.0167 95.5726C49.9505 96.3604 52.5027 96.3604 53.5403 98.1986C53.8365 98.7162 53.9535 99.3174 53.8733 99.9086C53.793 100.5 53.5199 101.048 53.0965 101.467C52.6732 101.887 52.1232 102.154 51.5324 102.228C50.9416 102.302 50.3431 102.178 49.83 101.875C51.2869 102.29 52.8328 102.778 53.7971 103.949C54.7614 105.12 54.7561 107.205 53.4145 107.909C53.0645 108.07 52.6913 108.175 52.3088 108.219C48.1163 108.923 43.2478 108.629 40.4179 105.446C38.7672 103.592 38.1068 101.061 37.7976 98.6187C37.1111 92.5528 38.1592 76.9811 47.5923 79.5335Z" fill="#FAF9F8" stroke="#2F79CD" stroke-width="2.72403" stroke-linecap="round" stroke-linejoin="round"/>
<path d="M140.784 70.4849L138.363 67.7276C136.071 65.1172 132.101 64.8632 129.496 67.1604L59.5344 128.859C56.9295 131.156 56.6761 135.135 58.9684 137.745L61.3895 140.502C63.6818 143.113 67.6517 143.367 70.2566 141.07L140.218 79.371C142.823 77.0738 143.076 73.0953 140.784 70.4849Z" fill="#2F79CD" stroke="#2F79CD" stroke-width="2.72145" stroke-linecap="round" stroke-linejoin="round"/>
<path d="M142.865 81.9178C133.553 78.4621 123.234 80.2477 113.393 81.5712C94.4884 84.1149 75.3821 84.8096 56.3438 83.6456" stroke="#2F79CD" stroke-width="2.72403" stroke-linecap="round" stroke-linejoin="round"/>
<path d="M145.979 107.647C138.611 105.121 130.582 105.714 122.821 106.334L61.8415 111.234C59.3889 111.433 56.5433 111.481 54.9292 109.621" stroke="#2F79CD" stroke-width="2.72403" stroke-linecap="round" stroke-linejoin="round"/>
<path d="M165.95 86.4922C173.78 88.7767 182.049 89.1969 190.157 88.8188C192.688 88.7032 198.646 89.4175 199.48 86.6235C200.224 84.1184 197.32 78.6512 197.289 75.7259L167.643 74.9329C165.804 74.8856 166.742 86.7233 165.95 86.4922Z" stroke="#2F79CD" stroke-width="2.72403" stroke-linecap="round" stroke-linejoin="round"/>
<path d="M174.629 75.332V87.9365" stroke="#2F79CD" stroke-width="2.72403" stroke-linecap="round" stroke-linejoin="round"/>
<path d="M182.489 75.332L181.441 88.4616" stroke="#2F79CD" stroke-width="2.72403" stroke-linecap="round" stroke-linejoin="round"/>
<path d="M190.35 75.8573V88.4617" stroke="#2F79CD" stroke-width="2.72403" stroke-linecap="round" stroke-linejoin="round"/>
<path d="M165.72 80.0588L148.95 81.6344" stroke="#2F79CD" stroke-width="2.72403" stroke-linecap="round" stroke-linejoin="round"/>
<path d="M153.142 142.031L219.173 152.009" stroke="#2F79CD" stroke-width="2.72403" stroke-linecap="round" stroke-linejoin="round"/>
<path d="M200.234 86.7757C203.698 86.1455 207.298 85.8986 210.715 86.7494C221.694 89.4909 226.552 101.008 229.183 110.945C232.584 123.78 234.471 136.915 237.83 149.808C239.455 156.048 239.816 162.985 236.782 168.662C234.13 173.604 229.487 177.107 225.384 180.742C225.045 181.075 224.656 181.353 224.231 181.566C219.645 183.599 211.187 178.982 206.628 177.89C189.292 173.688 171.947 169.51 154.594 165.354L151.581 164.629" stroke="#2F79CD" stroke-width="2.72403" stroke-linecap="round" stroke-linejoin="round"/>
<path d="M215.515 210.851C197.084 200.457 175.195 198.33 154.044 198.162C153.106 198.162 152.068 198.115 151.387 197.469C151.005 197.055 150.724 196.559 150.564 196.019C149.516 193.268 146.896 189.024 151.256 188.851C162.785 188.404 174.367 187.953 185.843 189.266C193.814 190.174 201.748 191.96 209.153 195.1C211.491 196.088 217.355 197.889 218.586 200.315C219.839 202.899 216.679 208.529 215.515 210.851Z" stroke="#2F79CD" stroke-width="2.72403" stroke-linecap="round" stroke-linejoin="round"/>
<path d="M223.89 181.944L218.649 200.326" stroke="#2F79CD" stroke-width="2.72403" stroke-linecap="round" stroke-linejoin="round"/>
<path d="M151.57 164.613L151.046 188.772" stroke="#2F79CD" stroke-width="2.72403" stroke-linecap="round" stroke-linejoin="round"/>
<path d="M162.576 143.606L160.479 165.139" stroke="#2F79CD" stroke-width="2.72403" stroke-linecap="round" stroke-linejoin="round"/>
<path d="M163.1 188.772V198.225" stroke="#2F79CD" stroke-width="2.72403" stroke-linecap="round" stroke-linejoin="round"/>
<path d="M154.19 188.772V198.225" stroke="#2F79CD" stroke-width="2.72403" stroke-linecap="round" stroke-linejoin="round"/>
<path d="M173.057 188.772L172.533 198.75" stroke="#2F79CD" stroke-width="2.72403" stroke-linecap="round" stroke-linejoin="round"/>
<path d="M185.11 189.297L181.441 199.801" stroke="#2F79CD" stroke-width="2.72403" stroke-linecap="round" stroke-linejoin="round"/>
<path d="M192.971 190.873L189.302 201.376" stroke="#2F79CD" stroke-width="2.72403" stroke-linecap="round" stroke-linejoin="round"/>
<path d="M202.928 192.448L197.688 202.952" stroke="#2F79CD" stroke-width="2.72403" stroke-linecap="round" stroke-linejoin="round"/>
<path d="M211.837 196.125L147.378 350.529" stroke="#2F79CD" stroke-width="2.72403" stroke-linecap="round" stroke-linejoin="round"/>
<path d="M154.191 198.225L102.309 334.248" stroke="#2F79CD" stroke-width="2.72403" stroke-linecap="round" stroke-linejoin="round"/>
<path d="M147.378 350.529L102.309 334.248" stroke="#2F79CD" stroke-width="2.72403" stroke-linecap="round" stroke-linejoin="round"/>
<path d="M197.687 211.88L140.565 340.55" stroke="#2F79CD" stroke-width="2.72403" stroke-linecap="round" stroke-linejoin="round"/>
<path d="M207.644 210.83L260.05 335.823" stroke="#2F79CD" stroke-width="2.72403" stroke-linecap="round" stroke-linejoin="round"/>
<path d="M180.917 273.327L218.65 351.054" stroke="#2F79CD" stroke-width="2.72403" stroke-linecap="round" stroke-linejoin="round"/>
<path d="M260.05 335.823L218.649 351.054" stroke="#2F79CD" stroke-width="2.72403" stroke-linecap="round" stroke-linejoin="round"/>
<path d="M203.577 236.204L244.453 340.716" stroke="#2F79CD" stroke-width="2.72403" stroke-linecap="round" stroke-linejoin="round"/>
<path d="M142.258 373.374L124.44 373.511C124.704 372.317 124.695 371.078 124.415 369.888C124.134 368.698 123.589 367.586 122.82 366.636C121.248 364.793 118.513 363.9 116.217 364.714C112.36 366.079 111.323 370.964 110.893 375.044C95.7372 374.078 80.5675 373.464 65.3839 373.201C64.5297 365.407 68.5282 357.687 74.1461 352.257C79.764 346.826 86.975 343.329 94.1022 340.072C97.0564 338.661 100.095 337.433 103.2 336.396C104.73 335.913 106.344 335.514 107.916 335.755C108.911 335.956 109.878 336.278 110.793 336.716L126.882 343.649C130.76 345.319 135.89 346.627 139.161 349.426C142.562 352.341 143.956 373.464 142.258 373.374Z" fill="#2F79CD"/>
<path d="M102.141 339.719C103.839 339.614 105.574 339.31 107.22 339.719C113.623 341.41 116.322 350.937 107.565 350.417C104.169 350.212 102.644 347.97 101.874 344.882C100.884 340.922 102.624 329.688 95.8003 330.744C93.18 331.148 91.2515 333.722 92.2734 336.39C93.6045 339.882 99.1019 339.903 102.141 339.719Z" stroke="#FAF9F8" stroke-width="2.72403" stroke-linecap="round" stroke-linejoin="round"/>
<path d="M271.003 363.243L257.807 370.864C257.592 367.786 253.918 365.701 250.994 366.61C248.07 367.518 246.183 370.706 246.209 373.794C229.405 373.654 212.61 374.115 195.827 375.175C198.224 364.768 204.386 355.62 213.121 349.499C214.438 348.541 215.867 347.747 217.376 347.136C219.304 346.411 221.374 346.154 223.418 345.844C229.788 344.884 236.062 343.367 242.169 341.312C248.017 339.337 254.081 335.109 259.908 333.812C264.462 343.055 267.387 353.564 271.003 363.243Z" fill="#2F79CD"/>
<path d="M317.696 374.162H2.21436" stroke="#2F79CD" stroke-width="2.72403" stroke-linecap="round" stroke-linejoin="round"/>
<path d="M220.939 355.88C218.786 353.068 215.834 350.975 212.472 349.874C209.11 348.774 205.494 348.718 202.1 349.715C200.108 350.334 197.907 351.889 198.248 353.953C198.384 354.609 198.689 355.217 199.133 355.718C201.649 358.795 206.203 359.394 210.091 358.59C213.98 357.787 217.544 355.859 221.348 354.704C223.701 353.99 226.39 353.606 228.512 354.851C230.634 356.096 231.473 359.546 229.508 361.027C227.778 362.324 225.252 361.342 223.649 359.893C222.045 358.443 220.756 356.537 218.77 355.691" stroke="#F0F6FA" stroke-width="2.72403" stroke-linecap="round" stroke-linejoin="round"/>
<path d="M27.4839 349.998C23.1185 346.29 17.443 343.812 11.7622 344.363C14.8279 352.43 21.4468 371.326 32.6721 371.021C46.7325 370.638 31.5611 353.454 27.4839 349.998Z" fill="#F0F6FA" stroke="#2F79CD" stroke-width="2.72403" stroke-linecap="round" stroke-linejoin="round"/>
<path d="M35.6541 344.111C35.8846 340.03 36.2672 335.955 36.6498 331.885C36.9065 329.133 37.331 326.06 39.5059 324.359C43.1743 329.28 44.8408 335.356 46.7431 341.165C48.1738 345.545 49.7774 349.909 50.4115 354.468C51.1766 359.887 50.2909 370.181 43.8922 372.355C37.8656 374.398 36.1624 360.276 35.7903 356.6C35.4133 352.447 35.3677 348.271 35.6541 344.111Z" fill="#F0F6FA" stroke="#2F79CD" stroke-width="2.72403" stroke-linecap="round" stroke-linejoin="round"/>
<path d="M52.9586 359.121C54.2006 354.583 54.7561 349.825 56.6269 345.508C59.0533 339.867 63.5183 335.382 68.0985 331.328C68.1728 338.316 67.6733 345.298 66.605 352.204C65.908 356.726 64.928 361.316 62.5226 365.202C60.2482 368.879 55.3849 373.08 50.6737 372.303C47.587 371.778 49.1696 369.451 50.05 367.335C51.1912 364.661 52.1626 361.917 52.9586 359.121Z" fill="#F0F6FA" stroke="#2F79CD" stroke-width="2.72403" stroke-linecap="round" stroke-linejoin="round"/>
<path d="M26.3208 359.982L35.2298 369.435" stroke="#2F79CD" stroke-width="2.72403" stroke-linecap="round" stroke-linejoin="round"/>
<path d="M42.0425 358.932L43.0906 372.061" stroke="#2F79CD" stroke-width="2.72403" stroke-linecap="round" stroke-linejoin="round"/>
<path d="M59.336 357.881L53.0474 372.586" stroke="#2F79CD" stroke-width="2.72403" stroke-linecap="round" stroke-linejoin="round"/>
<path d="M161.003 148.333H153.142" stroke="#2F79CD" stroke-width="2.72403" stroke-linecap="round" stroke-linejoin="round"/>
<path d="M159.955 154.635H153.142" stroke="#2F79CD" stroke-width="2.72403" stroke-linecap="round" stroke-linejoin="round"/>
<path d="M159.955 160.937H153.142" stroke="#2F79CD" stroke-width="2.72403" stroke-linecap="round" stroke-linejoin="round"/>
<path d="M224.954 102.353C222.893 103.047 220.899 103.926 218.995 104.979C215.804 106.717 212.843 108.98 210.726 111.937C208.608 114.894 207.398 118.586 207.849 122.194" stroke="#2F79CD" stroke-width="2.72403" stroke-linecap="round" stroke-linejoin="round"/>
<path d="M180.01 50.6371L177.878 56.3153C177.663 56.7407 177.506 57.3656 177.93 57.5967C178.058 57.6486 178.196 57.6719 178.334 57.665C179.827 57.665 180.445 56.903 181.934 56.903" stroke="#2F79CD" stroke-width="2.17923" stroke-linecap="round" stroke-linejoin="round"/>
<path d="M180.491 62.687C180.613 62.1675 180.9 61.7004 181.311 61.3544C181.722 61.0084 182.234 60.8018 182.773 60.765C183.311 60.7282 183.847 60.8631 184.303 61.1499C184.758 61.4368 185.107 61.8603 185.301 62.3583" stroke="#2F79CD" stroke-width="2.17923" stroke-linecap="round" stroke-linejoin="round"/>
<path d="M172.978 34.7314C174.72 43.8893 170.968 54.9751 171.353 64.6149C171.431 66.5844 171.422 68.447 172.978 69.6601C174.645 70.9573 177.008 70.6527 179.094 70.2798L186.431 68.9774" stroke="#2F79CD" stroke-width="2.72403" stroke-linecap="round" stroke-linejoin="round"/>
<path d="M173.574 70.6053V73.7565" stroke="#2F79CD" stroke-width="2.72403" stroke-linecap="round" stroke-linejoin="round"/>
<path d="M196.205 47.6588C196.691 47.8988 197.412 49.0701 197.766 49.4805C198.121 49.891 198.39 50.3684 198.557 50.8847C198.688 51.2186 198.741 51.5776 198.714 51.9351C198.65 52.2819 198.496 52.6059 198.268 52.8748C198.04 53.1438 197.746 53.3485 197.415 53.4686C196.77 53.7417 195.088 53.2743 194.386 53.2743L193.338 74.6341" stroke="#2F79CD" stroke-width="2.72403" stroke-linecap="round" stroke-linejoin="round"/>
<path d="M193.138 45.8171C193.299 46.2261 193.105 47.4044 193.138 45.8171C192.823 45.295 192.095 40.8839 191.54 40.633C189.148 34.2493 181.104 36.5627 175.509 36.8044C175.085 36.8522 174.656 36.8256 174.241 36.7256C173.277 36.4157 171.368 35.2472 171.353 34.2493C171.306 31.2532 173.879 30.7595 175.221 29.4413C175.602 29.0207 176.067 28.6862 176.587 28.4598C177.106 28.2334 177.668 28.1204 178.234 28.1283C178.992 28.2056 179.738 28.3731 180.456 28.6272C184.649 29.8877 188.925 30.3078 193.17 31.2532C195.953 31.8781 197.043 34.1102 197.216 36.7203C197.478 40.6382 197.551 44.5596 197.436 48.4845C197.461 48.6794 197.437 48.8775 197.367 49.0609C197.296 49.2443 197.181 49.4072 197.032 49.5348C196.825 49.6279 196.597 49.6642 196.372 49.6399C194.69 49.6084 193.641 48.4477 193.138 46.8879C192.672 45.4279 193.138 47.3559 193.138 45.8171Z" fill="#2F79CD"/>
<path d="M188.631 41.4315C186.961 42.0898 185.312 42.79 183.684 43.5323" stroke="#2F79CD" stroke-width="2.72403" stroke-linecap="round" stroke-linejoin="round"/>
<path d="M175.289 40.1448C176.613 40.819 177.845 41.659 178.957 42.6446" stroke="#2F79CD" stroke-width="2.72403" stroke-linecap="round" stroke-linejoin="round"/>
<path d="M185.781 49.1912C186.047 49.1912 186.262 48.9754 186.262 48.7092C186.262 48.443 186.047 48.2272 185.781 48.2272C185.516 48.2272 185.301 48.443 185.301 48.7092C185.301 48.9754 185.516 49.1912 185.781 49.1912Z" fill="#2F79CD" stroke="#2F79CD" stroke-width="2.72403" stroke-linecap="round" stroke-linejoin="round"/>
<path d="M185.634 53.7995C188.239 53.7995 190.351 51.6833 190.351 49.0729C190.351 46.4624 188.239 44.3462 185.634 44.3462C183.029 44.3462 180.918 46.4624 180.918 49.0729C180.918 51.6833 183.029 53.7995 185.634 53.7995Z" stroke="#2F79CD" stroke-width="2.17923" stroke-linecap="round" stroke-linejoin="round"/>
<path d="M174.191 53.7995C176.796 53.7995 178.907 51.6833 178.907 49.0729C178.907 46.4624 176.796 44.3462 174.191 44.3462C171.586 44.3462 169.474 46.4624 169.474 49.0729C169.474 51.6833 171.586 53.7995 174.191 53.7995Z" stroke="#2F79CD" stroke-width="2.17923" stroke-linecap="round" stroke-linejoin="round"/>
<path d="M190.465 47.9699C194.051 46.2637 197.99 45.4322 201.958 45.5436C202.181 45.5352 202.404 45.5727 202.613 45.6539C202.963 45.8615 203.226 46.1902 203.352 46.5782C203.761 47.4789 204.074 48.4208 204.285 49.3879" stroke="#2F79CD" stroke-width="2.17923" stroke-linecap="round" stroke-linejoin="round"/>
<path d="M146.639 33.6692C150.063 33.8127 153.476 34.0561 156.879 34.3992" stroke="#2F79CD" stroke-width="2.72403" stroke-linecap="round" stroke-linejoin="round"/>
<path d="M158.1 8.51819L161.837 11.7953" stroke="#2F79CD" stroke-width="2.72403" stroke-linecap="round" stroke-linejoin="round"/>
<path d="M189.025 2.30505L188.878 9.34252" stroke="#2F79CD" stroke-width="2.72403" stroke-linecap="round" stroke-linejoin="round"/>
<path d="M213.372 20.7706C214.561 19.985 215.811 19.2948 217.109 18.7067" stroke="#2F79CD" stroke-width="2.72403" stroke-linecap="round" stroke-linejoin="round"/>
<path d="M215.369 42.2927C217.678 41.7627 220.027 41.4254 222.391 41.2843" stroke="#2F79CD" stroke-width="2.72403" stroke-linecap="round" stroke-linejoin="round"/>
<path d="M300.926 373.723V247.829C300.926 227.347 300.979 206.864 300.926 186.382C300.879 174.035 302.346 160.223 301.345 147.293C301.031 142.776 300.292 138.299 299.139 133.921C291.399 105.346 261.59 88.9867 233.449 88.9867C228.636 88.9884 223.834 89.4385 219.105 90.3312" stroke="#2F79CD" stroke-width="2.72403" stroke-linecap="round" stroke-linejoin="round"/>
<path d="M165.982 306.607V373.723" stroke="#2F79CD" stroke-width="2.72403" stroke-linecap="round" stroke-linejoin="round"/>
<path d="M279.568 198.609H273.796V223.672H279.568V198.609Z" fill="white" stroke="#2F79CD" stroke-width="2.72403" stroke-linecap="round" stroke-linejoin="round"/>
<path d="M165.581 81.0027C168.154 93.4601 153.766 105.919 152.094 106.843" stroke="#2F79CD" stroke-width="2.72403" stroke-linecap="round" stroke-linejoin="round"/>
<path d="M207.905 122.936L209.216 149.908" stroke="#2F79CD" stroke-width="2.72403" stroke-linecap="round" stroke-linejoin="round"/>
<path d="M199.729 88.2324C208.386 94.0163 211.753 96.9083 214.845 106.25" stroke="#2F79CD" stroke-width="2.72403" stroke-linecap="round" stroke-linejoin="round"/>
<path d="M150.308 133.512C148.935 130.828 145.895 128.476 143.097 129.573L144.019 141.941C133.379 141.559 122.726 142.13 112.188 143.648C111.852 144.588 112.444 145.654 113.288 146.185C114.172 146.651 115.151 146.908 116.15 146.936C122.117 147.555 128.103 147.986 134.109 148.228L122.711 149.142C120.74 149.299 118.33 149.787 117.758 151.683C122.917 153.856 128.501 154.825 134.088 154.514C129.774 154.61 125.476 155.081 121.243 155.922C130.634 160.764 141.158 162.807 151.55 164.792C152.687 154.11 155.38 143.454 150.308 133.512Z" fill="#FAF9F8" stroke="#2F79CD" stroke-width="2.72403" stroke-linecap="round" stroke-linejoin="round"/>
<ellipse cx="185.781" cy="48.7093" rx="1.44286" ry="1.44597" fill="#2F79CD"/>
<ellipse cx="176.162" cy="48.7093" rx="1.44286" ry="1.44597" fill="#2F79CD"/>
</svg>
