<svg width="415" height="376" viewBox="0 0 415 376" fill="none" xmlns="http://www.w3.org/2000/svg">
<g clip-path="url(#clip0)">
<path d="M213.447 334.636C225.234 316.073 231.478 294.519 231.444 272.517C231.444 208.479 179.635 156.562 115.722 156.562C51.8086 156.562 0.000139921 208.479 0.000139921 272.517C-0.0340827 294.519 6.21014 316.073 17.9967 334.636H213.447Z" fill="#F0F6FA"/>
<path d="M317.812 113.373L132.942 91.4471V71.2009L325.582 50.4945L325.504 51.1433" fill="#F0F6FA"/>
<path d="M317.812 113.373L132.942 91.4471V71.2009L325.582 50.4945L325.504 51.1433" stroke="#2F79CD" stroke-width="2.36275" stroke-linecap="round" stroke-linejoin="round"/>
<path d="M147.798 86.2705C148.716 86.9055 151.632 93.2002 151.908 93.2094C156.874 93.3136 161.805 94.0622 166.58 95.4365L164.173 106.567C164.114 106.981 163.957 107.374 163.714 107.713C163.117 108.426 161.997 108.288 161.087 108.086C156.697 107.106 149.455 107.166 147.577 102.983C146.567 100.724 146.962 96.5777 146.911 94.1205C146.888 92.7401 147.192 91.3597 147.32 90.0023C147.449 88.7461 147.311 87.3979 147.798 86.2705Z" fill="white" stroke="#2F79CD" stroke-width="2.36275" stroke-linecap="round" stroke-linejoin="round"/>
<path d="M183.915 65.6837V96.5132" stroke="#2F79CD" stroke-width="2.36275"/>
<path d="M163.71 107.557L153.607 164.614" stroke="#2F79CD" stroke-width="2.36275"/>
<path d="M149.015 105.256L139.831 126.422" stroke="#2F79CD" stroke-width="2.36275"/>
<path d="M132.024 85.0097L119.166 83.1691V76.7272L132.024 75.8069V85.0097Z" fill="#F0F6FA" stroke="#2F79CD" stroke-width="2.36275" stroke-linecap="round" stroke-linejoin="round"/>
<path d="M114.266 74.8544C114.317 76.994 115.538 78.9036 116.287 80.9098C116.31 80.9584 116.318 81.013 116.31 81.0663C116.277 81.1675 116.14 81.1905 116.034 81.1905H113.077" stroke="#2F79CD" stroke-width="2.36275" stroke-linecap="round" stroke-linejoin="round"/>
<path d="M111.033 76.1198C109.775 75.6596 109.407 75.3007 108.103 75.0062" stroke="#2F79CD" stroke-width="2.36275" stroke-linecap="round" stroke-linejoin="round"/>
<path d="M119.62 84.2229C119.276 85.3364 118.936 88.2905 118.596 89.4041C118.482 89.9143 118.243 90.3884 117.903 90.7845C117.534 91.1002 117.089 91.3129 116.612 91.4011C113.368 92.2284 109.93 91.7841 107.001 90.1587" stroke="#2F79CD" stroke-width="2.36275" stroke-linecap="round" stroke-linejoin="round"/>
<path d="M115.492 85.0052C114.046 84.8672 112.737 85.0052 112.737 85.9255" stroke="#2F79CD" stroke-width="2.36275" stroke-linecap="round" stroke-linejoin="round"/>
<path d="M121.554 75.1121V66.5488" stroke="#2F79CD" stroke-width="2.36275" stroke-linecap="round" stroke-linejoin="round"/>
<path d="M102.455 76.3313C101.915 75.5009 101.204 74.7951 100.37 74.2607C99.9497 73.9984 99.4629 73.862 98.9674 73.8677C98.4719 73.8734 97.9884 74.0209 97.5738 74.2929C96.6554 74.9923 96.5727 76.3773 97.0319 77.4218C97.4912 78.4664 98.3866 79.2624 99.2499 79.9848L100.77 81.2916C100.887 81.3844 100.989 81.4945 101.073 81.6183C101.177 81.8375 101.22 82.0808 101.197 82.3223C101.196 86.9177 100.89 91.5078 100.279 96.0622" stroke="#2F79CD" stroke-width="2.36275" stroke-linecap="round" stroke-linejoin="round"/>
<path d="M99.686 96.5086C100.017 97.4288 100.774 98.0776 101.5 98.708C105.853 102.449 111.805 99.9182 116.406 97.958C116.323 96.0162 116.291 94.0744 116.323 92.1372" stroke="#2F79CD" stroke-width="2.36275" stroke-linecap="round" stroke-linejoin="round"/>
<path d="M108.172 65.3525C104.847 66.213 104.186 72.8344 103.263 75.6229C102.266 74.5645 101.233 73.4372 100.903 72.02C100.75 71.1926 100.729 70.3463 100.838 69.5122C101.01 67.4968 101.229 65.489 101.495 63.4889C101.628 62.4812 101.798 61.4229 102.413 60.6222C103.023 59.9573 103.808 59.4788 104.677 59.2418C106.698 58.6416 108.797 58.3439 110.904 58.3584C115.193 58.2387 119.762 58.5654 123.234 61.087C124.341 61.8876 125.47 63.1714 124.952 64.6439C124.784 65.1348 124.478 65.5666 124.07 65.8867C123.663 66.2069 123.171 66.4017 122.656 66.4476C121.654 66.4845 120.626 65.9875 119.657 65.762C117.968 65.4915 116.26 65.3652 114.55 65.3847C112.64 65.3295 110.234 64.989 108.369 65.3249C108.303 65.3299 108.237 65.3391 108.172 65.3525Z" fill="#2F79CD" stroke="#2F79CD" stroke-width="2.36275" stroke-linecap="round" stroke-linejoin="round"/>
<path d="M98.6852 95.9197C83.7424 99.0993 69.8741 108.505 62.8436 122.097C57.4203 132.593 56.2768 144.731 55.7304 156.539C55.2191 167.518 55.1411 178.507 55.4962 189.508C55.5329 190.566 55.6385 191.763 56.4697 192.407C57.0428 192.766 57.7038 192.961 58.38 192.968L75.6143 194.68C76.8541 177.908 80.5793 161.416 86.6676 145.744" stroke="#2F79CD" stroke-width="2.36275" stroke-linecap="round" stroke-linejoin="round"/>
<path d="M116.87 97.4288C121.506 99.5323 125.784 102.35 129.549 105.78C131.549 107.512 133.312 109.5 134.793 111.693C137.622 116.069 138.706 121.319 139.734 126.418L144.721 151.178" stroke="#2F79CD" stroke-width="2.36275" stroke-linecap="round" stroke-linejoin="round"/>
<path d="M153.57 163.988C153.334 165.601 152.77 167.147 151.912 168.532C151.054 169.916 149.921 171.109 148.583 172.036C145.952 173.808 142.108 173.877 139.766 171.746" stroke="#2F79CD" stroke-width="2.36275" stroke-linecap="round" stroke-linejoin="round"/>
<path d="M99.8791 96.5132L96.6646 194.523" stroke="#2F79CD" stroke-width="2.36275" stroke-linecap="round" stroke-linejoin="round"/>
<path d="M132.942 134.705L142.127 194.523" stroke="#2F79CD" stroke-width="2.36275" stroke-linecap="round" stroke-linejoin="round"/>
<path d="M96.6646 194.523L76.9185 188.081" stroke="#2F79CD" stroke-width="2.36275" stroke-linecap="round" stroke-linejoin="round"/>
<path d="M71.6373 195.499C72.2324 197.571 72.3888 199.745 72.0965 201.881C71.8852 203.261 71.3204 204.693 70.0989 205.328C68.8774 205.963 66.99 205.199 67.0268 203.818C67.023 205.065 66.8007 206.302 66.3701 207.472C65.8741 208.613 64.8639 209.611 63.6148 209.736C62.3658 209.86 61.0478 208.815 61.1626 207.587C59.785 208.581 57.9114 209.598 56.4741 208.673C55.4638 208.019 55.1837 206.694 54.9908 205.507C54.3617 201.623 53.8152 197.316 55.9873 194.036" stroke="#2F79CD" stroke-width="2.36275" stroke-linecap="round" stroke-linejoin="round"/>
<path d="M142.136 195.296C144.602 212.722 146.636 229.098 150.975 246.151C156.311 267.138 163.076 287.895 165.395 309.425C156.823 310.069 148.266 310.715 139.725 311.362C134.513 311.749 133.668 311.28 133.59 316.553C133.53 320.786 133.737 325.042 133.81 329.28C133.761 329.509 133.771 329.747 133.841 329.971C133.911 330.195 134.037 330.397 134.208 330.557C134.378 330.717 134.587 330.831 134.815 330.886C135.042 330.941 135.28 330.937 135.505 330.872C140.282 330.907 145.057 330.599 149.791 329.952C150.25 328.88 149.791 327.652 149.855 326.474C149.919 325.296 151.086 323.975 152.064 324.633C152.396 324.911 152.636 325.283 152.753 325.701L154.589 330.458L187.653 328.498C188.778 325.222 186.913 321.509 184.14 319.438C181.366 317.367 177.872 316.567 174.496 315.853C157.546 312.344 140.185 311.259 122.931 312.632L113.807 203.639C109.743 217.848 112.319 233.332 108.112 247.499C107.511 249.529 106.735 251.59 105.247 253.104C103.759 254.618 101.674 255.451 99.6767 256.224L65.9705 269.26C57.4016 272.577 48.75 275.913 39.6667 277.271C39.2823 277.378 38.8715 277.333 38.5187 277.146C38.3661 277 38.2437 276.826 38.1586 276.632C38.0734 276.439 38.0273 276.23 38.0228 276.019C36.1859 263.568 34.3491 251.116 32.5122 238.665C47.8591 237.171 63.1922 235.56 78.5116 233.833C80.4862 233.608 82.7685 233.184 83.6961 231.422C84.2609 230.345 84.1553 229.052 84.0038 227.847C82.4424 214.544 80.7112 200.929 76.9365 188.081" fill="#2F79CD"/>
<path d="M142.136 195.296C144.602 212.722 146.636 229.098 150.975 246.151C156.311 267.138 163.076 287.895 165.395 309.425C156.823 310.069 148.266 310.715 139.725 311.362C134.513 311.749 133.668 311.28 133.59 316.553C133.53 320.786 133.737 325.042 133.81 329.28C133.761 329.509 133.771 329.747 133.841 329.971C133.911 330.195 134.037 330.397 134.208 330.557C134.378 330.717 134.587 330.831 134.815 330.886C135.042 330.941 135.28 330.937 135.505 330.873C140.282 330.907 145.057 330.599 149.791 329.952C150.25 328.88 149.791 327.652 149.855 326.474C149.919 325.296 151.086 323.975 152.064 324.633C152.396 324.911 152.636 325.283 152.753 325.701L154.589 330.458L187.653 328.498C188.778 325.222 186.913 321.509 184.14 319.438C181.366 317.367 177.872 316.567 174.496 315.853C157.546 312.344 140.185 311.259 122.931 312.632L113.807 203.639C109.743 217.848 112.319 233.332 108.112 247.499C107.511 249.529 106.735 251.59 105.247 253.104C103.759 254.618 101.674 255.451 99.6767 256.224L65.9705 269.26C57.4016 272.577 48.75 275.913 39.6667 277.271C39.2823 277.378 38.8715 277.333 38.5187 277.146C38.3661 277 38.2437 276.826 38.1586 276.632C38.0734 276.439 38.0273 276.23 38.0228 276.019C36.1859 263.568 34.3491 251.116 32.5122 238.665C47.8591 237.171 63.1922 235.56 78.5116 233.833C80.4862 233.608 82.7685 233.184 83.6961 231.422C84.2609 230.345 84.1553 229.052 84.0038 227.847C82.4424 214.544 80.7112 200.929 76.9365 188.081" stroke="#2F79CD" stroke-width="2.36275" stroke-linecap="round" stroke-linejoin="round"/>
<path d="M26.538 241.858C26.1453 241.792 25.742 241.847 25.3808 242.015C24.9981 242.316 24.7371 242.746 24.646 243.225L21.1468 254.365C22.1892 253.274 23.9434 254.489 24.9124 255.649C25.8813 256.808 26.9421 258.101 27.2084 259.629C27.4748 261.156 26.6298 262.997 25.096 263.236C23.5623 263.476 21.7759 262.003 20.3983 262.841C19.7784 263.222 19.4799 263.954 19.2365 264.635L13.6984 279.719C12.5366 282.866 11.3656 286.087 11.0625 289.451C16.867 290.716 22.8184 288.125 27.8284 284.932C30.3724 283.326 32.8384 281.485 34.6706 279.093C39.5475 272.743 39.0332 263.793 37.2744 255.966C36.5304 252.635 35.8967 247.559 34.0048 244.642C32.1128 241.725 30.0831 242.088 26.538 241.858Z" fill="#2F79CD"/>
<path d="M116.411 97.8937L125.595 192.683L121.554 151.196" stroke="#2F79CD" stroke-width="2.36275" stroke-linecap="round" stroke-linejoin="round"/>
<path d="M125.595 199.125L95.0576 199.355L97.5833 154.951H121.462L125.595 199.125Z" fill="#2F79CD"/>
<path d="M30.5381 238.697L38.8039 280.57" stroke="#F0F6FA" stroke-width="2.36275" stroke-linecap="round" stroke-linejoin="round"/>
<path d="M168.761 310.479L122.84 312.78" stroke="#F0F6FA" stroke-width="2.36275" stroke-linecap="round" stroke-linejoin="round"/>
<path d="M134.779 199.585L156.822 310.019" stroke="#F0F6FA" stroke-width="2.36275" stroke-linecap="round" stroke-linejoin="round"/>
<path d="M99.8793 248.82L38.3447 269.526" stroke="#F0F6FA" stroke-width="2.36275" stroke-linecap="round" stroke-linejoin="round"/>
<path d="M107.227 204.186L99.8794 248.82" stroke="#F0F6FA" stroke-width="2.36275" stroke-linecap="round" stroke-linejoin="round"/>
<path d="M189.02 326.177L159.63 327.558" stroke="#F0F6FA" stroke-width="2.36275" stroke-linecap="round" stroke-linejoin="round"/>
<path d="M145.801 327.098H130.646" stroke="#F0F6FA" stroke-width="2.36275" stroke-linecap="round" stroke-linejoin="round"/>
<path d="M28.8866 238.852L24.2944 257.718" stroke="#F0F6FA" stroke-width="2" stroke-linecap="round" stroke-linejoin="round"/>
<path d="M22.9212 266.117L11.6611 295.021" stroke="#F0F6FA" stroke-width="2" stroke-linecap="round" stroke-linejoin="round"/>
<path d="M368 334L29 335" stroke="#2F79CD" stroke-width="2.36275" stroke-linecap="round" stroke-linejoin="round"/>
<path d="M71.4077 302.192C72.7854 303.572 73.8416 306.172 75.1411 307.189C75.4694 307.472 75.8377 307.704 76.2341 307.879C76.7451 308.036 77.2802 308.1 77.8138 308.068C82.8743 308.068 87.9333 308.204 92.9907 308.477C94.3331 306.133 96.0049 303.995 97.9548 302.127L97.863 311.942C97.8308 315.596 97.6563 319.617 95.172 322.291C92.7979 324.84 88.9634 325.388 85.4918 325.162C82.4243 324.964 79.2786 324.242 76.8724 322.318C74.2474 320.081 72.9544 319.387 70.6776 314.174C69.8235 312.218 71.4077 304.032 71.4077 302.192Z" stroke="#2F79CD" stroke-width="2.36275" stroke-linecap="round" stroke-linejoin="round"/>
<path d="M78.7095 319.579C79.3674 319.138 80.1263 318.871 80.915 318.805C81.7037 318.738 82.4965 318.873 83.2189 319.197" stroke="#2F79CD" stroke-width="2.36275" stroke-linecap="round" stroke-linejoin="round"/>
<path d="M88.1689 319.082C89.8581 318.714 91.6011 318.667 93.3075 318.944" stroke="#2F79CD" stroke-width="2.36275" stroke-linecap="round" stroke-linejoin="round"/>
<path d="M84.2017 322.203H87.2738" stroke="#2F79CD" stroke-width="2.36275" stroke-linecap="round" stroke-linejoin="round"/>
<path d="M91.833 325.003C92.9153 324.683 95.2521 326.45 96.3653 326.634C97.4784 326.818 98.5358 327.252 99.4584 327.902C100.366 328.573 101.073 329.48 101.501 330.525C101.929 331.57 102.063 332.713 101.888 333.829" stroke="#2F79CD" stroke-width="2.36275" stroke-linecap="round" stroke-linejoin="round"/>
<path d="M44.6538 318.812C48.6949 317.892 53.1125 318.14 56.7495 320.133C60.3864 322.125 63.0866 326.023 63.0499 330.178C65.0842 329.63 67.2471 329.078 69.2676 329.681C71.2882 330.284 72.9735 332.515 72.202 334.48" stroke="#2F79CD" stroke-width="2.36275" stroke-linecap="round" stroke-linejoin="round"/>
<path d="M69.1117 313.235C62.0536 310.934 53.4984 309.457 46.0684 309.697C40.1491 309.89 33.913 310.525 28.6183 313.405C22.6026 316.682 19.0207 322.802 17.5007 329.359C16.4308 333.96 17.2895 338.893 19.3651 343.163C21.4408 347.433 24.6736 351.013 28.329 353.999C30.8868 356.088 33.665 357.901 36.108 360.124C38.5511 362.346 40.7002 365.061 41.5084 368.264C42.1926 370.955 42.1926 374.328 44.5989 375.713C46.5551 376.836 49.4344 375.548 49.9028 373.339C50.0375 372.447 49.9969 371.537 49.7834 370.661C49.0119 366.391 47.9466 362.102 45.7194 358.375C41.6737 351.583 34.4044 347.488 28.8938 341.81C27.3554 340.227 27.8606 336.923 28.6964 334.876" stroke="#2F79CD" stroke-width="2.36275" stroke-linecap="round" stroke-linejoin="round"/>
<path d="M295.178 175.869L288.887 154.054L249.964 165.323L246.915 154.74L266.573 91.0376L285.709 85.5159L300.647 137.328L311.732 134.107L315.278 146.402L304.192 149.623L310.483 171.438L295.178 175.869ZM285.341 141.759L278.596 118.356C277.186 113.465 276.038 108.495 274.816 103.264L274.288 103.415C273.214 109.6 272.226 114.615 270.959 120.137L261.912 148.256L261.986 148.518L285.341 141.759Z" fill="white"/>
<path d="M294.392 177.296L288.101 155.48L249.178 166.745L245.716 154.735L265.659 90.1035L286.494 84.0848L301.432 135.915L312.517 132.694L316.701 147.202L305.616 150.423L311.902 172.239L294.392 177.296ZM289.672 152.646L295.958 174.461L309.05 170.656L302.764 148.841L313.845 145.62L310.938 135.538L299.857 138.759L284.923 86.9239L267.473 91.9855L248.113 154.758L250.73 163.896L289.672 152.646ZM261.2 149.959L260.705 148.252L260.815 147.916L269.847 119.847C271.055 114.578 272.042 109.609 273.154 103.231L273.278 102.523L275.656 101.837L276.116 103.807C277.273 108.758 278.361 113.437 279.693 118.071L286.76 142.578L261.2 149.959ZM274.678 107.745C273.838 112.319 273.025 116.272 272.075 120.408L272.047 120.505L263.588 146.867L283.945 140.972L277.516 118.678C276.446 115.085 275.569 111.472 274.683 107.732L274.678 107.745Z" fill="#2F79CD"/>
<path d="M380.387 71.563L384.565 59.134L390.88 61.2654L393.235 54.26L386.92 52.1286L396.846 22.6004L385.946 18.9213L355.694 42.6794L353.668 48.7056L375.845 56.1907L371.666 68.6197L380.387 71.563ZM364.894 44.6942L364.944 44.5436L378.473 34.1802C380.888 31.9759 383.001 29.9214 385.543 27.3405L385.844 27.442C384.706 30.329 383.619 33.0653 382.682 35.8524L378.2 49.1853L364.894 44.6942Z" fill="white"/>
<path fill-rule="evenodd" clip-rule="evenodd" d="M385.725 17.63L398.304 21.8758L388.378 51.404L394.693 53.5354L391.603 62.7265L385.288 60.5951L381.11 73.0241L370.209 69.3445L374.387 56.9156L352.21 49.4304L354.713 41.9847L385.725 17.63ZM386.167 20.2129L356.675 43.3745L355.126 47.981L377.303 55.4661L373.125 67.8951L379.664 70.1022L383.842 57.6732L390.157 59.8046L391.777 54.9848L385.462 52.8535L395.388 23.3253L386.167 20.2129ZM385.229 26.0178L387.359 26.7367L386.914 27.8657C386.86 28.004 386.805 28.1419 386.751 28.2793C385.671 31.0194 384.654 33.5988 383.772 36.2207L378.923 50.6464L363.436 45.4191L363.966 43.8416L377.734 33.2944C380.116 31.1193 382.206 29.0873 384.724 26.5306L385.229 26.0178ZM383.042 31.4569C381.79 32.6756 380.563 33.832 379.248 35.0328L379.211 35.0663L367.21 44.2594L377.476 47.7245L381.591 35.4844C382.045 34.1355 382.533 32.7991 383.042 31.4569Z" fill="#2F79CD"/>
<path d="M203.487 310.649C202.609 302.914 203.454 295.097 204.304 287.362C215.568 298.552 220.519 315.734 216.946 331.218C217.786 322.631 218.641 313.976 221.171 305.726C223.701 297.476 228.059 289.561 234.809 284.2C236.545 301.451 228.638 319.364 214.728 329.681C225.442 319.958 237.762 310.562 252.172 309.435C251.314 309.504 243.328 320.906 241.551 322.319C236.905 326.038 231.536 328.743 225.786 330.261C220.826 331.558 214.668 333.021 210.724 329.566C206.017 325.461 204.148 316.493 203.487 310.649Z" fill="#F0F6FA" stroke="#2F79CD" stroke-width="2.36275" stroke-linecap="round" stroke-linejoin="round"/>
<path d="M361.631 83.1646C361.631 101.46 347.446 116.295 329.945 116.295C325.086 116.298 320.296 115.137 315.976 112.908C305.483 107.515 298.259 96.2234 298.259 83.1646C298.259 67.1149 309.179 53.7156 323.672 50.6832C325.735 50.252 327.837 50.0345 329.945 50.0344C347.446 50.0344 361.631 64.874 361.631 83.1646Z" fill="#F0F6FA" stroke="#2F79CD" stroke-width="2.36275"/>
<path d="M330.129 106.176C342.404 106.176 352.355 95.7724 352.355 82.9389C352.355 70.1054 342.404 59.7018 330.129 59.7018C317.854 59.7018 307.903 70.1054 307.903 82.9389C307.903 95.7724 317.854 106.176 330.129 106.176Z" fill="#2F79CD" stroke="#2F79CD" stroke-width="2.36275"/>
<path d="M256.93 99.7342L190.344 92.3719" stroke="#2F79CD" stroke-width="2.36275" stroke-linecap="round" stroke-linejoin="round"/>
<path d="M231.214 321.983L216.979 331.185" stroke="#2F79CD" stroke-width="2.36275" stroke-linecap="round" stroke-linejoin="round"/>
<path d="M227.54 302.196L223.866 310.479" stroke="#2F79CD" stroke-width="2.36275" stroke-linecap="round" stroke-linejoin="round"/>
<path d="M210.09 316.001L212.386 325.204" stroke="#2F79CD" stroke-width="2.36275" stroke-linecap="round" stroke-linejoin="round"/>
</g>
<defs>
<clipPath id="clip0">
<rect width="415" height="376" fill="white"/>
</clipPath>
</defs>
</svg>
