<svg width="320" height="270" viewBox="0 0 320 270" fill="none" xmlns="http://www.w3.org/2000/svg">
<g clip-path="url(#clip0)">
<path d="M303.309 269.888C314.24 252.761 320.031 232.876 320 212.577C320 153.491 271.946 105.596 212.675 105.596C153.403 105.596 105.349 153.491 105.349 212.577C105.317 232.876 111.106 252.761 122.036 269.888H303.309Z" fill="#F0F6FA"/>
<rect x="105.714" y="240.18" width="58.0952" height="27.5304" fill="#F0F6FA"/>
<path d="M289.549 187.742H172.002V196.233H289.549V187.742Z" fill="#2F79CD" stroke="#2F79CD" stroke-width="2.23595" stroke-linecap="round" stroke-linejoin="round"/>
<path d="M161.84 205.063C160.541 206.247 159.203 207.44 158.352 208.977C156.912 211.583 157.074 214.742 157.219 217.714C157.585 226.402 157.13 235.105 155.86 243.708L109.544 242.527C109.332 242.551 109.118 242.528 108.917 242.459C108.715 242.391 108.531 242.28 108.377 242.132C108.232 241.885 108.165 241.599 108.186 241.313C107.623 222.371 107.065 203.411 107.789 184.477C107.99 179.226 108.296 173.928 109.723 168.867C112.04 160.666 117.227 153.368 118.645 144.966C119.174 141.812 119.225 138.386 121.111 135.797C122.155 134.362 123.667 133.343 125.145 132.358C131.891 127.858 138.803 123.341 146.614 121.15C154.425 118.96 163.416 119.452 169.885 124.317C174.702 127.947 177.581 133.513 180.302 138.883C182.674 143.553 185.064 148.295 186.469 153.355C189.127 162.928 189.966 173.287 183.79 181.268C177.176 189.816 169.832 197.777 161.84 205.063Z" fill="white"/>
<path d="M290.034 97.5042C289.923 112.66 289.817 127.845 291.205 142.929C292.164 153.385 293.816 164.155 290.805 174.212C290.46 175.375 290 176.59 289.025 177.316C288.05 178.041 286.678 178.135 285.426 178.165C252.314 179.297 219.188 179.192 186.048 177.85C185.353 177.886 184.662 177.73 184.05 177.4C183.25 176.874 184.016 178.25 184.153 177.32C185.579 167.394 178.859 153.546 173.931 143.358C171.159 137.631 162.956 132.791 160.843 126.801C159.31 122.428 157.768 117.623 159.361 113.271C160.464 110.27 162.9 107.977 165.298 105.855C173.005 99.0265 181.145 92.7006 189.668 86.9165C194.451 83.6731 199.464 80.5486 205.09 79.1901C219.293 75.7514 233.403 84.0467 247.773 86.6872C249.796 87.0608 251.887 87.3368 253.697 88.3132C256.027 89.5868 257.602 91.824 259.276 93.866C262.892 98.266 267.298 101.956 272.27 104.747L290.034 97.5042Z" fill="white"/>
<path d="M292.53 12.4117L171.576 10.7136" stroke="#2F79CD" stroke-width="2.23595" stroke-linecap="round" stroke-linejoin="round"/>
<path d="M290.4 178.402H185.63" stroke="#2F79CD" stroke-width="2.23595" stroke-linecap="round" stroke-linejoin="round"/>
<path d="M171.576 10.7136V70.5721" stroke="#2F79CD" stroke-width="2.23595" stroke-linecap="round" stroke-linejoin="round"/>
<path d="M279.327 44.2513L222.683 145.077L190.315 89.799L219.657 111.461C221.821 113.059 224.862 112.657 226.538 110.553L279.327 44.2513Z" fill="#2F79CD" stroke="#2F79CD" stroke-width="2.23595" stroke-linecap="round" stroke-linejoin="round"/>
<path d="M219.276 9.86456L222.257 0.949463L242.7 1.37399L244.83 10.7136L219.276 9.86456Z" fill="#2F79CD" stroke="#2F79CD" stroke-width="2.23595" stroke-linecap="round" stroke-linejoin="round"/>
<path d="M274.902 268.827H268.94L259.046 178.615H265.009L274.902 268.827Z" fill="#2F79CD" stroke="#2F79CD" stroke-width="2.23595" stroke-linecap="round" stroke-linejoin="round"/>
<path d="M255.311 268.827H249.348L239.455 178.615H245.417L255.311 268.827Z" fill="#2F79CD" stroke="#2F79CD" stroke-width="2.23595" stroke-linecap="round" stroke-linejoin="round"/>
<path d="M196.865 268.827H202.828L212.722 178.615H206.759L196.865 268.827Z" fill="#2F79CD" stroke="#2F79CD" stroke-width="2.23595" stroke-linecap="round" stroke-linejoin="round"/>
<path d="M180.682 268.827H186.644L196.538 178.615H190.575L180.682 268.827Z" fill="#2F79CD" stroke="#2F79CD" stroke-width="2.23595" stroke-linecap="round" stroke-linejoin="round"/>
<path d="M275.507 246.773C275.873 239.246 278.407 231.685 283.403 226.026C286.141 232.029 288.59 238.265 289.365 244.816C290.14 251.366 289.02 258.328 285.179 263.699C281.043 269.481 279.135 268.975 277.347 262.234C275.941 257.205 275.32 251.99 275.507 246.773V246.773Z" stroke="#2F79CD" stroke-width="2.23595" stroke-linecap="round" stroke-linejoin="round"/>
<path d="M306.41 240.443C306.81 243.194 307.138 245.956 307.394 248.73C307.581 250.708 307.721 252.733 307.253 254.673C306.58 257.42 304.719 259.734 302.611 261.623C297.296 266.394 286.853 270.852 290.29 259.445C292.662 251.544 298.756 243.742 306.41 240.443Z" stroke="#2F79CD" stroke-width="2.23595" stroke-linecap="round" stroke-linejoin="round"/>
<path d="M311.269 268.827H26.7717" stroke="#2F79CD" stroke-width="2.23595" stroke-linecap="round" stroke-linejoin="round"/>
<path d="M110.775 98.8032C109.472 100.123 106.81 101.35 105.315 102.463C98.4497 107.523 89.6209 109.37 81.0817 109.208C72.5425 109.047 64.1652 107.026 55.8687 105.006L55.4727 88.2834C69.9829 89.8032 85.0808 83.9192 94.7146 73.0004C100.03 66.9636 103.658 59.6447 108.65 53.332C113.543 47.1381 117.419 47.2442 121.427 53.8839C124.655 59.2414 125.626 65.8768 124.655 72.0027C123.279 80.6928 118.514 87.8886 113.211 94.6853C108.181 101.134 112.534 110.771 112.824 118.62C112.917 121.189 113.011 123.778 112.611 126.321C112.185 128.953 111.261 131.475 110.558 134.048C108.522 141.523 108.484 149.377 108.458 157.125C108.364 185.348 106.567 213.587 106.469 241.789C122.562 242.457 138.661 242.326 154.766 241.398C155.316 241.424 155.858 241.265 156.307 240.948C156.675 240.519 156.88 239.975 156.887 239.411C161.18 205.326 155.37 170.816 155.903 136.467C156.29 111.811 159.94 87.1117 157.445 62.5994C157.044 58.6768 156.461 54.6735 154.608 51.1881C152.755 47.7027 149.399 44.7777 145.456 44.4381C144.306 47.7707 140.294 49.3032 136.763 49.1079C133.232 48.9126 129.919 47.4098 126.473 46.6372C123.028 45.8645 119.037 45.8645 116.401 48.2164" stroke="#2F79CD" stroke-width="2.23595" stroke-linecap="round" stroke-linejoin="round"/>
<path d="M149.199 245.265L161.014 247.583C162.1 247.8 163.25 248.046 164.033 248.823C164.817 249.6 165.077 250.767 165.264 251.863C166.145 257.173 166.359 262.572 165.899 267.935C155.111 268.118 144.323 267.872 133.531 268.054C132.704 268.054 131.827 268.054 131.133 267.6C130.256 267.006 129.983 265.864 129.429 264.955C128.296 263.087 125.686 263.558 123.693 264.467C121.699 265.375 120.609 266.59 121.29 268.674L109.238 268.474C107.836 268.453 106.214 268.317 105.426 267.163C104.928 266.432 104.919 265.465 104.928 264.616C104.987 258.027 106.346 248.25 106.405 241.661" stroke="#2F79CD" stroke-width="2.23595" stroke-linecap="round" stroke-linejoin="round"/>
<path d="M155.563 240.879C154.953 241.278 144.281 251.653 144.779 245.697C144.945 243.723 148.557 244.848 150.009 244.988C153.416 245.353 157.449 246.033 160.656 244.564C162.1 243.897 165.55 241.231 163.748 239.554C162.377 238.285 156.729 240.119 155.563 240.879Z" stroke="#2F79CD" stroke-width="2.23595" stroke-linecap="round" stroke-linejoin="round"/>
<path d="M155.988 104.288C152.721 104.335 149.463 104.853 146.192 104.674C142.922 104.496 139.527 103.507 137.355 101.079C134.723 98.1409 134.45 93.8616 134.314 89.9262C134.093 83.7225 133.873 77.5201 133.654 71.3192C141.573 71.0871 149.493 70.964 157.415 70.9498" stroke="#2F79CD" stroke-width="1.78876" stroke-linecap="round" stroke-linejoin="round"/>
<path d="M129.072 47.7198C129.191 51.2561 130.626 54.767 133.215 57.866C134.649 59.6698 136.529 61.0701 138.671 61.9288C141.073 62.8585 144.272 63.0538 146.593 62.0434C149.842 60.6255 150.175 57.6283 150.17 55.0641C150.17 51.999 150.17 49.2184 150.17 46.149" stroke="#2F79CD" stroke-width="2.23595" stroke-linecap="round" stroke-linejoin="round"/>
<path d="M152.381 47.941C161.713 55.7136 167.922 66.1486 174.791 75.382C177.453 78.9608 180.226 83.2443 179.08 87.5575C178.595 89.4 177.432 90.9792 176.295 92.5118C170.758 99.9877 165.081 107.583 157.53 113.046" stroke="#2F79CD" stroke-width="2.23595" stroke-linecap="round" stroke-linejoin="round"/>
<path d="M158.806 93.9168C160.509 92.0447 161.34 90.1767 163.031 88.3046" stroke="#2F79CD" stroke-width="2.23595" stroke-linecap="round" stroke-linejoin="round"/>
<path d="M157.121 125.973C167.768 138.773 177.73 153.351 184.054 168.362C184.962 170.485 185.826 172.726 185.788 175.023C185.741 177.57 184.565 180.007 183.267 182.27C177.585 192.161 168.961 200.618 158.565 206.489" stroke="#2F79CD" stroke-width="2.23595" stroke-linecap="round" stroke-linejoin="round"/>
<path d="M82.1378 245.902C88.4886 245.902 93.637 244.477 93.637 242.718C93.637 240.96 88.4886 239.534 82.1378 239.534C75.787 239.534 70.6387 240.96 70.6387 242.718C70.6387 244.477 75.787 245.902 82.1378 245.902Z" fill="#2F79CD" stroke="#2F79CD" stroke-width="2.23595" stroke-linecap="round" stroke-linejoin="round"/>
<path d="M70.6388 243.78L70.2129 267.978" stroke="#2F79CD" stroke-width="2.23595" stroke-linecap="round" stroke-linejoin="round"/>
<path d="M94.4889 243.78L94.063 267.978" stroke="#2F79CD" stroke-width="2.23595" stroke-linecap="round" stroke-linejoin="round"/>
<path d="M94.2856 243.692C94.2732 241.013 94.0728 238.338 93.6861 235.687C93.3162 233.132 92.7082 230.454 91.0331 228.533C88.4608 225.583 83.8689 225.259 80.4293 227.009C76.9897 228.759 74.5747 232.17 72.9463 235.78C71.7712 238.394 70.9408 241.149 70.4761 243.977" stroke="#2F79CD" stroke-width="2.23595" stroke-linecap="round" stroke-linejoin="round"/>
<path d="M45.69 81.8221C47.1381 82.2466 48.3348 83.24 49.4762 84.2207C49.9021 84.5731 50.328 84.9976 50.328 85.541C50.328 86.2287 49.6082 86.6957 48.9353 86.8485C48.2624 87.0014 47.5299 86.9801 46.9336 87.324C48.8672 87.2009 50.8987 88.5 51.282 90.3933C51.6653 92.2867 50.0043 94.4094 48.058 94.2141C49.4354 94.8232 50.5403 95.9155 51.1628 97.2834C51.3417 97.6129 51.4103 97.9907 51.3587 98.3617C51.2181 98.9985 50.5069 99.3466 49.8723 99.44C49.2377 99.5334 48.552 99.4613 47.9387 99.6735C49.4379 99.6735 50.7113 100.926 51.1968 102.34C51.4566 103.091 51.5163 103.991 51.0392 104.628C50.6134 105.201 49.8553 105.422 49.1568 105.579C47.1594 106.037 44.8979 106.262 43.1943 105.154C40.8391 103.613 40.575 100.336 40.5495 97.5127L40.4771 88.9245C40.46 85.766 41.265 80.5485 45.69 81.8221Z" stroke="#2F79CD" stroke-width="2.23595" stroke-linecap="round" stroke-linejoin="round"/>
<path d="M55.7325 104.959L55.3066 268.827" stroke="#2F79CD" stroke-width="2.23595" stroke-linecap="round" stroke-linejoin="round"/>
<path d="M55.3066 88.4023V45.5249" stroke="#2F79CD" stroke-width="2.23595" stroke-linecap="round" stroke-linejoin="round"/>
<path d="M45.937 49.7703V80.3363" stroke="#2F79CD" stroke-width="2.23595" stroke-linecap="round" stroke-linejoin="round"/>
<path d="M44.6592 106.233L51.4735 268.402" stroke="#2F79CD" stroke-width="2.23595" stroke-linecap="round" stroke-linejoin="round"/>
<path d="M55.3067 73.9684H45.937" stroke="#2F79CD" stroke-width="2.23595" stroke-linecap="round" stroke-linejoin="round"/>
<path d="M29.425 49.4433C25.0213 49.3202 20.5537 48.6325 16.7973 46.391C11.925 43.4787 8.59028 38.1636 3.22827 36.3042C12.1039 33.8462 20.3748 28.2382 29.1099 26.1792C29.3505 28.394 29.1139 30.6346 28.4157 32.7509C27.5639 35.4212 26.1244 38.1976 26.9634 40.8679C27.3041 41.9462 27.9898 42.8801 28.5008 43.8905C29.3459 45.6119 29.6672 47.5422 29.425 49.4433Z" fill="#2F79CD" stroke="#2F79CD" stroke-width="2.23595" stroke-linecap="round" stroke-linejoin="round"/>
<path d="M55.9325 41.6405C55.2383 49.4985 36.4862 49.4773 30.8047 49.4646C30.3533 49.4646 29.8976 49.4646 29.4419 49.4646C29.684 47.5634 29.3628 45.6331 28.5177 43.9117C28.0066 42.9014 27.3209 41.9674 26.9802 40.8891C26.1284 38.2188 27.5807 35.4424 28.4325 32.7721C29.1307 30.6558 29.3674 28.4153 29.1267 26.2004C31.9933 25.4818 34.9628 25.262 37.9044 25.5509C44.7187 26.3108 56.6437 33.4259 55.9325 41.6405Z" stroke="#2F79CD" stroke-width="2.23595" stroke-linecap="round" stroke-linejoin="round"/>
<path d="M146.508 16.466C144.246 17.2174 141.823 17.315 139.442 17.2513C138.249 17.2174 136.993 17.1495 135.924 17.6759C135.388 17.9739 134.918 18.3763 134.541 18.859C134.164 19.3418 133.889 19.8952 133.731 20.4862C133.483 21.2676 133.001 21.9548 132.351 22.4561C131.461 23.0589 131.073 22.3499 130.647 21.6749C130.047 20.7197 129.276 20.915 128.126 20.8259C128.118 18.2528 128.317 15.6832 128.722 13.1419C128.948 11.7367 129.259 10.2848 130.132 9.15559C131.857 6.9353 135.025 5.59804 137.666 5.52587C140.911 5.44096 144.238 6.79945 147.066 8.4721C148.343 9.22351 150.864 10.9471 151.124 12.5518C151.418 14.5004 147.956 15.9778 146.508 16.466Z" fill="#2F79CD" stroke="#2F79CD" stroke-width="2.23595" stroke-linecap="round" stroke-linejoin="round"/>
<path d="M128.441 21.9636C127.874 22.1802 127.384 22.5571 127.029 23.0481C126.674 23.5391 126.471 24.1227 126.445 24.7272C126.419 25.3316 126.57 25.9305 126.881 26.4502C127.192 26.9699 127.648 27.3878 128.194 27.6523C128.584 27.8032 128.965 27.9761 129.336 28.1702C130.528 28.9259 130.613 30.5943 130.575 31.991C130.447 36.7825 130.46 41.5797 130.613 46.3825" stroke="#2F79CD" stroke-width="2.23595" stroke-linecap="round" stroke-linejoin="round"/>
<path d="M149.574 15.808C149.574 18.3934 150 21.3863 150.14 23.9717C150.281 26.557 151.014 29.2188 150 31.6132C148.986 34.0075 146.107 36.0665 143.56 36.5759C142.142 36.8646 140.673 36.6566 139.238 36.4485L135.788 35.9476" stroke="#2F79CD" stroke-width="2.23595" stroke-linecap="round" stroke-linejoin="round"/>
<path d="M142.79 37.4377C142.853 40.3033 144.008 43.1604 144.544 45.9793" stroke="#2F79CD" stroke-width="2.23595" stroke-linecap="round" stroke-linejoin="round"/>
<path d="M144.319 24.4852C145.013 25.3767 145.916 25.2706 146.201 26.3022C146.229 26.4022 146.229 26.5078 146.201 26.6079C146.107 26.9178 144.212 27.6182 143.603 27.4569" stroke="#2F79CD" stroke-width="1.34157" stroke-linecap="round" stroke-linejoin="round"/>
<path d="M140.485 29.3928C140.792 29.6942 140.979 30.0933 141.312 30.3777C142.304 31.2268 144.105 31.1971 145.243 30.6876" stroke="#2F79CD" stroke-width="1.34157" stroke-linecap="round" stroke-linejoin="round"/>
<path d="M141.491 21.917V23.5769" stroke="#2F79CD" stroke-width="2.23595" stroke-linecap="round" stroke-linejoin="round"/>
<path d="M147.317 21.917V23.2373" stroke="#2F79CD" stroke-width="2.23595" stroke-linecap="round" stroke-linejoin="round"/>
<path d="M79.5826 246.539C79.5826 245.953 79.1059 245.478 78.5179 245.478C77.9298 245.478 77.4531 245.953 77.4531 246.539V254.181C77.4531 254.767 77.9298 255.242 78.5179 255.242C79.1059 255.242 79.5826 254.767 79.5826 254.181V246.539Z" stroke="#2F79CD" stroke-width="2.23595" stroke-linecap="round" stroke-linejoin="round"/>
<path d="M85.0873 246.512C85.0873 246.161 84.8012 245.876 84.4484 245.876C84.0956 245.876 83.8096 246.161 83.8096 246.512V248.635C83.8096 248.987 84.0956 249.272 84.4484 249.272C84.8012 249.272 85.0873 248.987 85.0873 248.635V246.512Z" stroke="#2F79CD" stroke-width="2.23595" stroke-linecap="round" stroke-linejoin="round"/>
<path d="M171.428 99.5676L171.428 145.135" stroke="#2F79CD" stroke-width="2.23595" stroke-linecap="round" stroke-linejoin="round"/>
<path d="M282.308 243.78L281.031 267.553" stroke="#2F79CD" stroke-width="2.23595" stroke-linecap="round" stroke-linejoin="round"/>
<path d="M298.492 256.091L292.53 266.704" stroke="#2F79CD" stroke-width="2.23595" stroke-linecap="round" stroke-linejoin="round"/>
<path d="M166.039 263.732H133.671" stroke="#2F79CD" stroke-width="2.23595" stroke-linecap="round" stroke-linejoin="round"/>
<path d="M116.209 263.732H105.136" stroke="#2F79CD" stroke-width="2.23595" stroke-linecap="round" stroke-linejoin="round"/>
<path d="M50.6218 48.0721V68.874" stroke="#2F79CD" stroke-width="1.78876" stroke-linecap="round" stroke-linejoin="round"/>
<path d="M157.521 113.025H112.376" stroke="#2F79CD" stroke-width="1.78876" stroke-linecap="round" stroke-linejoin="round"/>
<path d="M156.243 121.516H112.802" stroke="#2F79CD" stroke-width="1.78876" stroke-linecap="round" stroke-linejoin="round"/>
<path d="M28.0153 30.989C33.2154 31.0739 38.488 31.7447 43.2623 33.8079C48.0366 35.8711 52.2955 39.4329 54.4207 44.1664C44.3866 40.7701 33.8245 34.7036 23.2495 34.1305" stroke="#2F79CD" stroke-width="1.78876" stroke-linecap="round" stroke-linejoin="round"/>
<path d="M52.73 44.9434C41.8277 43.925 31.0705 41.717 20.6516 38.359" stroke="#2F79CD" stroke-width="1.78876" stroke-linecap="round" stroke-linejoin="round"/>
<path d="M284.651 18.5673L177.325 16.4447" stroke="#2F79CD" stroke-width="1.78876" stroke-linecap="round" stroke-linejoin="round"/>
<path d="M286.78 27.4825L284.651 172.247" stroke="#2F79CD" stroke-width="1.78876" stroke-linecap="round" stroke-linejoin="round"/>
<path d="M176.799 16.769V54.9766" stroke="#2F79CD" stroke-width="1.78876" stroke-linecap="round" stroke-linejoin="round"/>
<path d="M122.172 186.893L106.414 241.657" stroke="#2F79CD" stroke-width="1.78876" stroke-linecap="round" stroke-linejoin="round"/>
<path d="M156.031 155.266L150.068 131.067" stroke="#2F79CD" stroke-width="1.78876" stroke-linecap="round" stroke-linejoin="round"/>
<path d="M105.801 101.796C104.33 100.208 102.418 99.0924 100.308 98.5925C98.1988 98.0925 95.9876 98.2307 93.9572 98.9893C91.9267 99.7479 90.1692 101.093 88.9091 102.852C87.649 104.611 86.9434 106.704 86.8826 108.865" stroke="#2F79CD" stroke-width="1.78876" stroke-linecap="round" stroke-linejoin="round"/>
<path d="M128.773 52.1051L121.959 53.8032" stroke="#2F79CD" stroke-width="1.78876" stroke-linecap="round" stroke-linejoin="round"/>
<path d="M174.808 76.9315C173.594 77.942 172.596 79.185 171.872 80.5869C171.148 81.9889 170.714 83.5213 170.595 85.0935C170.475 86.6657 170.674 88.2458 171.178 89.7402C171.683 91.2346 172.483 92.613 173.531 93.7938" stroke="#2F79CD" stroke-width="1.78876" stroke-linecap="round" stroke-linejoin="round"/>
<path d="M134.736 114.086L135.162 121.728" stroke="#2F79CD" stroke-width="1.78876" stroke-linecap="round" stroke-linejoin="round"/>
<path d="M129.199 114.086V121.728" stroke="#2F79CD" stroke-width="1.78876" stroke-linecap="round" stroke-linejoin="round"/>
<path d="M157.308 231.256L112.164 231.681" stroke="#2F79CD" stroke-width="1.78876" stroke-linecap="round" stroke-linejoin="round"/>
<path d="M5.68995 45.4485C5.68995 46.2006 5.39021 46.9219 4.85668 47.4537C4.32314 47.9855 3.59951 48.2843 2.84497 48.2843C2.09044 48.2843 1.36681 47.9855 0.833274 47.4537C0.299738 46.9219 0 46.2006 0 45.4485C0 43.882 1.43952 38.9447 3.01107 38.9447C4.58262 38.9447 5.68995 43.882 5.68995 45.4485Z" fill="#2F79CD"/>
<path d="M291.14 178.302L293.269 12.3113" stroke="#2F79CD" stroke-width="2.23595" stroke-linecap="round" stroke-linejoin="round"/>
</g>
<defs>
<clipPath id="clip0">
<rect width="320" height="270" fill="white"/>
</clipPath>
</defs>
</svg>
