<svg width="16" height="16" viewBox="0 0 16 16" fill="none" xmlns="http://www.w3.org/2000/svg">
<path d="M16 3.71094V15C16 15.1406 15.974 15.2708 15.9219 15.3906C15.8698 15.5104 15.7969 15.6172 15.7031 15.7109C15.6146 15.7995 15.5104 15.8698 15.3906 15.9219C15.2708 15.974 15.1406 16 15 16H5C4.85938 16 4.72917 15.974 4.60938 15.9219C4.48958 15.8698 4.38281 15.7995 4.28906 15.7109C4.20052 15.6172 4.13021 15.5104 4.07812 15.3906C4.02604 15.2708 4 15.1406 4 15V13H0.898438C0.773438 13 0.65625 12.9766 0.546875 12.9297C0.442708 12.8828 0.348958 12.8177 0.265625 12.7344C0.182292 12.651 0.117188 12.5573 0.0703125 12.4531C0.0234375 12.3438 0 12.2266 0 12.1016V4.89844C0 4.77344 0.0234375 4.65885 0.0703125 4.55469C0.117188 4.44531 0.182292 4.34896 0.265625 4.26562C0.348958 4.18229 0.442708 4.11719 0.546875 4.07031C0.65625 4.02344 0.773438 4 0.898438 4H4V1C4 0.859375 4.02604 0.729167 4.07812 0.609375C4.13021 0.489583 4.20052 0.385417 4.28906 0.296875C4.38281 0.203125 4.48958 0.130208 4.60938 0.078125C4.72917 0.0260417 4.85938 0 5 0H12.2891C12.4245 0 12.5521 0.0260417 12.6719 0.078125C12.7969 0.125 12.9062 0.195312 13 0.289062L15.7109 3C15.8047 3.09375 15.875 3.20312 15.9219 3.32812C15.974 3.44792 16 3.57552 16 3.71094ZM13 1.71094V3H14.2891L13 1.71094ZM2.03906 11.125H3.51562C3.52604 11.1042 3.55729 11.0443 3.60938 10.9453C3.66667 10.8464 3.73177 10.7292 3.80469 10.5938C3.8776 10.4583 3.95312 10.3151 4.03125 10.1641C4.11458 10.013 4.1901 9.875 4.25781 9.75C4.33073 9.61979 4.39062 9.51302 4.4375 9.42969C4.48958 9.34115 4.51562 9.29688 4.51562 9.29688C4.65625 9.60417 4.8125 9.91146 4.98438 10.2188C5.16146 10.526 5.33073 10.8281 5.49219 11.125H6.95312L5.32031 8.47656L6.92188 5.875H5.52344C5.36198 6.17188 5.20312 6.46875 5.04688 6.76562C4.89583 7.0625 4.73438 7.35417 4.5625 7.64062C4.41146 7.34375 4.26302 7.04948 4.11719 6.75781C3.97135 6.46615 3.82292 6.17188 3.67188 5.875H2.17969L3.73438 8.49219L2.03906 11.125ZM5 15H15V4H13C12.8594 4 12.7292 3.97396 12.6094 3.92188C12.4896 3.86979 12.3828 3.79948 12.2891 3.71094C12.2005 3.61719 12.1302 3.51042 12.0781 3.39062C12.026 3.27083 12 3.14062 12 3V1H5V4H8.10156C8.22656 4 8.34115 4.02344 8.44531 4.07031C8.55469 4.11719 8.65104 4.18229 8.73438 4.26562C8.81771 4.34896 8.88281 4.44531 8.92969 4.55469C8.97656 4.65885 9 4.77344 9 4.89844V12.1016C9 12.2266 8.97656 12.3438 8.92969 12.4531C8.88281 12.5573 8.81771 12.651 8.73438 12.7344C8.65104 12.8177 8.55469 12.8828 8.44531 12.9297C8.34115 12.9766 8.22656 13 8.10156 13H5V15ZM10 7V6H14V7H10ZM10 9V8H14V9H10ZM10 11V10H14V11H10Z" fill="#107C10"/>
</svg>
