
<svg width="330" height="320" viewBox="0 0 330 320" fill="none" xmlns="http://www.w3.org/2000/svg">
<g clip-path="url(#clip0)">
<path d="M280.6 319.043C292.567 300.206 298.907 278.335 298.873 256.01C298.873 191.025 246.27 138.347 181.376 138.347C116.482 138.347 63.8782 191.025 63.8782 256.01C63.8443 278.335 70.1843 300.206 82.151 319.043H280.6Z" fill="#F0F6FA"/>
<path d="M238.027 138.674C238.027 138.674 245.021 148.4 246.419 155.404C247.818 162.407 251.082 283.338 251.082 283.338L172.75 285.673C172.75 285.673 164.824 183.418 166.223 171.279C167.622 159.139 177.413 138.595 177.413 138.595L238.027 138.674Z" fill="white"/>
<path d="M172.75 286.826C172.456 286.827 172.173 286.717 171.957 286.518C171.741 286.318 171.608 286.045 171.584 285.752C171.258 281.55 163.658 183.246 165.057 171.134C166.456 158.943 175.949 138.917 176.35 138.081C176.445 137.883 176.595 137.715 176.781 137.598C176.967 137.48 177.183 137.418 177.403 137.418L238.017 137.497C238.198 137.497 238.377 137.539 238.539 137.62C238.701 137.701 238.841 137.819 238.95 137.964C239.239 138.366 246.107 147.975 247.538 155.147C248.937 162.151 252.089 278.337 252.201 283.277C252.205 283.431 252.179 283.583 252.125 283.727C252.07 283.87 251.988 284.001 251.882 284.112C251.777 284.224 251.651 284.313 251.511 284.376C251.371 284.439 251.221 284.473 251.068 284.477L172.736 286.812L172.75 286.826ZM178.154 139.748C176.48 143.343 168.6 160.801 167.388 171.4C166.096 182.606 172.983 273.327 173.836 284.459L249.893 282.189C249.552 269.737 246.578 162.08 245.286 155.618C244.125 149.81 238.828 141.854 237.43 139.827L178.154 139.748Z" fill="#2F79CD"/>
<path d="M198.395 28.389C191.867 22.786 193.182 12.2478 198.138 7.06036C203.733 1.2146 213.058 0.164047 220.602 1.92431C230.627 4.25888 236.838 13.3217 240.297 18.4297C240.601 18.9745 241.063 19.4141 241.621 19.6904C242.326 19.9565 243.109 19.7137 243.832 19.5083C250.438 17.6406 260.538 16.7348 262.482 29.0987C263.298 34.2347 261.638 47.5838 259.088 52.0942C267.765 48.9285 275.327 59.7142 280.358 65.8261C286.737 73.5816 293.19 78.825 295.698 88.7049C298.099 98.1692 291.427 100.247 287.38 107.708C288.732 110.244 290.103 112.844 290.644 115.646C292.173 123.723 284.415 127.842 277.523 128.467C268.352 129.298 261.988 124.484 256.761 117.303C252.756 111.803 249.809 105.673 246.461 99.7801C245.146 97.4735 243.701 95.1109 241.496 93.6448C239.808 92.5149 237.798 91.9873 235.947 91.1422C233.809 90.1522 231.89 88.7443 230.303 87.0011C228.716 85.2579 227.493 83.2147 226.706 80.9915C225.209 76.6819 221.983 60.5967 221.931 56.9221C221.791 47.3317 221.833 38.7918 218.43 29.5983C216.616 24.6894 214.163 20.0422 211.133 15.7776C210.233 14.5123 209.24 13.2423 207.869 12.5092C206.498 11.7762 204.684 11.6501 203.481 12.6353" fill="white"/>
<path d="M275.471 129.737C267.918 129.737 261.633 125.96 255.833 117.994C252.891 113.956 250.489 109.534 248.163 105.262C247.286 103.651 246.382 101.993 245.458 100.364C244.171 98.0946 242.847 95.9515 240.861 94.6208C239.795 93.9707 238.661 93.4384 237.481 93.0333C236.823 92.7765 236.142 92.515 235.48 92.2115C233.202 91.1496 231.158 89.6453 229.465 87.7858C227.772 85.9262 226.465 83.7486 225.619 81.3791C224.043 76.8547 220.831 60.6388 220.779 56.9455V55.6475C220.658 46.496 220.551 38.5958 217.366 30.0092C215.592 25.1991 213.189 20.6458 210.218 16.4687C209.444 15.3855 208.526 14.1809 207.346 13.5319C206.456 13.0416 205.113 12.8315 204.255 13.5319C204.137 13.6359 204 13.715 203.851 13.7646C203.702 13.8142 203.545 13.8332 203.389 13.8204C203.232 13.8077 203.08 13.7634 202.941 13.6904C202.802 13.6173 202.68 13.5169 202.58 13.3953C202.481 13.2736 202.408 13.1331 202.364 12.9822C202.32 12.8313 202.307 12.6732 202.326 12.5172C202.345 12.3612 202.395 12.2107 202.473 12.0745C202.551 11.9384 202.656 11.8195 202.782 11.7249C204.483 10.3242 206.866 10.595 208.47 11.4774C210.074 12.3599 211.193 13.812 212.116 15.11C215.205 19.4581 217.706 24.1963 219.553 29.2015C222.873 38.1662 222.989 46.6454 223.111 55.6195V56.9175C223.162 60.382 226.332 76.3318 227.82 80.618C228.56 82.6902 229.703 84.5946 231.184 86.2209C232.665 87.8471 234.453 89.1628 236.446 90.0917C237.047 90.3672 237.667 90.6053 238.311 90.8574C239.654 91.3228 240.941 91.9367 242.148 92.6877C244.554 94.2939 246.102 96.7919 247.477 99.2245C248.41 100.863 249.342 102.54 250.2 104.164C252.49 108.367 254.863 112.723 257.707 116.636C263.521 124.625 269.783 128.024 277.42 127.328C281.015 127.006 285.715 125.512 288.144 122.309C288.824 121.401 289.3 120.357 289.537 119.248C289.775 118.138 289.769 116.991 289.52 115.884C289.012 113.213 287.655 110.701 286.382 108.273C286.29 108.103 286.242 107.913 286.242 107.72C286.242 107.527 286.29 107.337 286.382 107.167C287.636 104.974 289.122 102.923 290.816 101.05C293.87 97.4596 296.08 94.8636 294.593 89.0085C292.728 81.5892 288.531 76.9061 283.724 71.4852C282.325 69.9257 280.927 68.3195 279.481 66.5779C279.015 66.0223 278.549 65.4247 278.041 64.8083C273.219 58.8132 266.617 50.6095 259.511 53.2009C259.288 53.278 259.047 53.2856 258.82 53.2224C258.592 53.1593 258.389 53.0285 258.237 52.8473C258.086 52.6661 257.993 52.4431 257.97 52.2077C257.948 51.9724 257.998 51.7358 258.113 51.5293C260.519 47.2711 262.155 34.2535 261.376 29.2902C260.756 25.3915 259.232 22.6367 256.84 21.1099C253.916 19.2422 249.655 19.0835 244.176 20.643H244.092C243.281 20.8717 242.269 21.1612 241.229 20.7644C240.447 20.4098 239.794 19.8188 239.364 19.0741C236.101 14.2556 230.039 5.29083 220.374 3.04498C214.014 1.58354 204.628 1.96174 198.982 7.8682C196.408 10.5576 194.934 14.7692 195.135 18.85C195.173 20.4917 195.549 22.1079 196.241 23.5968C196.933 25.0857 197.925 26.4153 199.154 27.5019C199.27 27.6019 199.366 27.7238 199.435 27.8607C199.505 27.9976 199.546 28.1469 199.558 28.2999C199.57 28.453 199.551 28.6068 199.503 28.7527C199.456 28.8986 199.38 29.0336 199.28 29.1501C199.18 29.2666 199.058 29.3623 198.922 29.4317C198.785 29.5011 198.636 29.5428 198.483 29.5545C198.33 29.5662 198.177 29.5477 198.031 29.4999C197.885 29.4522 197.75 29.3761 197.634 29.2762C196.166 27.9801 194.98 26.3958 194.149 24.6216C193.318 22.8473 192.86 20.9209 192.804 18.9621C192.575 14.2649 194.296 9.39501 197.298 6.25268C203.621 -0.363492 213.949 -0.830406 220.868 0.775777C231.41 3.22707 237.816 12.6867 241.262 17.7668C241.443 18.1041 241.71 18.3876 242.036 18.5885C242.511 18.6491 242.993 18.5848 243.435 18.4018H243.519C249.669 16.6508 254.564 16.903 258.075 19.1488C261.055 21.0492 262.929 24.3409 263.67 28.9307C264.416 33.5998 263.204 44.5863 261.12 50.4414C268.781 49.5636 275.369 57.7486 279.873 63.3469C280.367 63.9585 280.838 64.5469 281.272 65.0978C282.671 66.802 284.069 68.3942 285.468 69.935C290.28 75.3512 294.831 80.4686 296.854 88.4342C298.635 95.4659 295.698 98.9164 292.593 102.568C291.148 104.17 289.856 105.904 288.732 107.746C290.014 110.15 291.273 112.653 291.805 115.454C292.12 116.881 292.122 118.358 291.811 119.786C291.499 121.213 290.881 122.555 290 123.719C287.557 126.959 282.936 129.177 277.64 129.658C276.908 129.7 276.185 129.737 275.471 129.737Z" fill="#2F79CD"/>
<path d="M291.968 62.1003C291.796 61.3065 291.161 60.6995 290.546 60.1766C285.825 56.093 280.392 52.9163 274.521 50.8056C273.695 50.5115 272.749 50.2453 271.975 50.6562C271.322 51.0017 270.991 51.7348 270.702 52.4165C266.723 61.8575 262.744 71.2954 258.766 80.7301C259.111 79.9224 257.185 76.0983 256.835 75.0945C255.022 69.8464 253.362 63.5104 248.471 60.242C242.493 56.2405 234.334 58.7245 228.193 62.4738C222.052 66.2231 216.308 71.2565 209.198 72.3724C204.666 73.0821 202.204 70.1966 199.444 67.1943C195.55 62.9921 189.326 56.3946 183.218 55.9884C177.926 55.6289 171.449 61.9228 168.554 65.7609C168.554 65.7609 166.866 62.6512 166.773 62.3944C165.658 59.2147 164.227 56.2639 162.959 53.1542C162.719 52.5293 162.406 51.9352 162.026 51.3846L139.618 63.8512C143.744 84.1806 148.78 104.361 155.937 123.822C157.681 128.547 160.324 133.902 165.262 134.771C169.822 135.569 173.925 132.109 177.268 128.902L176.48 139.515C179.614 139.771 229.112 138.352 249.832 139.048C249.926 135.486 250.521 131.956 251.599 128.561C255.376 132.002 261.568 131.423 265.788 128.561C270.236 125.535 272.81 120.689 275.187 116.01C277.848 110.754 280.22 105.356 282.293 99.8409C286.709 88.1037 289.934 75.9509 291.917 63.5664C292.027 63.0855 292.045 62.5878 291.968 62.1003V62.1003Z" fill="#2F79CD"/>
<path d="M178.271 140.714C177.31 140.714 176.685 140.714 176.406 140.677C176.251 140.668 176.1 140.629 175.961 140.56C175.821 140.492 175.697 140.396 175.596 140.279C175.494 140.162 175.417 140.026 175.368 139.879C175.32 139.731 175.302 139.576 175.315 139.421L175.911 131.726C172.648 134.528 169.076 136.596 165.094 135.901C159.462 134.939 156.664 129.135 154.864 124.2C148.519 106.985 143.315 87.8739 138.48 64.0659C138.43 63.8222 138.459 63.5689 138.563 63.343C138.667 63.117 138.841 62.9303 139.058 62.8099L161.467 50.3433C161.715 50.2059 162.006 50.1643 162.283 50.2262C162.56 50.2881 162.806 50.4493 162.973 50.6795C163.405 51.3051 163.761 51.9808 164.031 52.6919C164.497 53.7985 164.964 54.9051 165.43 55.9603C166.264 57.8887 167.132 59.8777 167.859 61.9461C167.948 62.1469 168.349 62.9126 168.736 63.6364C171.999 59.817 177.996 54.4242 183.292 54.7884C189.997 55.2553 196.697 62.4878 200.292 66.3772L200.623 66.7367C203.225 69.5382 205.286 71.7793 209.016 71.1957C214.145 70.3973 218.523 67.4604 223.143 64.3648C224.589 63.3936 226.081 62.3944 227.582 61.4792C239.304 54.3214 246.545 57.5478 249.114 59.2707C253.805 62.4084 255.688 68.03 257.348 72.9887C257.544 73.5739 257.74 74.1482 257.936 74.7116C258.01 74.9357 258.22 75.4166 258.444 75.9209C258.668 76.4251 258.826 76.808 258.99 77.1955L269.625 51.9822C269.923 51.2725 270.376 50.2033 271.425 49.6476C272.73 48.9519 274.222 49.4795 274.908 49.7317C280.917 51.8793 286.477 55.123 291.306 59.2987C292.047 59.9384 292.859 60.6995 293.106 61.8621C293.215 62.4905 293.202 63.1341 293.068 63.7578C291.072 76.2187 287.828 88.4466 283.384 100.256C281.295 105.811 278.906 111.248 276.227 116.542C274.036 120.857 271.308 126.221 266.436 129.532C262.57 132.161 256.588 133.207 252.233 130.517C251.482 133.315 251.064 136.193 250.988 139.09C250.985 139.244 250.951 139.396 250.888 139.537C250.825 139.678 250.735 139.805 250.622 139.91C250.51 140.016 250.378 140.098 250.233 140.152C250.089 140.206 249.935 140.23 249.781 140.224C236.371 139.757 210.694 140.201 193.704 140.495C185.955 140.63 180.877 140.714 178.271 140.714ZM177.739 138.38C180.29 138.38 186.351 138.287 193.671 138.165C210.209 137.88 234.968 137.46 248.69 137.862C248.872 134.587 249.469 131.349 250.466 128.225C250.526 128.039 250.631 127.87 250.772 127.736C250.913 127.601 251.086 127.504 251.274 127.453C251.463 127.402 251.661 127.4 251.85 127.446C252.04 127.492 252.215 127.584 252.359 127.716C255.856 130.9 261.54 130.05 265.107 127.604C269.149 124.853 271.583 120.492 274.129 115.492C276.773 110.276 279.136 104.922 281.207 99.4533C285.593 87.7896 288.797 75.7136 290.77 63.4076C290.846 63.0724 290.866 62.7269 290.83 62.385V62.385C290.612 61.8618 290.248 61.4127 289.781 61.0917C285.174 57.0961 279.864 53.9929 274.124 51.9402C273.765 51.8094 272.921 51.5059 272.525 51.7161C272.208 51.8888 271.947 52.5005 271.779 52.9067L259.843 81.2203C259.729 81.4947 259.515 81.7154 259.245 81.8374C258.975 81.9595 258.668 81.9738 258.388 81.8774C258.107 81.781 257.874 81.5811 257.735 81.3185C257.597 81.0559 257.563 80.7503 257.642 80.4639C257.6 79.8336 256.709 77.7792 256.313 76.892C256.052 76.2944 255.847 75.8228 255.735 75.4913C255.539 74.9217 255.343 74.3334 255.143 73.7451C253.525 68.9125 251.856 63.9399 247.827 61.2224C241.225 56.8101 232.324 61.3345 228.799 63.487C227.344 64.3741 225.871 65.3546 224.449 66.3165C219.814 69.4261 215.026 72.6385 209.379 73.5163C204.409 74.2913 201.616 71.2611 198.917 68.3335L198.59 67.9787C195.21 64.3227 188.92 57.5245 183.143 57.1323C178.508 56.8288 172.419 62.5298 169.486 66.4705C169.36 66.6417 169.19 66.7755 168.993 66.8577C168.797 66.9399 168.582 66.9674 168.372 66.9374C167.775 66.8394 167.775 66.8394 166.661 64.7476C166.298 64.1178 165.968 63.4695 165.672 62.8053C164.973 60.8069 164.12 58.8458 163.294 56.9502C162.828 55.8669 162.339 54.7463 161.896 53.6164C161.798 53.3876 161.709 53.1775 161.616 52.9861L140.942 64.4348C145.698 87.7338 150.822 106.49 157.051 123.397C158.65 127.734 161.056 132.819 165.5 133.594C169.36 134.276 173.072 131.325 176.499 128.033C176.67 127.871 176.886 127.764 177.119 127.727C177.352 127.689 177.591 127.723 177.804 127.824C178.017 127.925 178.195 128.088 178.314 128.292C178.433 128.496 178.488 128.731 178.471 128.967L177.739 138.38Z" fill="#2F79CD"/>
<path d="M173.64 135.471C173.504 135.472 173.37 135.433 173.255 135.359C173.141 135.284 173.051 135.177 172.996 135.052C172.942 134.926 172.926 134.787 172.95 134.652C172.974 134.518 173.038 134.393 173.132 134.294C175.03 132.273 178.196 125.544 180.988 119.61C183.469 114.339 185.814 109.338 187.33 107.414C187.386 107.342 187.457 107.281 187.537 107.235C187.617 107.19 187.705 107.161 187.796 107.149C187.888 107.138 187.98 107.145 188.069 107.17C188.158 107.194 188.241 107.236 188.313 107.293C188.386 107.349 188.447 107.42 188.492 107.5C188.537 107.58 188.566 107.669 188.578 107.76C188.589 107.852 188.582 107.945 188.558 108.033C188.533 108.122 188.491 108.205 188.435 108.278C187.013 110.099 184.705 115.006 182.252 120.208C179.277 126.534 176.2 133.071 174.148 135.252C174.084 135.322 174.005 135.377 173.917 135.415C173.83 135.453 173.735 135.472 173.64 135.471V135.471Z" fill="white"/>
<path d="M254.112 93.5234C254.067 93.528 254.022 93.528 253.977 93.5234C253.796 93.4872 253.636 93.3813 253.533 93.2285C253.429 93.0757 253.389 92.8882 253.422 92.7063C254.784 85.5205 256.192 78.0966 259.18 71.2283C259.255 71.058 259.393 70.9243 259.566 70.8564C259.739 70.7885 259.931 70.7921 260.101 70.8664C260.271 70.9407 260.405 71.0796 260.473 71.2526C260.54 71.4255 260.537 71.6183 260.463 71.7886C257.539 78.5122 256.145 85.8614 254.798 92.9631C254.764 93.1209 254.678 93.2626 254.554 93.3646C254.429 93.4665 254.273 93.5226 254.112 93.5234V93.5234Z" fill="white"/>
<path fill-rule="evenodd" clip-rule="evenodd" d="M209.463 180.136C210.107 180.136 210.629 180.659 210.629 181.303V224.493C210.629 225.137 210.107 225.66 209.463 225.66C208.82 225.66 208.298 225.137 208.298 224.493V181.303C208.298 180.659 208.82 180.136 209.463 180.136Z" fill="#2F79CD"/>
<path d="M191.806 142.876C191.744 142.881 191.682 142.881 191.62 142.876C191.468 142.852 191.323 142.798 191.193 142.717C191.063 142.637 190.949 142.531 190.86 142.407C190.77 142.282 190.706 142.141 190.671 141.992C190.635 141.843 190.63 141.688 190.655 141.536C190.748 140.961 190.812 140.381 190.846 139.799C190.855 139.646 190.894 139.496 190.961 139.358C191.028 139.22 191.122 139.096 191.237 138.994C191.351 138.893 191.485 138.814 191.63 138.764C191.775 138.714 191.928 138.693 192.081 138.702C192.234 138.711 192.384 138.751 192.522 138.818C192.66 138.885 192.783 138.979 192.885 139.093C192.987 139.208 193.065 139.342 193.115 139.487C193.165 139.632 193.186 139.786 193.177 139.939C193.14 140.593 193.065 141.256 192.963 141.91C192.915 142.182 192.773 142.428 192.561 142.605C192.35 142.782 192.082 142.878 191.806 142.876Z" fill="#2F79CD"/>
<path d="M176.158 158.751C176.005 158.765 175.851 158.747 175.705 158.701C175.558 158.655 175.422 158.58 175.305 158.481C175.187 158.381 175.09 158.26 175.02 158.124C174.949 157.987 174.906 157.838 174.892 157.685C174.879 157.531 174.896 157.377 174.943 157.23C174.989 157.084 175.064 156.947 175.163 156.83C175.262 156.712 175.383 156.615 175.519 156.544C175.656 156.473 175.805 156.43 175.958 156.417C177.182 156.2 178.382 155.861 179.539 155.404C179.682 155.341 179.837 155.309 179.993 155.308C180.15 155.306 180.305 155.337 180.449 155.397C180.593 155.457 180.724 155.545 180.834 155.657C180.943 155.769 181.029 155.902 181.087 156.047C181.144 156.193 181.171 156.349 181.167 156.505C181.163 156.662 181.128 156.816 181.063 156.959C180.998 157.101 180.905 157.229 180.79 157.335C180.675 157.441 180.539 157.522 180.392 157.575C179.089 158.09 177.738 158.474 176.359 158.719C176.293 158.734 176.226 158.745 176.158 158.751V158.751ZM183.479 155.852C183.227 155.853 182.983 155.772 182.781 155.622C182.579 155.473 182.431 155.262 182.358 155.021C182.286 154.78 182.293 154.522 182.379 154.286C182.465 154.049 182.625 153.847 182.835 153.709C183.874 153.03 184.834 152.238 185.698 151.346C185.805 151.234 185.932 151.145 186.074 151.082C186.215 151.02 186.368 150.987 186.522 150.984C186.677 150.982 186.83 151.01 186.973 151.067C187.117 151.124 187.248 151.21 187.358 151.318C187.468 151.426 187.556 151.555 187.616 151.698C187.676 151.84 187.707 151.993 187.708 152.148C187.708 152.303 187.678 152.456 187.618 152.599C187.559 152.742 187.472 152.871 187.363 152.98C186.872 153.486 186.354 153.963 185.81 154.409C185.269 154.856 184.704 155.274 184.117 155.66C183.928 155.785 183.705 155.85 183.479 155.847V155.852ZM188.99 150.249C188.78 150.25 188.575 150.195 188.394 150.089C188.213 149.983 188.065 149.83 187.964 149.646C187.863 149.462 187.814 149.255 187.821 149.045C187.829 148.836 187.892 148.632 188.006 148.456C188.673 147.404 189.235 146.289 189.685 145.127C189.739 144.984 189.822 144.853 189.927 144.741C190.032 144.63 190.159 144.541 190.298 144.478C190.438 144.416 190.589 144.382 190.742 144.378C190.895 144.374 191.048 144.4 191.191 144.455C191.334 144.509 191.464 144.592 191.575 144.697C191.687 144.803 191.776 144.929 191.838 145.069C191.901 145.209 191.935 145.36 191.939 145.514C191.943 145.667 191.917 145.819 191.862 145.963C191.357 147.267 190.724 148.518 189.974 149.698C189.866 149.86 189.719 149.992 189.548 150.084C189.376 150.175 189.184 150.222 188.99 150.221V150.249Z" fill="#2F79CD"/>
<path d="M172.2 159.036H172.163C171.5 159.013 170.838 158.957 170.186 158.873C170.032 158.852 169.885 158.802 169.751 158.724C169.618 158.646 169.501 158.543 169.407 158.42C169.218 158.172 169.135 157.859 169.176 157.549C169.218 157.239 169.38 156.959 169.628 156.769C169.876 156.58 170.189 156.497 170.498 156.538C171.071 156.613 171.654 156.664 172.237 156.683C172.546 156.688 172.841 156.816 173.056 157.038C173.271 157.26 173.389 157.559 173.384 157.869C173.379 158.178 173.252 158.473 173.03 158.689C172.807 158.904 172.509 159.022 172.2 159.017V159.036Z" fill="#2F79CD"/>
<path d="M226.468 142.521C226.167 142.521 225.879 142.404 225.662 142.197C225.445 141.989 225.316 141.706 225.302 141.406C225.274 140.761 225.26 140.126 225.251 139.505C225.247 139.196 225.365 138.898 225.58 138.676C225.795 138.453 226.089 138.325 226.398 138.319V138.319C226.703 138.32 226.996 138.441 227.214 138.656C227.432 138.87 227.557 139.162 227.563 139.468C227.563 140.07 227.563 140.682 227.615 141.307C227.626 141.617 227.515 141.918 227.305 142.145C227.095 142.373 226.804 142.508 226.496 142.521H226.468Z" fill="#2F79CD"/>
<path d="M239.658 157.696H239.57C238.237 157.597 236.917 157.367 235.63 157.01C235.332 156.927 235.079 156.729 234.927 156.459C234.775 156.189 234.736 155.87 234.818 155.572C234.901 155.273 235.099 155.02 235.368 154.868C235.638 154.715 235.957 154.676 236.255 154.759C237.396 155.077 238.566 155.28 239.747 155.366C240.056 155.378 240.348 155.512 240.558 155.739C240.768 155.967 240.88 156.268 240.868 156.578C240.856 156.887 240.722 157.18 240.495 157.39C240.269 157.601 239.967 157.713 239.658 157.701V157.696ZM232.45 155.628C232.249 155.627 232.051 155.574 231.876 155.474C230.736 154.84 229.713 154.016 228.85 153.036L228.655 152.803C228.473 152.562 228.392 152.26 228.428 151.96C228.464 151.661 228.615 151.387 228.848 151.196C229.081 151.005 229.38 150.912 229.68 150.937C229.98 150.961 230.259 151.101 230.459 151.327L230.613 151.514C231.303 152.289 232.12 152.941 233.028 153.443C233.253 153.569 233.43 153.767 233.531 154.006C233.632 154.244 233.65 154.509 233.584 154.759C233.518 155.01 233.371 155.231 233.165 155.388C232.96 155.545 232.708 155.629 232.45 155.628V155.628ZM227.722 149.95C227.485 149.949 227.254 149.877 227.059 149.742C226.864 149.607 226.715 149.415 226.631 149.194C226.171 147.932 225.845 146.625 225.656 145.295C225.622 144.995 225.706 144.693 225.889 144.453C226.072 144.213 226.341 144.054 226.64 144.008C226.938 143.963 227.242 144.035 227.488 144.21C227.735 144.384 227.904 144.648 227.96 144.945C228.123 146.114 228.411 147.263 228.818 148.372C228.925 148.662 228.913 148.983 228.785 149.265C228.656 149.547 228.422 149.766 228.132 149.875C228.001 149.925 227.862 149.951 227.722 149.95Z" fill="#2F79CD"/>
<path d="M243.444 157.598C243.291 157.608 243.137 157.589 242.992 157.54C242.847 157.491 242.712 157.413 242.597 157.312C242.481 157.211 242.386 157.088 242.318 156.951C242.25 156.813 242.21 156.663 242.199 156.51C242.189 156.357 242.209 156.203 242.258 156.057C242.307 155.912 242.384 155.777 242.485 155.661C242.585 155.546 242.708 155.451 242.846 155.383C242.983 155.314 243.133 155.274 243.286 155.263C243.848 155.187 244.404 155.072 244.95 154.918C245.248 154.833 245.566 154.87 245.837 155.021C246.107 155.171 246.306 155.423 246.391 155.721C246.476 156.019 246.439 156.338 246.288 156.609C246.138 156.879 245.886 157.079 245.589 157.164C244.937 157.347 244.273 157.484 243.603 157.575C243.551 157.587 243.498 157.595 243.444 157.598V157.598Z" fill="#2F79CD"/>
<path d="M218.971 146.518C218.667 146.517 218.376 146.398 218.159 146.187C217.941 145.975 217.815 145.687 217.805 145.384C217.768 144.212 217.744 143.516 217.744 143.516C217.733 143.206 217.845 142.905 218.056 142.678C218.267 142.451 218.559 142.318 218.868 142.307C219.177 142.296 219.478 142.408 219.705 142.619C219.931 142.83 220.064 143.122 220.076 143.432C220.076 143.432 220.099 144.128 220.136 145.3C220.141 145.453 220.115 145.606 220.06 145.749C220.005 145.892 219.923 146.023 219.818 146.135C219.713 146.246 219.587 146.336 219.447 146.398C219.307 146.461 219.156 146.495 219.003 146.5L218.971 146.518Z" fill="#2F79CD"/>
<path d="M213.832 180.001C213.581 180.001 213.336 179.92 213.134 179.769C212.932 179.618 212.784 179.406 212.713 179.164C212.642 178.922 212.65 178.664 212.738 178.428C212.825 178.191 212.987 177.99 213.198 177.853C214.162 177.238 215.087 176.565 215.968 175.836C216.204 175.636 216.51 175.538 216.818 175.564C217.126 175.59 217.412 175.737 217.612 175.973C217.811 176.21 217.909 176.516 217.883 176.825C217.857 177.134 217.71 177.419 217.474 177.619C216.524 178.412 215.524 179.144 214.481 179.809C214.289 179.938 214.063 180.005 213.832 180.001V180.001ZM218.924 175.135C218.745 175.134 218.568 175.092 218.407 175.012C218.246 174.932 218.106 174.816 217.998 174.673C217.889 174.53 217.815 174.363 217.781 174.187C217.746 174.011 217.753 173.829 217.8 173.655C217.993 172.569 218.086 171.467 218.08 170.363C218.086 170.21 218.121 170.059 218.185 169.92C218.249 169.78 218.339 169.655 218.451 169.55C218.563 169.446 218.695 169.365 218.838 169.311C218.982 169.257 219.135 169.233 219.288 169.238C219.441 169.244 219.591 169.279 219.731 169.343C219.87 169.407 219.995 169.498 220.1 169.61C220.204 169.722 220.285 169.854 220.339 169.998C220.392 170.141 220.417 170.294 220.411 170.448C220.318 173.039 220.164 173.87 220.052 174.276C219.985 174.524 219.838 174.742 219.634 174.897C219.43 175.053 219.18 175.136 218.924 175.135V175.135ZM219.316 167.992C219.163 167.99 219.011 167.959 218.87 167.899C218.729 167.839 218.602 167.752 218.494 167.643C218.387 167.534 218.302 167.404 218.245 167.262C218.187 167.12 218.158 166.968 218.159 166.815C218.159 166.143 218.159 165.442 218.159 164.723C218.159 164.256 218.159 163.747 218.159 163.248C218.159 162.939 218.281 162.642 218.499 162.422C218.716 162.203 219.012 162.078 219.32 162.076V162.076C219.473 162.075 219.625 162.105 219.766 162.163C219.908 162.221 220.036 162.307 220.144 162.415C220.253 162.523 220.339 162.651 220.397 162.792C220.456 162.934 220.486 163.085 220.486 163.238C220.486 163.743 220.486 164.238 220.486 164.723C220.486 165.452 220.486 166.157 220.486 166.834C220.484 167.142 220.359 167.438 220.14 167.655C219.92 167.872 219.624 167.993 219.316 167.992V167.992ZM219.288 160.834C218.981 160.833 218.688 160.711 218.47 160.496C218.252 160.28 218.127 159.987 218.122 159.68C218.122 158.485 218.089 157.285 218.066 156.104C218.064 155.951 218.091 155.798 218.148 155.656C218.204 155.513 218.288 155.383 218.394 155.273C218.501 155.163 218.628 155.075 218.768 155.014C218.909 154.953 219.06 154.92 219.213 154.918H219.236C219.541 154.918 219.834 155.038 220.051 155.252C220.268 155.466 220.393 155.757 220.397 156.062C220.421 157.243 220.439 158.453 220.453 159.648C220.456 159.801 220.429 159.954 220.373 160.097C220.317 160.24 220.233 160.37 220.127 160.48C220.02 160.59 219.893 160.678 219.752 160.739C219.611 160.8 219.46 160.832 219.306 160.834H219.288ZM219.143 153.671C218.839 153.671 218.547 153.552 218.329 153.339C218.111 153.127 217.985 152.837 217.978 152.532C217.945 151.253 217.917 150.048 217.889 148.955C217.881 148.646 217.996 148.346 218.209 148.121C218.422 147.897 218.715 147.766 219.024 147.758C219.333 147.75 219.633 147.865 219.857 148.078C220.082 148.291 220.212 148.585 220.22 148.895C220.253 149.987 220.281 151.197 220.314 152.476C220.32 152.786 220.203 153.086 219.989 153.31C219.775 153.534 219.481 153.664 219.171 153.671H219.143Z" fill="#2F79CD"/>
<path d="M209.118 182.704C208.901 182.702 208.689 182.643 208.503 182.531C208.335 182.426 208.196 182.279 208.1 182.105C208.004 181.931 207.953 181.736 207.953 181.537V179.669C208.058 179.4 208.221 179.157 208.429 178.956C208.638 178.756 208.887 178.604 209.161 178.51C209.434 178.416 209.724 178.383 210.012 178.413C210.299 178.443 210.577 178.535 210.825 178.683C211.073 178.831 211.286 179.031 211.449 179.27C211.613 179.509 211.722 179.78 211.77 180.066C211.818 180.351 211.803 180.643 211.727 180.922C211.651 181.201 211.515 181.46 211.328 181.682C210.335 182.232 209.668 182.569 209.64 182.583C209.477 182.661 209.299 182.703 209.118 182.704V182.704Z" fill="#2F79CD"/>
<path d="M209.118 177.022C208.809 177.022 208.513 176.899 208.294 176.68C208.075 176.461 207.953 176.164 207.953 175.854V172.044C207.953 171.735 208.075 171.438 208.294 171.219C208.513 171 208.809 170.877 209.118 170.877C209.427 170.877 209.724 171 209.942 171.219C210.161 171.438 210.284 171.735 210.284 172.044V175.854C210.284 176.164 210.161 176.461 209.942 176.68C209.724 176.899 209.427 177.022 209.118 177.022V177.022ZM209.118 169.397C208.809 169.397 208.513 169.274 208.294 169.055C208.075 168.836 207.953 168.539 207.953 168.23V164.415C207.953 164.105 208.075 163.808 208.294 163.59C208.513 163.371 208.809 163.248 209.118 163.248C209.427 163.248 209.724 163.371 209.942 163.59C210.161 163.808 210.284 164.105 210.284 164.415V168.23C210.284 168.539 210.161 168.836 209.942 169.055C209.724 169.274 209.427 169.397 209.118 169.397ZM209.118 161.772C208.811 161.772 208.517 161.651 208.299 161.435C208.081 161.219 207.956 160.926 207.953 160.619V156.79C207.953 156.481 208.075 156.184 208.294 155.965C208.513 155.746 208.809 155.623 209.118 155.623C209.427 155.623 209.724 155.746 209.942 155.965C210.161 156.184 210.284 156.481 210.284 156.79V160.619C210.28 160.926 210.156 161.219 209.938 161.435C209.719 161.651 209.425 161.772 209.118 161.772ZM209.118 154.143C208.809 154.143 208.513 154.02 208.294 153.801C208.075 153.582 207.953 153.285 207.953 152.976V149.166C207.953 148.856 208.075 148.559 208.294 148.34C208.513 148.121 208.809 147.998 209.118 147.998C209.427 147.998 209.724 148.121 209.942 148.34C210.161 148.559 210.284 148.856 210.284 149.166V152.976C210.284 153.285 210.161 153.582 209.942 153.801C209.724 154.02 209.427 154.143 209.118 154.143Z" fill="#2F79CD"/>
<path d="M209.118 146.518C208.809 146.518 208.513 146.395 208.294 146.176C208.075 145.957 207.953 145.66 207.953 145.351V143.483C207.953 143.174 208.075 142.877 208.294 142.658C208.513 142.439 208.809 142.316 209.118 142.316C209.427 142.316 209.724 142.439 209.942 142.658C210.161 142.877 210.284 143.174 210.284 143.483V145.351C210.284 145.66 210.161 145.957 209.942 146.176C209.724 146.395 209.427 146.518 209.118 146.518Z" fill="#2F79CD"/>
<path d="M202.978 319.977C202.825 319.977 202.674 319.947 202.534 319.888C202.393 319.83 202.265 319.744 202.157 319.636C201.937 319.416 201.813 319.117 201.812 318.805L201.892 285.654C201.891 285.353 202.008 285.063 202.217 284.846C202.425 284.629 202.71 284.502 203.011 284.491L227.256 283.558C227.542 283.548 227.821 283.644 228.042 283.826C228.262 284.008 228.409 284.265 228.454 284.547C228.496 284.809 229.545 290.384 239.71 292.952C242.246 293.587 244.685 294.096 247.039 294.591C255.218 296.295 261.68 297.644 262.939 302.673C264.338 308.365 264.179 317.983 264.174 318.389C264.167 318.693 264.043 318.982 263.827 319.195C263.611 319.408 263.321 319.53 263.018 319.533L202.987 320L202.978 319.977ZM204.223 286.784L204.153 317.633L261.853 317.166C261.853 314.449 261.75 307.482 260.678 303.201C259.778 299.587 253.949 298.373 246.569 296.832C244.191 296.337 241.729 295.823 239.146 295.174C229.895 292.84 227.191 288.035 226.435 285.906L204.223 286.784Z" fill="#2F79CD"/>
<path d="M261.806 313.44C261.699 313.44 250.947 313.44 240.223 313.262C217.931 312.903 217.502 312.263 217.008 311.521C216.182 310.284 212.294 307.37 210.517 307.37H203.011C202.701 307.37 202.405 307.247 202.186 307.028C201.968 306.809 201.845 306.512 201.845 306.203C201.845 305.893 201.968 305.596 202.186 305.377C202.405 305.158 202.701 305.035 203.011 305.035H210.517C213.236 305.035 217.437 308.304 218.752 309.957C221.768 310.792 246.559 311.105 261.806 311.105C262.115 311.105 262.412 311.228 262.63 311.447C262.849 311.666 262.972 311.963 262.972 312.273C262.972 312.582 262.849 312.879 262.63 313.098C262.412 313.317 262.115 313.44 261.806 313.44Z" fill="#2F79CD"/>
<path d="M231.918 302.561C231.501 302.563 231.085 302.517 230.678 302.425C229.998 302.274 229.362 301.966 228.822 301.525C228.282 301.084 227.853 300.522 227.568 299.885C227.283 299.344 227.153 298.734 227.193 298.123C227.233 297.512 227.442 296.925 227.797 296.426C228.214 295.94 228.738 295.557 229.326 295.305C232.596 293.708 236.014 292.436 239.532 291.509C240.754 288.922 243.071 286.135 246.205 285.715C246.907 285.621 247.622 285.702 248.286 285.952C248.949 286.201 249.541 286.61 250.009 287.143C250.338 287.548 250.551 288.034 250.628 288.55C250.704 289.066 250.64 289.593 250.443 290.076C249.711 292.037 247.282 292.387 246.116 292.55C244.472 292.787 242.844 293.098 241.234 293.484L241.085 293.876C240.152 296.416 239.22 298.812 236.786 300.782C235.397 301.883 233.69 302.507 231.918 302.561V302.561ZM238.446 294.236C235.661 295.064 232.947 296.118 230.333 297.387C230.067 297.498 229.824 297.656 229.615 297.854C229.54 298.017 229.505 298.194 229.513 298.373C229.52 298.552 229.569 298.726 229.657 298.882C229.793 299.199 230.002 299.479 230.268 299.698C230.534 299.918 230.849 300.07 231.186 300.142C232.534 300.46 234.278 299.783 235.308 298.961C236.954 297.64 237.723 296.094 238.455 294.217L238.446 294.236ZM246.741 288.012C246.663 288.007 246.585 288.007 246.508 288.012C244.997 288.217 243.645 289.352 242.633 290.771C243.674 290.56 244.722 290.379 245.776 290.23C246.442 290.132 248.004 289.907 248.251 289.244C248.306 289.14 248.329 289.021 248.315 288.904C248.302 288.786 248.254 288.676 248.177 288.586C247.991 288.396 247.769 288.245 247.524 288.144C247.279 288.042 247.016 287.99 246.75 287.993L246.741 288.012Z" fill="#2F79CD"/>
<path d="M143.842 62.7073C143.538 62.7074 143.247 62.5889 143.029 62.377C142.811 62.1651 142.685 61.8765 142.676 61.5727C142.676 60.9096 142.676 60.2653 142.676 59.6256C142.676 57.6739 142.676 55.8343 142.121 53.9059C142.005 53.5091 141.898 53.0702 141.786 52.6173C141.319 50.6375 140.751 48.415 139.175 47.8267C136.734 47.0259 134.228 46.437 131.687 46.0665C130.6 45.875 129.476 45.6789 128.371 45.4455C125.299 44.8245 120.865 43.6198 117.671 40.6222C116.053 39.0954 115.526 37.2745 116.3 35.8644C117.074 34.4543 118.631 34.1602 119.746 34.0294C122.818 33.6839 125.919 33.8707 128.917 34.0294C132.358 34.2395 135.608 34.4356 138.834 33.8987C139.669 33.7586 140.485 33.5718 141.352 33.3757C141.954 33.2403 142.555 33.1049 143.161 32.9835C145.193 32.5802 147.258 32.3645 149.33 32.3392C150.364 32.2817 151.401 32.413 152.388 32.7267C154.025 33.3104 155.373 34.6457 156.52 36.8122C157.806 39.2215 158.529 41.8456 159.238 44.3575L161.07 50.9317C161.111 51.0795 161.123 51.2339 161.104 51.3861C161.086 51.5384 161.037 51.6855 160.962 51.819C160.887 51.9525 160.786 52.0699 160.665 52.1644C160.545 52.2589 160.406 52.3287 160.259 52.3698C160.111 52.4109 159.957 52.4224 159.805 52.4038C159.653 52.3853 159.506 52.3369 159.373 52.2614C159.24 52.186 159.122 52.085 159.028 51.9642C158.934 51.8434 158.864 51.7051 158.823 51.5574L156.995 44.9879C156.324 42.5739 155.629 40.0806 154.463 37.8815C153.601 36.2566 152.664 35.2807 151.605 34.8979C150.878 34.6834 150.119 34.5996 149.362 34.6504C147.43 34.6799 145.504 34.8862 143.609 35.2667C143.026 35.3835 142.443 35.5189 141.86 35.6496C141.002 35.8457 140.112 36.0465 139.212 36.1959C135.724 36.7749 132.19 36.5648 128.772 36.3593C125.872 36.1819 122.874 35.9998 120.002 36.3266C119.07 36.434 118.51 36.6441 118.338 36.9616C118.086 37.4286 118.613 38.2877 119.27 38.904C122.035 41.5187 126.049 42.5833 128.824 43.1623C129.896 43.3817 131.001 43.5778 132.088 43.7692C134.763 44.1652 137.399 44.7901 139.967 45.6369C142.714 46.6314 143.488 49.7737 144.052 52.0663C144.154 52.4912 144.252 52.9021 144.359 53.2709C145.003 55.5121 145.008 57.6086 145.008 59.635C145.008 60.2513 145.008 60.877 145.008 61.5026C145.012 61.6559 144.986 61.8086 144.931 61.9519C144.877 62.0952 144.795 62.2263 144.689 62.3377C144.584 62.4492 144.458 62.5387 144.318 62.6013C144.178 62.664 144.028 62.6984 143.875 62.7026L143.842 62.7073Z" fill="#2F79CD"/>
<path fill-rule="evenodd" clip-rule="evenodd" d="M134.803 45.3828C134.959 44.7572 135.591 44.3764 136.216 44.5322C138.451 45.0898 142.459 45.7189 146.058 46.2837C146.394 46.3364 146.727 46.3886 147.054 46.4401C147.69 46.5403 148.124 47.1377 148.024 47.7746C147.924 48.4114 147.327 48.8465 146.691 48.7463C146.357 48.6937 146.015 48.64 145.668 48.5855C142.111 48.0276 137.996 47.3822 135.652 46.7976C135.028 46.6417 134.647 46.0083 134.803 45.3828Z" fill="#2F79CD"/>
<path d="M131.682 36.1304C131.468 36.1283 131.258 36.067 131.076 35.9533C130.895 35.8396 130.748 35.678 130.652 35.4861C130.394 35.144 130.1 34.8308 129.775 34.5523C128.679 33.5017 126.646 31.55 128.493 29.3462C129.663 27.9454 131.649 28.4777 132.302 28.6505C136.205 29.687 140.634 30.985 143.749 33.0675C143.877 33.153 143.987 33.2629 144.072 33.391C144.158 33.5191 144.217 33.6628 144.247 33.8139C144.277 33.965 144.278 34.1205 144.248 34.2716C144.218 34.4228 144.158 34.5665 144.073 34.6947C143.987 34.8228 143.878 34.9329 143.75 35.0185C143.622 35.1042 143.478 35.1638 143.328 35.1939C143.177 35.224 143.021 35.2241 142.87 35.1941C142.719 35.1642 142.576 35.1047 142.448 35.0192C139.65 33.1235 135.426 31.9095 131.724 30.9197C130.53 30.6022 130.325 30.8496 130.297 30.859C130.004 31.2091 129.924 31.4566 131.407 32.8807C131.926 33.3239 132.373 33.8453 132.731 34.4262C132.876 34.6978 132.908 35.0157 132.821 35.311C132.734 35.6064 132.534 35.8554 132.265 36.0044C132.084 36.0938 131.884 36.1371 131.682 36.1304V36.1304Z" fill="#2F79CD"/>
<path d="M120.562 36.1025C120.33 36.1019 120.104 36.0323 119.913 35.9026C119.721 35.7728 119.572 35.5889 119.485 35.3741C119.336 35.0146 118.65 33.1563 119.438 31.6948C119.627 31.3441 119.893 31.0412 120.216 30.809C120.539 30.5768 120.911 30.4214 121.303 30.3548C124.152 29.7851 126.959 31.8162 128.81 33.1563C129.113 33.3757 129.388 33.5765 129.64 33.7446C129.771 33.8283 129.885 33.9376 129.974 34.066C130.062 34.1944 130.124 34.3393 130.156 34.4921C130.188 34.6449 130.188 34.8026 130.158 34.9557C130.128 35.1089 130.068 35.2544 129.98 35.3837C129.893 35.513 129.781 35.6234 129.65 35.7085C129.519 35.7936 129.373 35.8515 129.219 35.8789C129.066 35.9063 128.908 35.9026 128.756 35.868C128.604 35.8335 128.461 35.7687 128.334 35.6776C128.064 35.5002 127.766 35.2807 127.439 35.0473C125.919 33.9407 123.616 32.2691 121.765 32.638C121.555 32.68 121.518 32.75 121.494 32.7967C121.35 33.3611 121.404 33.9581 121.648 34.487C121.706 34.6292 121.735 34.7814 121.734 34.935C121.733 35.0885 121.702 35.2403 121.642 35.3817C121.582 35.5231 121.495 35.6513 121.386 35.759C121.276 35.8666 121.147 35.9516 121.005 36.0091C120.865 36.0706 120.714 36.1024 120.562 36.1025V36.1025Z" fill="#2F79CD"/>
<path d="M127.066 63.9679C126.848 63.9678 126.634 63.9066 126.448 63.791C126.263 63.6755 126.113 63.5104 126.017 63.3143C124.276 59.7737 123.329 55.895 123.243 51.9496C123.239 51.7963 123.265 51.6437 123.321 51.5007C123.376 51.3576 123.459 51.2269 123.564 51.1159C123.67 51.0049 123.796 50.9158 123.936 50.8538C124.076 50.7917 124.227 50.7579 124.38 50.7543H124.408C124.713 50.7542 125.006 50.8742 125.223 51.0882C125.44 51.3022 125.564 51.5931 125.569 51.8982C125.653 55.5033 126.52 59.0468 128.11 62.2824C128.178 62.42 128.218 62.5697 128.228 62.7228C128.238 62.8759 128.218 63.0295 128.169 63.1748C128.119 63.3201 128.042 63.4542 127.941 63.5695C127.839 63.6847 127.716 63.7789 127.579 63.8465C127.419 63.9251 127.244 63.9666 127.066 63.9679V63.9679Z" fill="#2F79CD"/>
<path d="M121.131 63.1928C120.891 63.1927 120.657 63.1187 120.461 62.9808C120.265 62.843 120.116 62.648 120.035 62.4224C119.092 59.7986 118.353 57.1059 117.825 54.3681C117.763 54.0641 117.824 53.7479 117.995 53.4892C118.166 53.2304 118.433 53.0503 118.736 52.9884C119.04 52.9265 119.356 52.9879 119.614 53.159C119.872 53.3302 120.052 53.5972 120.114 53.9012C120.619 56.5204 121.326 59.0963 122.231 61.6053C122.294 61.7819 122.313 61.971 122.288 62.1567C122.262 62.3423 122.193 62.5192 122.085 62.6724C121.977 62.8256 121.834 62.9507 121.668 63.0372C121.502 63.1237 121.318 63.169 121.131 63.1694V63.1928Z" fill="#2F79CD"/>
<path d="M206.941 51.1277C205.053 51.194 203.184 50.7246 201.551 49.7737C198.012 47.5978 196.916 43.2369 196.623 39.9685C195.923 32.227 197.177 26.428 200.688 21.1939C200.86 20.9363 201.127 20.7577 201.431 20.6972C201.734 20.6368 202.049 20.6996 202.306 20.8717C202.564 21.0438 202.742 21.3112 202.802 21.6151C202.863 21.9189 202.8 22.2343 202.628 22.4919C199.387 27.3245 198.287 32.4885 198.945 39.7677C199.192 42.5038 200.054 46.1177 202.768 47.7846C205.099 49.2134 208.027 48.8258 211.123 48.4149C212.424 48.2469 213.767 48.0694 215.086 48.0274H215.124C215.277 48.0253 215.429 48.0533 215.571 48.11C215.713 48.1667 215.843 48.2509 215.953 48.3577C216.063 48.4646 216.15 48.5921 216.211 48.7329C216.271 48.8737 216.304 49.0251 216.306 49.1783C216.308 49.3316 216.28 49.4839 216.223 49.6263C216.167 49.7687 216.083 49.8986 215.976 50.0085C215.869 50.1184 215.742 50.2062 215.601 50.2669C215.461 50.3275 215.309 50.3598 215.156 50.362C213.953 50.3993 212.727 50.5581 211.426 50.7308C209.941 50.9603 208.443 51.0929 206.941 51.1277V51.1277Z" fill="#2F79CD"/>
<path d="M204.922 50.334L203.057 69.4774" stroke="#2F79CD" stroke-width="2.35171" stroke-linecap="round" stroke-linejoin="round"/>
<path d="M210.05 31.6574C210.565 31.6574 210.983 30.9258 210.983 30.0232C210.983 29.1207 210.565 28.389 210.05 28.389C209.535 28.389 209.118 29.1207 209.118 30.0232C209.118 30.9258 209.535 31.6574 210.05 31.6574Z" fill="#2F79CD"/>
<path d="M210.051 31.8908C209.398 31.8908 208.885 31.0691 208.885 30.0232C208.885 28.9773 209.398 28.1555 210.051 28.1555C210.704 28.1555 211.217 28.9773 211.217 30.0232C211.217 31.0691 210.704 31.8908 210.051 31.8908ZM210.051 28.6224C209.72 28.6224 209.352 29.1967 209.352 30.0232C209.352 30.8496 209.72 31.4239 210.051 31.4239C210.382 31.4239 210.75 30.8496 210.75 30.0232C210.75 29.1967 210.382 28.6224 210.051 28.6224Z" fill="#2F79CD"/>
<path d="M204.223 31.4239C204.738 31.4239 205.155 30.6923 205.155 29.7897C205.155 28.8872 204.738 28.1555 204.223 28.1555C203.708 28.1555 203.29 28.8872 203.29 29.7897C203.29 30.6923 203.708 31.4239 204.223 31.4239Z" fill="#2F79CD"/>
<path d="M204.223 31.6574C203.57 31.6574 203.057 30.8357 203.057 29.7898C203.057 28.7439 203.57 27.9221 204.223 27.9221C204.876 27.9221 205.388 28.7439 205.388 29.7898C205.388 30.8357 204.876 31.6574 204.223 31.6574ZM204.223 28.389C203.892 28.389 203.523 28.9633 203.523 29.7898C203.523 30.6162 203.892 31.1905 204.223 31.1905C204.554 31.1905 204.922 30.6162 204.922 29.7898C204.922 28.9633 204.554 28.389 204.223 28.389Z" fill="#2F79CD"/>
<path d="M207.692 42.7746C206.808 42.7767 205.931 42.6185 205.104 42.3077C204.886 42.2114 204.713 42.0354 204.621 41.8157C204.528 41.596 204.523 41.3492 204.607 41.1259C204.69 40.9026 204.856 40.7198 205.07 40.6148C205.283 40.5098 205.529 40.4907 205.757 40.5614C206.582 40.8607 207.464 40.9663 208.337 40.87C209.209 40.7736 210.047 40.478 210.788 40.0058C210.992 39.9039 211.226 39.8806 211.446 39.9402C211.667 39.9997 211.858 40.1381 211.983 40.3291C212.108 40.5201 212.159 40.7504 212.126 40.9765C212.093 41.2026 211.979 41.4088 211.804 41.5559C210.579 42.3498 209.151 42.7729 207.692 42.7746V42.7746Z" fill="#2F79CD"/>
<path d="M205.01 37.0596H204.94C203.774 36.9344 202.701 36.3622 201.947 35.4627C201.836 35.3309 201.778 35.1628 201.783 34.9905C201.788 34.8182 201.856 34.6538 201.975 34.5289C202.891 33.5567 204.119 32.9371 205.444 32.778C205.63 32.7557 205.816 32.8081 205.963 32.9237C206.11 33.0393 206.205 33.2086 206.227 33.3943C206.25 33.5801 206.197 33.7671 206.082 33.9142C205.966 34.0613 205.797 34.1564 205.612 34.1787C204.847 34.2671 204.12 34.5571 203.504 35.0192C203.963 35.3716 204.51 35.5913 205.085 35.6542C205.27 35.6641 205.444 35.7474 205.569 35.8857C205.693 36.0241 205.757 36.2061 205.747 36.3919C205.737 36.5776 205.654 36.7518 205.516 36.8762C205.378 37.0005 205.196 37.0648 205.01 37.0549V37.0596Z" fill="#2F79CD"/>
<path d="M252.849 132.604C252.677 132.603 252.511 132.538 252.383 132.422C246.116 126.749 240.726 118.783 236.782 109.389C236.739 109.303 236.715 109.21 236.71 109.114C236.705 109.019 236.719 108.923 236.752 108.833C236.786 108.744 236.837 108.662 236.903 108.592C236.969 108.523 237.049 108.469 237.137 108.431C237.225 108.394 237.32 108.376 237.416 108.377C237.511 108.378 237.606 108.398 237.693 108.437C237.78 108.476 237.859 108.533 237.923 108.603C237.988 108.674 238.037 108.757 238.069 108.848C241.929 118.05 247.207 125.843 253.325 131.385C253.429 131.48 253.502 131.604 253.535 131.742C253.567 131.879 253.558 132.023 253.507 132.154C253.457 132.286 253.368 132.399 253.252 132.48C253.137 132.56 252.999 132.603 252.859 132.604H252.849Z" fill="white"/>
<path d="M266.92 284.911C266.538 284.085 263.484 268.994 271.21 269.004C267.946 269.004 264.445 264.227 263.144 261.776C260.668 257.107 260.038 248.002 264.86 244.43C267.303 242.623 279.188 241.46 280.796 245.051C277.658 238.047 271.131 224.507 277.192 217.503C281.608 212.4 290.779 222.443 293.548 224.768C290.751 222.434 311.001 186.052 320.433 191.841C325.273 194.811 327.856 202.347 327.772 207.67C327.571 220.006 316.61 229.068 306.641 236.315C312.968 231.716 340.086 246.905 323.632 251.256C316.472 253.138 309.096 254.062 301.694 254.002C305.527 254.518 309.18 255.95 312.345 258.177C315.509 260.403 318.093 263.359 319.878 266.795C320.344 267.752 320.811 268.812 320.652 269.877C320.256 272.758 316.456 273.425 313.542 273.369L293.311 272.977C297.995 274.992 302.095 278.161 305.228 282.189C308.259 286.097 310.035 292.303 306.343 295.594C303.545 298.074 287.109 297.462 282.531 296.505C275.831 295.09 269.872 291.247 266.92 284.911Z" fill="white"/>
<path d="M294.499 298.494C289.371 298.494 284.214 298.05 282.283 297.64C274.604 296.001 268.762 291.658 265.866 285.406C265.4 284.473 263.47 275.078 266.426 270.465C266.781 269.898 267.23 269.395 267.755 268.98C265.242 267.295 263.092 264.232 262.118 262.346C259.362 257.153 258.812 247.479 264.165 243.515C266.3 241.937 273.728 240.914 278.152 242.053C274.753 234.298 270.664 223.256 276.287 216.747C276.737 216.205 277.295 215.763 277.926 215.45C278.556 215.136 279.244 214.958 279.947 214.926C284.144 214.706 289.165 219.175 292.355 222.135C292.901 220.202 293.632 218.325 294.537 216.532C296.858 211.705 299.596 207.089 302.72 202.739C307.028 196.749 315.131 187.233 321.016 190.847C324.937 193.252 329.035 199.971 328.914 207.689C328.737 218.558 320.703 226.977 311.196 234.349C312.069 234.433 312.935 234.577 313.789 234.779C317.008 235.574 320.089 236.852 322.927 238.57C325.231 239.971 330.523 243.622 329.958 247.558C329.641 249.781 327.604 251.401 323.897 252.377C319.009 253.665 314.016 254.515 308.977 254.917C314.098 257.263 318.286 261.262 320.871 266.272C321.417 267.351 321.948 268.644 321.757 270.045C321.361 272.959 318.251 274.63 313.472 274.546L298.15 274.247C301.197 276.183 303.886 278.631 306.1 281.484C309.625 286.032 311.164 292.83 307.074 296.477C305.401 298.004 299.931 298.494 294.499 298.494ZM267.988 284.445C270.585 290.001 275.835 293.876 282.768 295.356C287.669 296.402 303.349 296.692 305.564 294.717C308.599 292.013 307.177 286.611 304.3 282.904C301.296 279.022 297.356 275.969 292.849 274.032C292.601 273.927 292.397 273.738 292.272 273.499C292.148 273.26 292.11 272.985 292.164 272.72C292.219 272.456 292.364 272.219 292.574 272.05C292.784 271.88 293.046 271.789 293.315 271.791H293.338L313.565 272.183C314.497 272.183 319.16 272.183 319.5 269.699C319.603 268.938 319.225 268.061 318.843 267.304C317.152 264.036 314.697 261.225 311.688 259.111C308.678 256.998 305.203 255.643 301.559 255.164C301.249 255.145 300.961 255.004 300.756 254.771C300.55 254.539 300.446 254.234 300.465 253.925C300.484 253.615 300.626 253.326 300.858 253.121C301.09 252.915 301.394 252.811 301.703 252.83V252.83C309.002 252.885 316.276 251.968 323.333 250.103C325.963 249.412 327.501 248.385 327.669 247.213C327.916 245.49 325.59 242.88 321.743 240.555C316.148 237.165 309.527 235.647 307.326 237.249C307.076 237.431 306.763 237.506 306.458 237.457C306.152 237.409 305.878 237.241 305.697 236.99C305.515 236.739 305.44 236.426 305.489 236.12C305.537 235.814 305.705 235.54 305.955 235.358C316.577 227.64 326.424 218.937 326.606 207.637C326.69 202.45 324.172 195.498 319.822 192.822C318.283 191.888 316.139 192.421 313.444 194.438C303.755 201.679 294.07 221.453 294.453 224.017C294.642 224.241 294.74 224.529 294.727 224.823C294.713 225.117 294.59 225.395 294.381 225.601C294.172 225.808 293.892 225.927 293.599 225.937C293.305 225.946 293.019 225.844 292.798 225.651V225.651C292.383 225.301 291.865 224.801 291.226 224.222C288.531 221.715 283.528 217.041 280.097 217.218C279.706 217.236 279.324 217.337 278.976 217.513C278.627 217.689 278.319 217.937 278.073 218.241C272.772 224.362 278.395 236.857 281.416 243.566L281.854 244.547C281.947 244.823 281.932 245.124 281.814 245.39C281.696 245.656 281.483 245.869 281.217 245.986C280.951 246.103 280.65 246.116 280.375 246.022C280.099 245.929 279.869 245.736 279.728 245.481C279.505 244.99 278.763 244.547 277.635 244.257C273.816 243.253 267.027 244.229 265.545 245.322C261.348 248.45 261.922 256.939 264.169 261.197C265.568 263.863 268.795 267.804 271.21 267.808C271.519 267.808 271.815 267.931 272.034 268.15C272.253 268.369 272.375 268.666 272.375 268.976C272.375 269.285 272.253 269.582 272.034 269.801C271.815 270.02 271.519 270.143 271.21 270.143V270.143C270.678 270.115 270.147 270.226 269.671 270.466C269.195 270.706 268.79 271.066 268.496 271.511C266.114 274.943 267.582 283.287 267.988 284.445Z" fill="#2F79CD"/>
<path d="M272.357 318.081C272.276 318.081 272.194 318.071 272.115 318.053C271.963 318.022 271.819 317.961 271.691 317.873C271.563 317.786 271.454 317.673 271.37 317.543C271.286 317.412 271.229 317.266 271.202 317.113C271.176 316.96 271.18 316.803 271.215 316.652C272.231 311.815 273.187 306.922 274.11 302.178C277.71 283.73 281.104 266.3 288.453 248.922C296.421 230.068 304.856 214.772 314.232 202.17C314.324 202.047 314.439 201.944 314.571 201.866C314.702 201.788 314.848 201.736 315 201.714C315.151 201.693 315.306 201.701 315.454 201.739C315.602 201.777 315.741 201.844 315.864 201.936C315.986 202.028 316.09 202.143 316.168 202.275C316.246 202.407 316.297 202.553 316.318 202.705C316.34 202.857 316.332 203.011 316.294 203.16C316.256 203.308 316.189 203.448 316.097 203.57C306.832 216.023 298.491 231.156 290.597 249.837C283.352 267.015 279.971 284.351 276.4 302.654C275.467 307.393 274.535 312.296 273.495 317.128C273.444 317.394 273.303 317.635 273.096 317.808C272.889 317.982 272.628 318.078 272.357 318.081Z" fill="#2F79CD"/>
<path d="M289.599 58.7103H289.469C289.161 58.6752 288.88 58.5193 288.687 58.2769C288.494 58.0344 288.404 57.7252 288.438 57.417L288.844 53.7937C289.03 52.1175 289.245 50.2219 290.056 48.5036C291.329 45.8002 294.019 43.6897 297.624 42.5598C299.788 41.9549 302.002 41.544 304.24 41.3318C305.028 41.2338 305.816 41.1357 306.599 41.019C309.01 40.6641 312.064 40.0245 314.358 38.2175C314.931 37.7506 314.94 37.5405 314.94 37.5405C314.893 37.4125 314.807 37.3029 314.693 37.2276C313.761 36.4666 312.162 36.7 310.623 36.9288L310.366 36.9662C305.704 37.6432 300.99 37.2043 296.43 36.7794C293.026 36.4619 289.501 36.1351 286.084 36.3125C285.296 36.3012 284.515 36.4605 283.794 36.7794C282.769 37.321 282.134 38.6097 281.622 39.7723C280.14 43.1433 278.953 46.6365 278.073 50.2125C278.042 50.3664 277.979 50.5122 277.89 50.6413C277.8 50.7704 277.686 50.8801 277.553 50.9639C277.42 51.0476 277.272 51.1037 277.117 51.1287C276.962 51.1537 276.804 51.1471 276.652 51.1094C276.5 51.0716 276.356 51.0035 276.231 50.9091C276.106 50.8146 276.001 50.6958 275.922 50.5598C275.844 50.4237 275.794 50.2732 275.775 50.1173C275.756 49.9613 275.768 49.8031 275.812 49.6522C276.724 45.9472 277.954 42.3277 279.486 38.8338C280.209 37.195 281.099 35.5654 282.713 34.711C283.735 34.2353 284.849 33.9929 285.976 34.0013C289.557 33.8379 293.161 34.174 296.644 34.5009C301.27 34.9304 305.643 35.3366 310.031 34.697L310.283 34.6596C312.148 34.3888 314.423 34.048 316.157 35.4534C316.46 35.6798 316.714 35.9646 316.904 36.291C317.095 36.6174 317.218 36.9788 317.267 37.3537C317.342 38.3202 316.847 39.2214 315.794 40.0571C313.071 42.1909 309.634 42.9193 306.935 43.3255C306.133 43.4423 305.326 43.545 304.52 43.643C302.419 43.8367 300.341 44.2196 298.309 44.787C296.584 45.3239 293.493 46.6546 292.154 49.4981C291.506 50.8662 291.329 52.4817 291.152 54.0505L290.746 57.6738C290.714 57.957 290.58 58.2188 290.369 58.4097C290.158 58.6006 289.884 58.7076 289.599 58.7103V58.7103Z" fill="#2F79CD"/>
<path d="M306.059 36.3827C305.878 36.3834 305.699 36.3415 305.537 36.2604C305.375 36.1793 305.234 36.0613 305.126 35.9158C304.941 35.6681 304.861 35.3568 304.905 35.0503C304.948 34.7438 305.112 34.4673 305.359 34.2816C305.74 34.0492 306.06 33.729 306.292 33.3477C306.31 33.2789 306.31 33.2065 306.292 33.1376C306.172 33.1424 306.052 33.1533 305.933 33.1703C302.589 33.5668 299.338 34.5315 296.319 36.0232C296.041 36.16 295.72 36.1808 295.427 36.081C295.135 35.9811 294.893 35.7689 294.757 35.4909C294.62 35.2129 294.599 34.8919 294.699 34.5986C294.799 34.3052 295.01 34.0635 295.288 33.9267C298.546 32.3206 302.052 31.2801 305.658 30.8498C306.234 30.7435 306.83 30.8101 307.369 31.0412C307.91 31.3466 308.318 31.8429 308.514 32.4333C308.71 33.0238 308.679 33.666 308.427 34.2349C308.056 35.0165 307.475 35.6793 306.749 36.1492C306.55 36.2992 306.308 36.381 306.059 36.3827V36.3827Z" fill="#2F79CD"/>
<path d="M305.891 55.7502C305.73 55.7526 305.571 55.7208 305.424 55.6568C305.284 55.5972 305.156 55.5104 305.049 55.4014C304.942 55.2923 304.857 55.1632 304.8 55.0213C304.743 54.8795 304.714 54.7278 304.716 54.5748C304.717 54.4219 304.749 54.2707 304.809 54.13L307.033 48.8679C307.157 48.5831 307.388 48.3591 307.677 48.2453C307.965 48.1315 308.287 48.1371 308.572 48.2609C308.856 48.3848 309.08 48.6167 309.193 48.9056C309.307 49.1946 309.301 49.5169 309.178 49.8017L306.954 55.0639C306.861 55.2686 306.712 55.4423 306.523 55.564C306.335 55.6857 306.115 55.7504 305.891 55.7502V55.7502Z" fill="#2F79CD"/>
<path d="M309.658 59.8497C309.428 59.8492 309.204 59.7806 309.013 59.6526C308.822 59.5246 308.673 59.3429 308.584 59.1303C308.496 58.9177 308.473 58.6838 308.517 58.4578C308.561 58.2319 308.671 58.0242 308.833 57.8607C310.681 55.9979 311.884 53.5905 312.265 50.9924C312.309 50.6859 312.473 50.4097 312.721 50.2245C312.969 50.0393 313.28 49.9603 313.586 50.0048C313.892 50.0494 314.168 50.2139 314.353 50.4622C314.538 50.7104 314.617 51.0221 314.573 51.3285C314.117 54.4228 312.684 57.2896 310.483 59.5089C310.375 59.6174 310.246 59.7034 310.105 59.7619C309.963 59.8204 309.811 59.8502 309.658 59.8497Z" fill="#2F79CD"/>
<path d="M166.134 53.9761C170.102 65.1026 174.746 81.7808 176.485 90.0592Z" fill="#D5ECF7"/>
<path d="M176.484 90.7593C176.324 90.7596 176.168 90.7045 176.043 90.6033C175.918 90.5021 175.832 90.361 175.799 90.2037C174.097 82.1074 169.439 65.3359 165.476 54.2093C165.414 54.0341 165.424 53.8415 165.504 53.6738C165.584 53.5061 165.728 53.3771 165.903 53.3152C166.078 53.2533 166.27 53.2635 166.437 53.3436C166.605 53.4237 166.734 53.5672 166.796 53.7424C170.777 64.9157 175.459 81.7572 177.17 89.9142C177.189 90.0044 177.19 90.0974 177.173 90.188C177.156 90.2786 177.122 90.365 177.072 90.4422C177.021 90.5194 176.956 90.5859 176.88 90.6379C176.805 90.69 176.719 90.7264 176.629 90.7453L176.484 90.7593Z" fill="white"/>
<path d="M58.9822 217.022L81.8289 315.074L150.681 227.331L143.841 215.621L58.9822 217.022Z" fill="#2F79CD"/>
<path d="M97.5326 250.192L81.829 318.361H209.118L228.701 224.511L126.273 226.79C119.567 226.939 113.101 229.32 107.897 233.557C102.692 237.795 99.0458 243.648 97.5326 250.192V250.192Z" fill="white"/>
<path d="M210.064 319.51H80.3648L96.3995 249.939C97.9622 243.138 101.745 237.053 107.15 232.647C112.555 228.241 119.273 225.766 126.24 225.613L230.132 223.302L210.064 319.51ZM83.2929 317.175H208.171L227.26 225.693L126.301 227.938C119.849 228.077 113.628 230.367 108.623 234.446C103.618 238.525 100.116 244.16 98.6701 250.458L83.2929 317.175Z" fill="#2F79CD"/>
<path d="M128.035 197.855H127.872C127.566 197.812 127.29 197.65 127.103 197.403C126.917 197.156 126.836 196.845 126.879 196.539C127.811 189.726 128.091 182.881 123.811 178.964C122.657 177.927 121.29 177.157 119.806 176.709C119.812 178.192 119.535 179.663 118.99 181.042C117.428 184.926 112.756 188.12 108.298 186.687C106.046 185.958 104.256 183.834 103.734 181.266C103.267 178.987 103.925 176.825 105.478 175.481C107.217 173.973 109.515 173.678 111.744 173.58C113.538 173.489 115.337 173.552 117.12 173.767C116.798 172.464 116.307 171.208 115.661 170.032C112.429 164.079 105.664 160.376 98.9173 160.227C99.2918 161.275 99.5696 162.354 99.7472 163.453C100.288 166.787 99.7892 169.99 98.3484 172.455C96.614 175.425 93.4807 177.278 90.3614 177.162C88.5175 177.044 86.769 176.299 85.4061 175.05C84.0432 173.801 83.1479 172.122 82.8686 170.293C82.2392 165.232 86.5987 161.048 90.9349 159.302C92.3629 158.728 93.8548 158.328 95.3784 158.112C93.4619 154.864 90.729 152.175 87.452 150.314C82.8686 147.662 77.115 146.285 70.3542 146.224C70.0451 146.224 69.7486 146.101 69.53 145.882C69.3114 145.663 69.1886 145.366 69.1886 145.057C69.1886 144.747 69.3114 144.45 69.53 144.231C69.7486 144.012 70.0451 143.889 70.3542 143.889C77.5206 143.955 83.6613 145.435 88.5943 148.292C92.5586 150.524 95.7951 153.854 97.9148 157.883C105.809 157.715 113.922 161.936 117.708 168.911C118.623 170.569 119.261 172.365 119.596 174.229C121.745 174.733 123.735 175.765 125.387 177.232C130.46 181.877 130.213 189.404 129.187 196.842C129.151 197.122 129.014 197.38 128.802 197.566C128.59 197.753 128.317 197.855 128.035 197.855V197.855ZM113.474 175.868C112.947 175.868 112.406 175.868 111.847 175.906C110.038 175.98 108.201 176.195 107.002 177.236C106.07 178.035 105.72 179.328 106.018 180.79C106.368 182.517 107.571 183.988 109.012 184.455C112.192 185.477 115.684 183.012 116.826 180.159C117.325 178.886 117.545 177.519 117.47 176.153C116.147 175.954 114.811 175.858 113.474 175.868V175.868ZM96.4601 160.297C94.8601 160.46 93.2907 160.847 91.7975 161.445C88.2726 162.846 84.6964 166.142 85.1719 169.981C85.368 171.269 85.9995 172.451 86.9609 173.33C87.9222 174.208 89.1554 174.73 90.4547 174.808C92.688 174.878 95.0566 173.459 96.3435 171.255C97.5092 169.252 97.9055 166.586 97.4532 163.785C97.2532 162.588 96.9201 161.419 96.4601 160.297V160.297Z" fill="#2F79CD"/>
<path fill-rule="evenodd" clip-rule="evenodd" d="M0 318.809C0 318.165 0.521879 317.642 1.16565 317.642H297.707C298.35 317.642 298.872 318.165 298.872 318.809C298.872 319.454 298.35 319.977 297.707 319.977H1.16565C0.521879 319.977 0 319.454 0 318.809Z" fill="#2F79CD"/>
<path d="M91.8906 306.884C89.0511 306.968 87.3306 308.56 85.0832 310.003C84.5423 310.349 83.6844 310.624 83.0736 310.311C82.0245 309.774 82.5094 308.635 82.7659 307.753C83.344 305.778 83.2321 303.821 82.9058 301.818C82.6602 300.235 82.1545 298.703 81.4091 297.284C81.0079 296.503 80.53 295.763 79.9823 295.076C79.3156 294.278 78.7327 293.493 77.9681 294.301C74.625 297.817 73.3894 303.298 74.0981 308.009C74.2473 309.018 74.4758 310.227 73.2169 310.479C72.3217 310.662 71.17 310.045 70.5452 309.443C69.2589 308.177 67.6593 307.276 65.9106 306.833C65.3215 306.681 64.7185 306.588 64.1108 306.557C63.3881 306.557 62.7121 306.478 62.7494 307.253C62.9545 311.539 66.8431 316.213 70.7271 317.763C73.0211 318.697 75.5249 318.632 77.9541 318.576C80.2388 318.524 82.6167 318.865 84.7988 318.029C87.3974 317.02 89.6306 315.248 91.2052 312.945C92.1797 311.469 93.1635 309.392 93.2521 307.575C93.2894 306.805 92.6133 306.861 91.8906 306.884Z" fill="#F0F6FA"/>
<path d="M76.2521 319.771C74.2246 319.843 72.2021 319.526 70.2933 318.837C66.2975 317.245 61.8307 312.38 61.5836 307.3C61.5569 307.047 61.5847 306.791 61.6652 306.549C61.7456 306.307 61.8768 306.086 62.0498 305.899C62.628 305.311 63.4066 305.339 64.0314 305.362H64.1247C64.8109 305.397 65.4919 305.5 66.1576 305.67C68.1127 306.172 69.9001 307.184 71.3377 308.603C71.804 309.07 72.592 309.41 72.9696 309.336H73.0209C73.0336 308.99 73.007 308.644 72.9417 308.304V308.201C72.135 302.804 73.7716 297.037 77.138 293.507C77.3309 293.286 77.5689 293.11 77.836 292.989C78.1031 292.868 78.3929 292.806 78.686 292.807C79.6465 292.84 80.2619 293.582 80.8028 294.236L80.8914 294.343C81.4895 295.09 82.0112 295.896 82.4487 296.748C83.2517 298.273 83.7954 299.922 84.0573 301.627C84.4856 303.763 84.4266 305.969 83.8848 308.08L83.7962 308.364C83.694 308.656 83.6252 308.958 83.591 309.266V309.266C83.8939 309.284 84.1937 309.196 84.4396 309.018C84.8406 308.761 85.2229 308.495 85.5959 308.238C87.3584 307.038 89.1768 305.792 91.8391 305.712H91.9324C92.5572 305.712 93.3312 305.666 93.9187 306.254C94.0933 306.44 94.2255 306.661 94.306 306.903C94.3865 307.145 94.4134 307.401 94.3849 307.655C94.2684 310.162 92.781 312.655 92.1515 313.613C90.4456 316.12 88.0175 318.049 85.1903 319.141C83.3253 319.851 81.4602 319.813 79.6232 319.776C79.045 319.776 78.4948 319.776 77.9493 319.776C77.4038 319.776 76.8396 319.771 76.2521 319.771ZM63.9615 307.72C64.4277 311.203 67.6496 315.279 71.1559 316.68C73.2587 317.516 75.6366 317.46 77.926 317.409C78.5228 317.409 79.1196 317.409 79.6977 317.409C81.3763 317.441 82.9616 317.474 84.3603 316.942C86.7307 316.018 88.7694 314.403 90.2119 312.305C91.0894 311.022 91.6999 309.576 92.007 308.052H91.9044C89.9182 308.112 88.5893 309.023 86.9015 310.171C86.5098 310.442 86.1088 310.718 85.6892 310.989C84.8592 311.521 83.591 311.922 82.5233 311.353C80.7002 310.419 81.2924 308.5 81.5488 307.678L81.6234 307.426C82.0897 305.89 82.0897 304.27 81.7306 302.005C81.5064 300.551 81.0432 299.143 80.3598 297.84C79.9936 297.128 79.5595 296.452 79.0636 295.823L78.9704 295.716C78.8678 295.59 78.7326 295.426 78.6114 295.296C75.8604 298.335 74.5316 303.233 75.2263 307.837V307.94C75.3709 308.901 75.7159 311.161 73.4079 311.624C72.0837 311.89 70.6104 311.157 69.6778 310.283C68.5415 309.156 67.1275 308.351 65.5794 307.949C65.0668 307.815 64.5419 307.734 64.0128 307.706H63.9009L63.9615 307.72Z" fill="#2F79CD"/>
<path d="M184.872 294.763C184.691 294.763 184.512 294.721 184.351 294.64C184.189 294.559 184.048 294.441 183.939 294.296L156.43 256.476C156.317 256.356 156.231 256.213 156.178 256.057C156.124 255.901 156.104 255.735 156.119 255.571C156.134 255.406 156.184 255.247 156.265 255.103C156.346 254.96 156.457 254.835 156.59 254.737C156.723 254.639 156.875 254.571 157.036 254.536C157.197 254.502 157.364 254.502 157.525 254.536C157.686 254.571 157.838 254.639 157.971 254.737C158.103 254.835 158.214 254.96 158.295 255.104L185.804 292.924C185.934 293.097 186.013 293.303 186.033 293.519C186.052 293.735 186.011 293.952 185.914 294.146C185.818 294.34 185.669 294.503 185.485 294.617C185.301 294.731 185.088 294.791 184.872 294.791V294.763Z" fill="#2F79CD"/>
<path d="M151.768 299.899C151.587 299.899 151.408 299.857 151.246 299.776C151.085 299.694 150.944 299.577 150.835 299.432L140.577 286.359C140.386 286.115 140.3 285.805 140.337 285.497C140.374 285.189 140.532 284.909 140.775 284.718C141.019 284.526 141.329 284.44 141.636 284.477C141.943 284.514 142.223 284.672 142.414 284.916L152.672 297.99C152.802 298.163 152.881 298.369 152.9 298.585C152.92 298.801 152.879 299.018 152.782 299.212C152.685 299.406 152.537 299.569 152.352 299.683C152.168 299.797 151.956 299.857 151.74 299.857L151.768 299.899Z" fill="#2F79CD"/>
<path d="M173.215 257.877C173.034 257.877 172.855 257.835 172.694 257.754C172.532 257.673 172.391 257.555 172.282 257.41L157.828 237.333C157.739 237.208 157.675 237.068 157.64 236.918C157.605 236.769 157.6 236.614 157.624 236.463C157.649 236.312 157.703 236.167 157.784 236.036C157.864 235.906 157.97 235.793 158.094 235.703C158.218 235.614 158.359 235.55 158.508 235.515C158.657 235.48 158.812 235.474 158.963 235.499C159.114 235.524 159.259 235.578 159.389 235.659C159.519 235.739 159.632 235.845 159.721 235.969L174.175 256.047C174.355 256.299 174.428 256.611 174.378 256.916C174.328 257.222 174.16 257.495 173.91 257.676C173.706 257.816 173.462 257.887 173.215 257.877V257.877Z" fill="#2F79CD"/>
<path d="M222.173 271.651C230.928 271.651 238.026 264.544 238.026 255.776C238.026 247.008 230.928 239.901 222.173 239.901C213.417 239.901 206.32 247.008 206.32 255.776C206.32 264.544 213.417 271.651 222.173 271.651Z" fill="white"/>
<path d="M222.173 272.818C218.807 272.818 215.516 271.819 212.718 269.946C209.919 268.074 207.738 265.412 206.45 262.298C205.161 259.184 204.824 255.757 205.481 252.451C206.138 249.145 207.759 246.109 210.139 243.725C212.519 241.342 215.551 239.719 218.852 239.061C222.154 238.404 225.576 238.741 228.685 240.031C231.795 241.321 234.453 243.505 236.323 246.308C238.193 249.11 239.191 252.405 239.191 255.776C239.186 260.294 237.391 264.626 234.201 267.821C231.01 271.016 226.685 272.813 222.173 272.818V272.818ZM222.173 241.068C219.268 241.068 216.428 241.931 214.013 243.547C211.597 245.163 209.715 247.46 208.603 250.148C207.492 252.835 207.201 255.792 207.768 258.645C208.334 261.498 209.733 264.119 211.787 266.176C213.841 268.233 216.458 269.634 219.307 270.201C222.156 270.769 225.109 270.477 227.793 269.364C230.477 268.251 232.771 266.366 234.384 263.947C235.998 261.529 236.86 258.685 236.86 255.776C236.856 251.876 235.307 248.138 232.554 245.38C229.8 242.623 226.067 241.072 222.173 241.068V241.068Z" fill="#2F79CD"/>
<path d="M303.768 221.458C303.459 221.463 303.16 221.346 302.938 221.131C302.715 220.916 302.587 220.621 302.582 220.311C302.576 220.002 302.693 219.703 302.908 219.48C303.123 219.257 303.417 219.129 303.726 219.123L316.315 218.656C316.624 218.645 316.925 218.757 317.152 218.968C317.378 219.179 317.512 219.472 317.523 219.782C317.534 220.091 317.422 220.392 317.211 220.619C317 220.846 316.708 220.98 316.399 220.991L303.81 221.458H303.768Z" fill="#2F79CD"/>
<path d="M291.645 244.336C291.428 244.336 291.216 244.276 291.032 244.162C290.847 244.049 290.698 243.886 290.601 243.692L284.073 230.619C284.004 230.481 283.964 230.332 283.953 230.178C283.942 230.025 283.961 229.871 284.01 229.726C284.058 229.58 284.135 229.445 284.235 229.329C284.336 229.213 284.458 229.118 284.595 229.05C284.732 228.981 284.882 228.94 285.035 228.929C285.188 228.918 285.341 228.938 285.487 228.986C285.632 229.035 285.767 229.112 285.883 229.212C285.998 229.313 286.093 229.435 286.162 229.573L292.689 242.646C292.826 242.924 292.848 243.244 292.75 243.538C292.652 243.832 292.443 244.075 292.167 244.215C292.004 244.294 291.826 244.335 291.645 244.336V244.336Z" fill="#2F79CD"/>
<path d="M284.185 264.881C283.876 264.894 283.574 264.783 283.346 264.574C283.233 264.47 283.142 264.345 283.078 264.205C283.013 264.066 282.977 263.916 282.97 263.763C282.964 263.609 282.988 263.456 283.04 263.312C283.093 263.168 283.173 263.036 283.277 262.923C283.486 262.695 283.778 262.559 284.087 262.546L300.406 261.145C300.715 261.119 301.022 261.218 301.259 261.418C301.496 261.619 301.644 261.905 301.67 262.215C301.696 262.524 301.598 262.832 301.397 263.069C301.197 263.306 300.911 263.454 300.602 263.48L284.283 264.881H284.185Z" fill="#2F79CD"/>
<path d="M279.057 284.958C278.854 284.957 278.655 284.904 278.478 284.804L271.951 281.069C271.69 280.911 271.501 280.658 271.425 280.363C271.348 280.068 271.39 279.755 271.541 279.49C271.692 279.225 271.94 279.03 272.233 278.947C272.526 278.863 272.839 278.897 273.107 279.042L279.635 282.778C279.858 282.905 280.032 283.103 280.132 283.341C280.231 283.578 280.249 283.842 280.183 284.09C280.117 284.339 279.971 284.559 279.767 284.716C279.563 284.873 279.314 284.958 279.057 284.958Z" fill="#2F79CD"/>
<path d="M227.246 255.598C227.246 260.305 225.413 263.242 221.921 263.242C218.587 263.242 216.792 260.193 216.792 255.771C216.792 251.223 218.718 248.198 222.117 248.198C225.614 248.179 227.246 251.317 227.246 255.598ZM219.548 255.734C219.548 259.296 220.513 261.131 222.009 261.131C223.646 261.131 224.471 259.161 224.471 255.664C224.471 252.279 223.688 250.285 222.033 250.285C220.578 250.266 219.548 252.101 219.548 255.734V255.734Z" fill="#2F79CD" stroke="#2F79CD" stroke-width="0.470343"/>
</g>
<defs>
<clipPath id="clip0">
<rect width="330" height="320" fill="white"/>
</clipPath>
</defs>
</svg>
