<svg width="238" height="278" viewBox="0 0 238 278" fill="none" xmlns="http://www.w3.org/2000/svg">
<g clip-path="url(#clip0)">
<path d="M181.519 276.128C191.542 260.373 196.852 242.08 196.824 223.407C196.824 169.054 152.765 124.995 98.4117 124.995C44.0586 124.995 -0.000374549 169.054 -0.000374549 223.407C-0.0288259 242.08 5.28133 260.373 15.3043 276.128H181.519Z" fill="#F0F6FA"/>
<path d="M203.658 106.055L209.125 96.6821L196.628 90.0432L154.546 102.462L152.89 107.617V111.522C152.99 111.493 153.098 111.505 153.19 111.556C153.281 111.606 153.349 111.691 153.378 111.792C153.407 111.892 153.395 112 153.344 112.091C153.294 112.183 153.209 112.251 153.108 112.28L138.44 116.989C138.925 120.422 139.467 123.851 140.092 127.264C142.416 139.999 145.454 157.42 156.408 166.008C168.987 175.865 188.759 170.515 195.023 156.311C200.202 144.568 201.362 130.982 201.877 118.302C201.92 117.157 203.576 111.194 203.658 106.055Z" fill="#F0F6FA" stroke="#2F79CD" stroke-width="1.95262" stroke-linecap="round" stroke-linejoin="round"/>
<path d="M209.126 96.682C208.637 96.8382 209.352 116.896 209.297 118.301C208.782 130.982 207.622 144.568 202.444 156.311C196.195 170.515 176.407 175.865 163.829 166.008C152.874 157.416 149.836 139.999 147.513 127.264C146.888 123.851 146.341 120.422 145.861 116.989L209.126 96.682Z" fill="#2F79CD" stroke="#2F79CD" stroke-width="1.95262" stroke-linecap="round" stroke-linejoin="round"/>
<path d="M188.037 140.811L182.125 130.166C182.932 129.719 183.555 129.001 183.884 128.139C184.212 127.277 184.225 126.327 183.92 125.456C183.615 124.586 183.012 123.851 182.217 123.383C181.422 122.915 180.487 122.743 179.577 122.899C178.668 123.054 177.843 123.526 177.249 124.231C176.654 124.937 176.329 125.83 176.33 126.752C176.331 127.675 176.658 128.567 177.254 129.271C177.85 129.976 178.677 130.446 179.586 130.599L177.493 143.154L188.037 140.811Z" fill="white"/>
<path d="M151.132 103.977C151.132 103.977 150.265 70.021 174.79 69.3454C184.624 69.072 188.111 88.6177 189.263 96.6586L196.624 94.3389C196.624 94.3389 194.383 57.5945 176.317 58.0201C143.123 58.8012 144.294 97.8536 144.294 97.8536L145.856 106.055L151.195 104.368L151.132 103.977Z" fill="#2F79CD" stroke="#2F79CD" stroke-width="1.95262" stroke-linecap="round" stroke-linejoin="round"/>
<path d="M189.373 74.754C188.72 75.2617 188.096 75.8865 187.92 76.7066C187.744 77.5267 188.224 78.4991 189.045 78.5929C188.597 78.8051 188.244 79.1758 188.055 79.6332C187.865 80.0906 187.852 80.6022 188.018 81.0688C188.212 81.5251 188.549 81.906 188.979 82.1539C189.409 82.4018 189.907 82.5034 190.4 82.4434C190.017 82.8992 189.801 83.4727 189.79 84.068C189.779 84.6633 189.972 85.2445 190.338 85.7144C190.704 86.1843 191.22 86.5145 191.799 86.6498C192.379 86.7852 192.988 86.7175 193.524 86.458C193.309 87.6296 193.133 88.9847 193.934 89.8712C194.645 90.6718 195.844 90.7577 196.91 90.7186C198.226 90.6679 199.729 90.3906 200.385 89.2503C200.676 88.624 200.81 87.9365 200.776 87.2469C200.905 83.6931 201.006 79.9987 199.569 76.7457C199.068 75.5082 198.242 74.4289 197.179 73.6215C194.68 71.8095 191.556 73.0591 189.373 74.754Z" fill="white" stroke="#2F79CD" stroke-width="1.95262" stroke-linecap="round" stroke-linejoin="round"/>
<path d="M194.375 276.429C183.865 275.872 173.343 275.753 162.809 276.073C163.59 273.109 160.411 267.259 157.408 267.872C154.405 268.486 152.605 273.777 153.776 276.605C148.258 276.007 142.744 277.358 137.226 276.757C136.679 276.698 137.226 260.167 137.796 259.234C139.71 256.047 145.771 256.297 149.484 255.258C155.998 253.435 162.012 249.943 168.554 248.323C182.894 244.749 195.594 262.831 194.375 276.429Z" fill="#2F79CD" stroke="#2F79CD" stroke-width="1.95262" stroke-linecap="round" stroke-linejoin="round"/>
<path d="M12.8871 276.909H237.829" stroke="#2F79CD" stroke-width="1.95262"/>
<path d="M186.018 74.1995C186.554 74.47 187 74.8913 187.3 75.4116C187.601 75.9319 187.743 76.5286 187.709 77.1284C188.189 82.9863 188.369 83.4276 188.236 89.3128C188.287 85.4075 146.93 80.6549 142.154 81.5023C141.135 81.6858 141.822 67.6738 143.048 65.9594C145.294 62.8352 149.535 63.1984 152.976 63.3156C164.807 63.6933 176.278 67.472 186.018 74.1995V74.1995Z" stroke="#2F79CD" stroke-width="1.95262" stroke-linecap="round" stroke-linejoin="round"/>
<path d="M196.776 254.251C201.545 255.919 206.317 258.766 209.8 262.452C212.05 264.842 215.268 269.216 214.623 272.739C213.698 277.655 210.292 275.355 207.859 273.067C203.466 268.931 197.846 260.25 196.776 254.251Z" fill="#EFF6FC" stroke="#2F79CD" stroke-width="1.95262" stroke-linecap="round" stroke-linejoin="round"/>
<path d="M217.626 258.551C219.122 253.579 220.872 248.687 222.871 243.895C225.015 249.694 227.194 255.684 226.948 261.859C226.811 265.35 224.472 275.191 219.626 275.218C213.37 275.261 216.693 261.699 217.626 258.551Z" fill="#EFF6FC" stroke="#2F79CD" stroke-width="1.95262" stroke-linecap="round" stroke-linejoin="round"/>
<path d="M205.954 264.655L213.374 274.027" stroke="#2F79CD" stroke-width="1.95262" stroke-linecap="round" stroke-linejoin="round"/>
<path d="M222.746 260.359L219.622 275.199" stroke="#2F79CD" stroke-width="1.95262" stroke-linecap="round" stroke-linejoin="round"/>
<path d="M105.637 50.6001L100.951 68.1737" stroke="#2F79CD" stroke-width="1.95262" stroke-linecap="round" stroke-linejoin="round"/>
<path d="M119 53.5L118.5 71" stroke="#2F79CD" stroke-width="1.95262" stroke-linecap="round" stroke-linejoin="round"/>
<path d="M121.062 29.016C121.585 32.8041 122.315 36.5765 122.53 40.3959C122.737 44.1215 122.366 47.8158 121.034 51.3305C120.125 53.7205 117.801 53.5448 115.61 53.7127C113.704 53.8572 111.748 53.7987 109.959 53.0606" stroke="#2F79CD" stroke-width="1.95262" stroke-linecap="round" stroke-linejoin="round"/>
<path d="M116.856 38.4861C117.648 39.6429 118.641 40.6482 119.789 41.4541C118.696 41.8177 117.575 42.0907 116.438 42.2703" stroke="#2F79CD" stroke-width="1.5621" stroke-linecap="round" stroke-linejoin="round"/>
<path d="M118.887 47.148C118.767 46.7348 118.514 46.3727 118.167 46.1181C117.82 45.8635 117.399 45.7305 116.969 45.7398C116.539 45.7492 116.124 45.9003 115.789 46.1698C115.453 46.4393 115.216 46.8119 115.114 47.23" stroke="#2F79CD" stroke-width="1.5621" stroke-linecap="round" stroke-linejoin="round"/>
<path d="M113.252 38.4939C113.791 38.4939 114.228 38.0568 114.228 37.5176C114.228 36.9784 113.791 36.5413 113.252 36.5413C112.712 36.5413 112.275 36.9784 112.275 37.5176C112.275 38.0568 112.712 38.4939 113.252 38.4939Z" fill="#2F79CD"/>
<path d="M120.086 37.5177C120.625 37.5177 121.062 37.0806 121.062 36.5414C121.062 36.0022 120.625 35.5651 120.086 35.5651C119.547 35.5651 119.109 36.0022 119.109 36.5414C119.109 37.0806 119.547 37.5177 120.086 37.5177Z" fill="#2F79CD"/>
<path d="M124.725 22.5723C124.42 20.358 122.015 18.8232 119.789 19.0575C118.723 19.2144 117.687 19.5303 116.715 19.9948C113.4 21.3851 110.076 22.7792 106.87 24.3921C106.017 24.7499 105.248 25.2819 104.613 25.9542C103.508 27.2898 103.547 29.2151 103.801 30.9334C104.295 34.2916 105.379 37.536 107.003 40.5168C108.428 37.5528 107.327 33.9482 108.276 30.7967C108.436 30.1024 108.831 29.4845 109.393 29.0471C109.961 28.735 110.6 28.5749 111.248 28.5824C114.275 28.3715 117.551 28.9066 120.523 28.4926C122.94 28.1528 125.049 24.8998 124.725 22.5723Z" fill="#2F79CD" stroke="#2F79CD" stroke-width="1.5621" stroke-linecap="round" stroke-linejoin="round"/>
<path d="M105.277 38.486C104.387 38.4431 103.387 38.4352 102.739 39.0484C101.958 39.7669 102.083 41.1181 102.786 41.9031C103.488 42.688 104.601 42.9927 105.656 42.9927L105.589 50.1314" stroke="#2F79CD" stroke-width="1.95262" stroke-linecap="round" stroke-linejoin="round"/>
<path d="M117.157 34.9441L119.602 33.0422" stroke="#2F79CD" stroke-width="1.95262" stroke-linecap="round" stroke-linejoin="round"/>
<path d="M110.909 33.4209C112.13 33.8358 113.324 34.3248 114.486 34.8854" stroke="#2F79CD" stroke-width="1.95262" stroke-linecap="round" stroke-linejoin="round"/>
<path d="M138.636 83.6542C140.058 83.2074 141.514 82.8821 142.991 82.6818C143.858 75.5469 145.295 68.5096 148.091 61.9332C143.37 60.9961 138.591 60.3789 133.786 60.086C130.314 59.8634 126.835 59.8087 123.355 59.84C122.965 59.84 122.621 59.84 122.316 59.84C122.277 65.7642 119.36 73.7817 112.916 74.922C106.473 76.0624 100.467 69.4547 99.1661 63.5578C93.1754 61.3591 85.4079 66.3852 82.272 71.3995C78.441 77.2066 77.3163 84.3337 76.2853 91.2147L93.0427 95.737C88.3954 94.4873 84.9705 155.268 88.0518 152.543C94.6048 146.747 102.935 143.291 111.265 140.936C119.977 138.472 129.279 138.745 137.922 136.25C137.312 136.418 136.973 105.426 137.25 101.806C137.719 95.7578 138.181 89.7073 138.636 83.6542Z" fill="white" stroke="#2F79CD" stroke-width="1.95262" stroke-linecap="round" stroke-linejoin="round"/>
<path d="M91.1875 95.901L77.4762 92.8627L91.1875 95.901Z" fill="white"/>
<path d="M91.1875 95.901L77.4762 92.8627" stroke="#2F79CD" stroke-width="1.95262" stroke-linecap="round" stroke-linejoin="round"/>
<path d="M77.5194 92.777C75.6097 94.6398 73.9773 100.978 73.7313 101.974C71.4389 111.268 69.334 129.029 82.9633 129.756C93.9292 130.341 104.708 127.17 115.232 124.031L149.883 113.693C151.34 113.26 152.91 112.748 153.789 111.503C154.667 110.257 154.281 108.082 152.785 107.797C154.043 108.039 155.128 105.555 155.128 104.672C155.128 103.024 153.734 101.005 153.125 99.4706C153.056 99.2608 152.946 99.0669 152.801 98.9004C151.945 98.0608 145.381 101.829 145.381 101.767C144.988 100.416 144.597 99.067 144.209 97.721L138.636 102.708C138.158 103.187 137.615 103.597 137.024 103.926C136.141 104.364 135.13 104.43 134.149 104.508C120.946 105.594 107.828 110.624 94.7727 108.355C93.2341 108.086 91.6485 107.687 90.477 106.672C89.3054 105.656 90.0864 103.712 90.2778 102.411C90.6254 100.248 90.848 98.053 91.1409 95.8777" fill="white"/>
<path d="M77.5194 92.777C75.6097 94.6398 73.9773 100.978 73.7313 101.974C71.4389 111.268 69.334 129.029 82.9633 129.756C93.9292 130.341 104.708 127.17 115.232 124.031L149.883 113.693C151.34 113.26 152.91 112.748 153.789 111.503C154.667 110.257 154.281 108.082 152.785 107.797C154.043 108.039 155.128 105.555 155.128 104.672C155.128 103.024 153.734 101.005 153.125 99.4706C153.056 99.2608 152.946 99.0669 152.801 98.9004C151.945 98.0608 145.381 101.829 145.381 101.767C144.988 100.416 144.597 99.067 144.209 97.721L138.636 102.708C138.158 103.187 137.615 103.597 137.024 103.926C136.141 104.364 135.129 104.43 134.149 104.508C120.946 105.594 107.828 110.624 94.7727 108.355C93.2341 108.086 91.6485 107.687 90.477 106.672C89.3054 105.656 90.0864 103.712 90.2778 102.411C90.6254 100.248 90.848 98.053 91.1409 95.8777" stroke="#2F79CD" stroke-width="1.95262" stroke-linecap="round" stroke-linejoin="round"/>
<path d="M131.802 138.078L174.369 246.643" stroke="#2F79CD" stroke-width="1.95262" stroke-linecap="round" stroke-linejoin="round"/>
<path d="M137.66 258.359L174.369 246.643" stroke="#2F79CD" stroke-width="1.95262" stroke-linecap="round" stroke-linejoin="round"/>
<path d="M94.3115 149.793L137.66 258.359" stroke="#2F79CD" stroke-width="1.95262" stroke-linecap="round" stroke-linejoin="round"/>
<path d="M113.447 200.562L86.8917 255.625" stroke="#2F79CD" stroke-width="1.95262" stroke-linecap="round" stroke-linejoin="round"/>
<path d="M97.4361 158.385L57.9932 242.738" stroke="#2F79CD" stroke-width="1.95262" stroke-linecap="round" stroke-linejoin="round"/>
<path d="M86.892 255.625L57.9932 242.738" stroke="#2F79CD" stroke-width="1.95262" stroke-linecap="round" stroke-linejoin="round"/>
<path d="M100.17 146.279L145.08 256.016" stroke="#2F79CD" stroke-width="1.95262" stroke-linecap="round" stroke-linejoin="round" stroke-dasharray="5.86 5.86"/>
<path d="M101.341 169.32L66.9752 243.519" stroke="#2F79CD" stroke-width="1.95262" stroke-linecap="round" stroke-linejoin="round"/>
<path d="M97.1241 84L92.9999 95.5" stroke="#2F79CD" stroke-width="1.95262" stroke-linecap="round" stroke-linejoin="round"/>
<path d="M105.352 276.245L67.9943 275.745C69.2596 272.961 67.5334 269.243 64.585 268.415C61.6365 267.587 58.2311 269.864 57.8641 272.902C55.4825 271.098 52.8217 269.696 49.9872 268.751L54.4079 250.873C54.6852 249.744 54.9781 248.584 55.6771 247.659C57.1182 245.753 59.9143 245.374 62.2106 246.026C67.4749 247.518 71.9425 251.591 77.2223 253.407C80.7605 254.626 84.529 255.169 88.0164 256.5C91.9935 258.049 95.6189 260.381 98.6777 263.358C99.6189 264.295 106.539 276.261 105.352 276.245Z" fill="#2F79CD" stroke="#2F79CD" stroke-width="1.95262" stroke-linecap="round" stroke-linejoin="round"/>
<path d="M83.7441 260.175C84.0409 258.75 84.6563 257.411 85.5443 256.258C86.4324 255.105 87.5699 254.167 88.8717 253.517C89.3911 253.263 90.0433 253.067 90.5197 253.403C90.6823 253.55 90.8093 253.732 90.8912 253.935C90.9731 254.138 91.0077 254.357 90.9923 254.575C90.9923 256.992 88.5241 258.73 86.1459 259.16C83.7676 259.589 81.2956 259.179 78.9134 259.597C77.8514 259.728 76.8543 260.179 76.0547 260.89C75.2971 261.639 74.9183 262.842 75.3557 263.803C75.6527 264.356 76.0804 264.828 76.6014 265.178C77.2853 265.772 78.1137 266.176 79.0032 266.349C80.4169 266.533 81.7993 265.642 82.6077 264.467C83.4161 263.291 83.7793 261.874 84.1112 260.487" stroke="#F0F6FA" stroke-width="1.95262" stroke-linecap="round" stroke-linejoin="round"/>
<path d="M174.346 252.755C174.643 251.33 175.258 249.991 176.146 248.838C177.034 247.685 178.172 246.747 179.473 246.097C179.993 245.843 180.645 245.647 181.121 245.983C181.284 246.13 181.411 246.312 181.493 246.515C181.575 246.718 181.609 246.937 181.594 247.155C181.594 249.572 179.126 251.31 176.748 251.74C174.369 252.169 171.897 251.759 169.515 252.177C168.453 252.308 167.456 252.759 166.656 253.47C165.899 254.219 165.52 255.422 165.957 256.383C166.254 256.936 166.682 257.408 167.203 257.758C167.887 258.352 168.715 258.756 169.605 258.929C171.019 259.113 172.401 258.222 173.209 257.047C174.018 255.871 174.381 254.454 174.713 253.067" stroke="#F0F6FA" stroke-width="1.95262" stroke-linecap="round" stroke-linejoin="round"/>
<path d="M142.5 82.5L132.974 84.1853" stroke="#2F79CD" stroke-width="1.95262" stroke-linecap="round" stroke-linejoin="round"/>
<path d="M197.8 272.027H164.606" stroke="#F0F6FA" stroke-width="1.5621" stroke-linecap="round" stroke-linejoin="round"/>
<path d="M153.867 273.004H134.341" stroke="#F0F6FA" stroke-width="1.5621" stroke-linecap="round" stroke-linejoin="round"/>
<path d="M49.9872 264.412L64.4366 269.88" stroke="#F0F6FA" stroke-width="1.5621" stroke-linecap="round" stroke-linejoin="round"/>
<path d="M105.051 272.613H67.17" stroke="#F0F6FA" stroke-width="1.5621" stroke-linecap="round" stroke-linejoin="round"/>
<path d="M156.796 157.994H149.376" stroke="#2F79CD" stroke-width="1.95262" stroke-linecap="round" stroke-linejoin="round"/>
<path d="M155.233 147.841L145.861 148.622" stroke="#2F79CD" stroke-width="1.95262" stroke-linecap="round" stroke-linejoin="round"/>
<path d="M149.375 136.906L142.346 138.468" stroke="#2F79CD" stroke-width="1.95262" stroke-linecap="round" stroke-linejoin="round"/>
<path d="M109.987 94.2256C109.962 94.3774 109.885 94.5156 109.769 94.6161L109.577 94.9481L109.526 95.3386L109.358 95.405L109.327 95.5182C109.228 95.5633 109.14 95.6315 109.072 95.7171C109.005 95.8026 108.958 95.9032 108.937 96.0103C108.829 96.1732 108.683 96.3073 108.511 96.4008C108.465 96.4568 108.409 96.5044 108.347 96.5414L108.265 96.7172L108.097 96.764L107.625 97.053L106.992 97.1663L106.82 97.135L106.543 97.2092L106.422 97.0843C106.277 97.0295 106.145 96.9473 106.031 96.8421C105.948 96.8212 105.871 96.7794 105.808 96.7206C105.745 96.6619 105.698 96.5881 105.672 96.5063C105.495 96.3555 105.372 96.1513 105.32 95.9244V95.8658L105.176 95.651L105.137 95.612L105.008 95.2839L104.817 94.9364V94.5029L104.614 94.2686L104.243 92.6752C104.197 92.4973 104.169 92.3156 104.157 92.1324L104.114 92.0426L104.012 91.9176L103.852 92.148L103.208 92.8939L102.985 93.2845L102.876 93.5578L102.692 93.8702L102.552 94.0304L102.575 94.1202L102.345 94.7177L102.208 94.9129L102.021 94.9637L101.864 95.1394C101.887 95.254 101.865 95.3727 101.805 95.4724C101.744 95.572 101.648 95.6455 101.536 95.6784L101.501 95.7174C101.453 95.9284 101.331 96.1154 101.157 96.2446L101.001 96.518C100.74 96.7835 100.568 96.9515 100.486 97.0179C100.456 97.1428 100.391 97.2566 100.298 97.3459C100.261 97.4026 100.219 97.4562 100.173 97.506C100.15 97.7208 99.982 97.8965 99.6735 97.9864L99.4704 98.0528C99.3395 98.0466 99.2122 98.0077 99.1002 97.9394C98.9883 97.8712 98.8954 97.7758 98.83 97.6622L98.5214 97.2092L98.6074 96.7562L98.5371 96.5141L98.5722 96.475V96.229L98.3379 95.7916L98.4785 95.5573L98.3887 95.3191L98.5175 95.0496L98.5371 94.6161L98.4785 94.5419L98.5761 94.2764L98.5253 94.1475L98.4941 93.8468L98.5175 93.2805C98.4873 93.2033 98.4638 93.1236 98.4472 93.0423V92.89L98.3848 92.7455L98.4043 92.1402V91.9332V91.6364L98.3769 91.1288L98.6737 90.5469C98.9458 90.5631 99.2116 90.6349 99.4548 90.7578C99.5382 90.824 99.6044 90.9093 99.6479 91.0065C99.6914 91.1037 99.7109 91.2099 99.7047 91.3162V91.4841L99.8648 91.7028L99.8141 92.0934L99.9312 92.8393L99.818 93.2024L99.8961 93.593L99.9156 93.9093L99.7594 94.1241L99.9468 94.4521L99.8141 94.6669V94.8739L99.9351 95.077L99.8102 95.4675L99.7633 95.6354V95.8072L99.8687 95.9869L100.169 95.651C100.261 95.4219 100.361 95.1965 100.47 94.9754L100.408 94.9247L100.642 94.6864L100.693 94.6083V94.4365L100.978 94.1983L101.044 94.0069L101.204 93.882L101.892 93.0189C101.833 93.097 101.638 93.3391 101.31 93.7453V93.7843L101.337 93.6515L101.568 93.3547L101.716 93.0267V92.8393L101.989 92.7299L102.013 92.4839L102.087 92.4058V92.312V92.1793L102.333 91.902V91.8083C102.321 91.785 102.313 91.7599 102.31 91.7341C102.31 91.5115 102.415 91.3787 102.665 91.3435C102.703 91.2376 102.767 91.1432 102.852 91.0694C102.937 90.9955 103.039 90.9447 103.149 90.9218L103.251 90.746L103.286 90.707C103.4 90.5304 103.573 90.4003 103.774 90.3399L103.93 90.1251L104.379 90.0978L104.621 90.3477L104.832 90.4492L104.856 90.5039L104.989 90.5352L105.047 90.9257L105.375 91.0975L105.27 91.5154L105.5 91.9528L105.531 92.48L105.719 93.1829L105.793 93.8546L105.984 94.2451L106.125 94.7255C106.213 94.8107 106.277 94.9169 106.312 95.034L106.656 95.1082L106.676 95.4987L106.875 95.694V95.7526H106.949L107.031 95.8619L107.101 95.7643H107.195C107.333 95.7643 107.47 95.6341 107.605 95.3738L107.828 95.3113L107.878 95.2136C107.895 95.1603 107.922 95.111 107.96 95.0693C107.997 95.0275 108.042 94.9942 108.093 94.9715H108.222L108.296 94.8934V94.7958L108.347 94.7177C108.468 94.6206 108.548 94.4809 108.57 94.3271L108.765 94.0889L108.792 93.921L108.905 93.6125L109.253 93.4602L109.769 93.6008L109.968 94.1358C109.97 94.1496 109.976 94.1621 109.987 94.1709V94.2256Z" fill="#2F79CD"/>
<path d="M117.13 92.4722L117.036 92.8158C117.06 93.0756 117.06 93.3371 117.036 93.5969L116.935 93.7921V93.9991L116.849 94.1358L116.806 94.4013L116.614 94.6161L116.509 95.0926L116.361 95.159L116.298 95.3698L116.079 95.5104L115.947 95.8385L115.728 95.9634V96.1899L115.377 96.3422C115.246 96.5604 115.043 96.7251 114.802 96.807L114.728 96.8304C114.418 97.1097 114.042 97.3046 113.635 97.3967L113.451 97.5412L113.268 97.6075L113.037 97.8067H112.791L112.534 97.877L112.205 97.7638H111.397L111.092 97.3498L110.655 96.9593L110.733 96.6547L110.417 96.0337L110.495 95.7838L110.413 95.3386L110.456 95.0535L110.432 94.663C110.42 94.5673 110.428 94.4699 110.456 94.3776C110.484 94.2853 110.532 94.2001 110.597 94.128C110.636 93.907 110.71 93.6936 110.815 93.4953H110.909L110.846 93.3665L110.885 93.1009V92.8197C110.948 92.7493 111.001 92.6705 111.042 92.5854L110.971 92.3238V92.2496C111.049 92.0769 111.084 91.888 111.073 91.6989L111.436 91.1327C111.495 91.0819 111.538 91.0389 111.561 91.0155L111.538 90.9413H111.612L111.877 90.6054V90.172L112.338 89.9767C112.426 89.9069 112.499 89.8194 112.552 89.7199C112.604 89.6203 112.635 89.511 112.643 89.3987H112.885C112.995 89.3235 113.123 89.2778 113.256 89.266C113.367 89.2586 113.478 89.2773 113.58 89.3206H113.787L114.264 89.1058L114.537 89.3362L114.752 89.4573H114.9L115.193 89.594H115.341C115.554 89.7746 115.754 89.9704 115.939 90.1798L115.982 90.2696L116.115 90.3399L116.536 90.8241L116.927 91.6833V91.8707L117.13 92.4722ZM115.915 92.9837L115.892 92.89C115.807 92.8225 115.749 92.727 115.728 92.6206L115.779 92.5229L115.595 92.1636V91.8083L115.513 91.7184C115.345 91.6013 115.252 91.5076 115.236 91.4334C115.119 91.3904 115.056 91.2693 115.045 91.0702H114.931L114.685 90.707L114.51 90.5859L114.119 90.4571L113.967 90.4297C113.938 90.4346 113.908 90.4309 113.881 90.4191C113.854 90.4073 113.831 90.3879 113.814 90.3633L113.463 90.7929L113.248 91.3279L112.858 91.5544L112.815 91.7653L112.631 91.8668L112.584 92.355L112.366 92.48C112.325 92.6393 112.308 92.8038 112.315 92.9681L112.034 93.2649L112.127 93.3157C112.13 93.3888 112.116 93.4615 112.088 93.5289C112.06 93.5963 112.017 93.6568 111.963 93.7062C111.922 93.8392 111.872 93.9696 111.815 94.0967V94.2451V94.3193V94.5419L111.635 95.0574L111.678 95.1472L111.709 95.6705L111.647 95.9361L111.682 96.1939L111.862 96.4282L112.131 96.5063L112.225 96.5375H112.377L112.862 96.5102L112.928 96.3188H113.002C113.076 96.3188 113.119 96.3188 113.135 96.3657L113.299 96.2993L113.455 96.3501L113.686 96.1665L113.721 96.1079L113.889 96.0611C114.04 95.8572 114.246 95.7001 114.482 95.6081L114.513 95.5143L114.873 95.2293L115.064 94.9129L115.353 94.745V94.6513L115.439 94.4404V94.1983L115.65 93.9991L115.72 93.8624L115.806 93.7453C115.76 93.646 115.729 93.5408 115.712 93.4328C115.712 93.3057 115.744 93.1806 115.806 93.0697L115.915 92.9837Z" fill="#2F79CD"/>
<path d="M125.878 93.5969L125.682 94.171L125.854 94.5381L125.788 94.6552L125.729 94.9598L125.593 95.2293L125.518 95.2723V95.6315L125.183 95.6862C125.028 95.8489 124.853 95.9919 124.663 96.1119H124.55L124.273 96.2212L124.105 96.2525L123.757 96.4009L123.332 96.2369L123.273 96.2056L122.957 96.2408L123.035 96.272L122.504 96.229L122.043 96.3657L121.848 96.2095L121.457 96.2681L121.301 96.1627L121.152 96.19V96.3032C121.157 96.4178 121.144 96.5324 121.113 96.643L121.191 96.9984L121.09 97.1897L121.125 97.8107L121.094 98.2793L121.191 98.99L121.07 99.1853L121.16 99.4626L121.113 99.6539L121.23 99.7008V99.982V100.154C121.233 100.211 121.22 100.268 121.193 100.319C121.166 100.369 121.127 100.412 121.078 100.443L121.168 100.701L121.047 100.857L121.086 101.607C121.086 102.485 120.93 102.934 120.578 102.954C120.354 102.934 120.132 102.894 119.914 102.837L119.977 102.263L119.782 101.435L119.95 101.079L119.926 100.661L119.805 100.095L119.973 99.8844L119.821 99.4587L119.903 99.2283L119.786 98.8377L119.899 98.4941C119.869 98.417 119.821 98.3485 119.758 98.2949C119.692 98.2363 119.657 98.1934 119.657 98.1699C119.657 98.1465 119.68 98.0918 119.743 98.0528V97.8653C119.74 97.648 119.766 97.4313 119.821 97.221L119.696 97.0413L119.739 96.7953L119.579 96.6352L119.754 96.4165L119.633 95.8776L119.719 95.0965L119.575 94.8583L119.762 94.4912L119.543 94.296L119.637 93.9367L119.52 93.8468L119.54 93.5266L119.59 93.1361V93.0619V92.9838V92.7807V92.7026L119.477 92.4097L119.555 92.0856L119.446 91.8474L119.504 91.5623L119.426 91.492L119.461 91.1015L119.395 90.8984L119.422 90.707L119.356 90.5821L118.7 90.9179V90.8047L118.571 90.832L118.372 91.0312H118.2L117.993 91.3436L117.798 91.2772L117.716 91.4686C117.075 91.1444 116.751 90.871 116.739 90.6602C116.735 90.5868 116.747 90.5134 116.776 90.4457C116.804 90.3779 116.848 90.3177 116.903 90.2696L116.868 89.9924C117.156 89.7829 117.492 89.6486 117.845 89.6018L117.97 89.4613L118.555 89.184L118.68 89.0473H119.208L119.297 89.0043L119.43 88.3365L119.883 88.4068L120.211 88.8794L120.371 88.6997L120.723 88.9223C120.883 88.9144 121.044 88.9382 121.195 88.9926L121.301 89.1567L121.426 89.0903L121.582 89.1957C121.652 89.187 121.723 89.187 121.793 89.1957V89.309L122.183 89.1527L122.402 89.3675L122.765 89.4613L123.027 89.7463L123.492 90.0002L123.511 90.0392L123.874 90.1291V90.2423C123.979 90.315 124.061 90.415 124.113 90.5313L124.269 90.6172L124.394 90.8164H124.616L124.64 91.2069L124.776 91.328L124.823 91.4568L125.011 91.4842C125.042 91.7444 125.14 91.9921 125.296 92.2027V92.3355L125.495 92.5113L125.475 92.812L125.643 93.14L125.722 93.5305L125.878 93.5969ZM124.487 93.9562L124.464 93.8625V93.7883L124.331 93.4563L124.398 93.2845L124.312 93.14L124.284 92.9525L124.116 92.6597L124.031 92.4605L123.722 91.988L123.488 91.8122L123.339 91.4998L123.164 91.4373L122.843 91.0468L122.547 91.1015L122.304 90.8164L122.117 90.8632L121.972 90.625H121.898H121.637L121.453 90.7305L121.293 90.5899L121.109 90.6367L121.027 90.5118L120.688 90.4727V90.6992L120.707 91.0546L120.789 91.2577L121.051 91.4842L120.871 91.9489L120.906 92.2262L120.805 92.7963C120.854 93.0131 120.956 93.2144 121.102 93.3821L121.039 93.593C121.05 93.6018 121.057 93.6144 121.059 93.6282C121.059 93.6672 121.012 93.7258 120.918 93.8039L121.059 93.9679L120.977 94.1983L120.953 94.4443L121.024 94.7021V94.9481L121.414 94.9247C121.478 94.894 121.547 94.8767 121.617 94.8739C121.727 94.8683 121.835 94.9031 121.922 94.9716C121.948 94.9683 121.973 94.9604 121.996 94.9481H122.055C122.124 94.9516 122.193 94.9607 122.261 94.9755C122.322 94.9359 122.392 94.913 122.465 94.9091C122.563 94.9008 122.662 94.9211 122.75 94.9676H122.918L123.07 94.9989L123.46 94.8661L123.769 95.034C123.882 95.0653 123.929 95.0809 123.902 95.0848L124.241 94.6943V94.4326L124.335 94.3897L124.269 94.2413L124.394 94.0851L124.487 93.9562Z" fill="#2F79CD"/>
<path d="M133.348 94.4209C133.321 94.6443 133.212 94.8499 133.044 94.9989C133.001 95.185 132.914 95.3579 132.79 95.5027L132.68 95.53L132.493 95.8971L132.157 95.9713L131.813 96.2173L131.646 96.5649H131.439C131.332 96.6146 131.221 96.6539 131.107 96.682L131.005 96.8344H130.833C130.736 96.8511 130.645 96.8911 130.566 96.9509C130.488 97.0108 130.426 97.0887 130.384 97.178L130.111 96.9671H129.884C129.741 96.9785 129.598 96.9543 129.466 96.8968H129.15L128.994 96.8148C128.81 96.8198 128.628 96.7775 128.465 96.6921C128.303 96.6066 128.165 96.4808 128.064 96.3267V96.2681L127.834 96.1705L127.701 95.8619L127.471 95.7253V95.4441L127.197 94.6396L127.162 93.9718L127.256 93.6672L127.237 93.2767L127.311 92.976L127.287 92.8471L127.404 92.6167L127.369 92.6557C127.365 92.5305 127.39 92.4059 127.444 92.2926V92.1988L127.362 91.7536C127.357 91.6447 127.377 91.5362 127.421 91.4361C127.464 91.3361 127.529 91.2471 127.611 91.1757C127.619 91.1382 127.619 91.0998 127.611 91.0624C127.594 90.9585 127.566 90.8565 127.529 90.7578C127.488 90.6535 127.459 90.5447 127.444 90.4337C127.437 90.2705 127.467 90.1079 127.529 89.9572C127.58 90.0265 127.647 90.0814 127.725 90.1164C127.804 90.1513 127.889 90.1651 127.975 90.1564H128.029C128.068 90.0849 128.123 90.0234 128.189 89.9767C128.258 89.686 128.383 89.4114 128.557 89.1684L128.627 89.0863C128.645 88.9383 128.675 88.792 128.717 88.649H128.865L128.9 88.5552L129.045 88.5084C129.078 88.4447 129.116 88.3834 129.158 88.3248C129.283 88.2314 129.413 88.1454 129.548 88.0671C129.599 87.967 129.671 87.8791 129.759 87.8093C129.819 87.777 129.88 87.7484 129.943 87.7234L130.009 87.6063C130.211 87.516 130.422 87.4479 130.638 87.4032C130.736 87.3988 130.834 87.4189 130.923 87.4618L131.017 87.4383L131.154 87.5047C131.3 87.6054 131.455 87.6917 131.618 87.7625L131.95 87.989V88.0632C132.105 88.1734 132.229 88.3205 132.312 88.4909C132.395 88.6614 132.435 88.85 132.427 89.0395L132.384 89.2308L132.473 89.8479L132.309 89.9689L132.149 90.4649L131.817 90.8789V91.1835C131.48 91.4594 131.124 91.7112 130.751 91.9372C130.699 92.0266 130.624 92.1007 130.535 92.1521C130.445 92.2035 130.343 92.2304 130.24 92.2301H130.185L129.841 92.4761H129.541L129.103 92.6909L128.756 92.5425H128.717C128.692 92.6937 128.676 92.8463 128.67 92.9994L128.525 93.1205V93.347L128.432 93.675C128.475 93.9757 128.498 94.171 128.502 94.2569L128.443 94.3194C128.451 94.439 128.451 94.559 128.443 94.6787C128.446 94.6968 128.446 94.7152 128.443 94.7333V94.7919C128.446 94.8424 128.463 94.8912 128.492 94.9326C128.521 94.9741 128.561 95.0065 128.607 95.0262C128.617 95.0848 128.64 95.1403 128.675 95.1879C128.711 95.2355 128.757 95.2738 128.81 95.2996L128.947 95.405L129.365 95.4949V95.5534L129.517 95.5808L130.154 95.5456L130.525 95.4675L130.704 95.3308L130.825 95.2879L130.997 94.9989L131.087 94.9755L131.548 94.7997C131.602 94.7012 131.682 94.619 131.778 94.5615L131.829 94.4678C131.934 94.4539 132.031 94.4057 132.105 94.3308C132.179 94.2559 132.226 94.1585 132.239 94.0538C132.324 93.9626 132.426 93.8892 132.539 93.8382C132.652 93.7872 132.775 93.7596 132.899 93.757H132.973C133.169 93.9303 133.301 94.164 133.348 94.4209ZM131.193 89.1254C131.177 89.049 131.153 88.9744 131.122 88.9028H131.029H130.989H130.915C130.894 88.9181 130.868 88.9263 130.841 88.9262C130.823 88.9301 130.804 88.9301 130.786 88.9262H130.728L130.548 89.0668L130.38 89.0942L130.29 89.1371L129.994 89.5706L129.798 89.7307L129.525 90.2735L129.365 90.3946C129.341 90.5992 129.26 90.7929 129.131 90.9531L129.064 91.0858C129.2 90.9914 129.36 90.9373 129.525 90.9296L129.654 90.8671L129.701 90.6953H129.962L130.099 90.461H130.212L130.423 90.5274L130.501 90.2384H130.634V90.0353L130.872 89.965L130.927 89.9065L130.954 89.7346L131.177 89.3636C131.199 89.2861 131.204 89.205 131.193 89.1254Z" fill="#2F79CD"/>
<path d="M110.874 0.976318C110.651 2.73048 110.784 4.51149 111.264 6.21325" stroke="#2F79CD" stroke-width="1.95262" stroke-linecap="round" stroke-linejoin="round"/>
<path d="M130.544 14.508L135.406 11.1183" stroke="#2F79CD" stroke-width="1.95262" stroke-linecap="round" stroke-linejoin="round"/>
<path d="M135.848 32.1011L139.753 31.6246" stroke="#2F79CD" stroke-width="1.95262" stroke-linecap="round" stroke-linejoin="round"/>
<path d="M92.945 18.8779L90.3324 17.9954" stroke="#2F79CD" stroke-width="1.95262" stroke-linecap="round" stroke-linejoin="round"/>
<path d="M92.5936 32.062H89.5436" stroke="#2F79CD" stroke-width="1.95262" stroke-linecap="round" stroke-linejoin="round"/>
</g>
<defs>
<clipPath id="clip0">
<rect width="237.829" height="277.885" fill="white"/>
</clipPath>
</defs>
</svg>
