<svg width="330" height="286" viewBox="0 0 330 286" fill="none" xmlns="http://www.w3.org/2000/svg">
<g clip-path="url(#clip0)">
<path d="M319.023 108.992C319.023 156.375 288.778 196.701 246.436 211.599C240.163 208.35 234.45 205.662 229.298 203.422C227.393 179.786 221.68 138.676 199.725 118.737C188.188 108.208 167.801 111.792 164.776 112.352H164.664L162.088 104.063C174.746 102.607 174.746 96.8941 174.746 96.8941C174.746 96.8941 181.803 89.7251 183.371 81.5479L182.811 65.8656C182.811 65.8656 190.876 56.4562 190.428 46.0387C193.116 37.0774 183.035 23.9715 183.035 23.9715H173.625C168.361 17.3625 152.006 16.8024 152.006 16.8024C168.809 6.1609 188.748 0 210.143 0C270.296 0.224033 319.023 48.9511 319.023 108.992Z" fill="#F1F6FA"/>
<path d="M161.752 104.96C154.807 104.96 148.086 102.944 147.638 102.72C147.078 102.496 146.741 101.936 146.853 101.264C147.078 100.704 147.638 100.368 148.31 100.48C148.534 100.592 166.68 106.192 173.065 98.7994C173.625 98.1273 174.185 97.3432 174.634 96.5591C174.97 95.999 175.642 95.775 176.202 96.111C176.762 96.4471 176.986 97.1192 176.65 97.6792C176.09 98.6874 175.53 99.5835 174.858 100.368C171.721 103.84 166.568 104.96 161.752 104.96Z" fill="#2F79CD"/>
<path d="M118.513 135.65C118.177 135.65 117.953 135.538 117.729 135.314C117.281 134.866 117.281 134.194 117.729 133.745C127.699 123.776 136.884 112.238 135.764 96.22C134.42 77.1772 138.228 61.2709 147.189 47.717C155.591 35.1711 167.464 37.8595 172.617 41.108C173.177 41.444 173.289 42.1161 172.953 42.6762C172.617 43.2363 171.945 43.3483 171.385 43.0123C170.825 42.6762 158.279 35.0591 148.982 48.9491C140.244 62.055 136.66 77.5133 137.892 95.996C139.012 113.022 129.155 125.456 119.297 135.314C119.073 135.538 118.849 135.65 118.513 135.65Z" fill="#2F79CD"/>
<path d="M161.079 90.2854C157.943 90.2854 155.367 88.7172 154.134 87.373C153.686 86.925 153.686 86.2529 154.134 85.8048C154.582 85.3567 155.255 85.3567 155.703 85.8048C155.927 86.0288 160.183 90.0614 165.224 86.7009C165.784 86.3649 166.456 86.4769 166.792 87.037C167.128 87.5971 167.016 88.2692 166.456 88.6052C164.664 89.8374 162.76 90.2854 161.079 90.2854Z" fill="#2F79CD"/>
<path d="M165.56 81.3229C165 81.3229 164.664 81.3229 164.552 81.3229C163.88 81.3229 163.432 80.7628 163.544 80.0907C163.656 79.4186 164.104 78.9705 164.776 79.0826C166.232 79.1946 168.697 78.9705 169.593 78.1864C169.817 78.0744 169.817 77.8504 169.817 77.6263C169.817 77.2903 169.705 77.0663 169.481 76.8422C168.585 76.0581 166.568 75.8341 166.008 75.8341C165.448 75.8341 164.888 75.386 164.888 74.7139C164.888 74.0418 165.336 73.5938 166.008 73.5938C166.344 73.5938 169.481 73.5938 171.161 75.274C171.833 75.9461 172.169 76.7302 172.169 77.7384C172.169 78.6345 171.833 79.3066 171.161 79.9787C169.705 81.2109 167.017 81.3229 165.56 81.3229Z" fill="#2F79CD"/>
<path d="M167.465 70.681C168.269 70.681 168.921 69.7783 168.921 68.6647C168.921 67.5512 168.269 66.6484 167.465 66.6484C166.66 66.6484 166.008 67.5512 166.008 68.6647C166.008 69.7783 166.66 70.681 167.465 70.681Z" fill="#2F79CD"/>
<path d="M150.326 72.3619C148.31 72.3619 146.742 70.9057 146.63 70.6816C146.181 70.2336 146.181 69.5615 146.63 69.1134C147.078 68.6653 147.75 68.6653 148.198 69.1134C148.534 69.4494 149.542 70.1215 150.438 70.1215C150.998 70.1215 151.558 69.7855 152.006 69.2254C152.454 68.7773 153.126 68.6653 153.575 69.1134C154.023 69.5615 154.135 70.2336 153.687 70.6816C152.566 72.0258 151.334 72.3619 150.438 72.3619C150.438 72.3619 150.438 72.3619 150.326 72.3619Z" fill="#2F79CD"/>
<path d="M201.629 108.992C175.53 108.992 154.247 87.7093 154.247 61.6095C154.247 35.5097 175.53 14.2266 201.629 14.2266C227.729 14.2266 249.012 35.5097 249.012 61.6095C249.012 87.7093 227.729 108.992 201.629 108.992ZM201.629 20.8355C179.226 20.8355 160.968 39.0942 160.968 61.4974C160.968 83.9007 179.226 102.159 201.629 102.159C224.033 102.159 242.291 83.9007 242.291 61.4974C242.291 39.0942 224.033 20.8355 201.629 20.8355Z" fill="#2F79CD"/>
<path d="M227.393 146.405C226.945 146.405 226.497 146.069 226.273 145.621L213.727 105.967C213.503 105.407 213.839 104.735 214.511 104.511C215.072 104.286 215.744 104.623 215.968 105.295L228.513 144.948C228.737 145.509 228.401 146.181 227.729 146.405C227.617 146.405 227.505 146.405 227.393 146.405Z" fill="#2F79CD"/>
<path d="M165.896 116.945C165.448 116.945 165 116.609 164.776 116.16L160.968 104.511C160.744 103.951 161.08 103.279 161.64 103.055C162.2 102.831 162.872 103.167 163.096 103.727L166.904 115.376C167.129 115.936 166.792 116.609 166.232 116.833C166.12 116.945 166.008 116.945 165.896 116.945Z" fill="#2F79CD"/>
<path d="M258.87 150.438C258.534 150.438 258.198 150.326 257.974 149.989C254.053 144.837 248.34 142.372 244.644 141.812C243.748 141.7 242.627 141.588 241.507 141.476C240.835 141.476 240.387 140.916 240.499 140.244C240.499 139.572 241.059 139.124 241.731 139.236C242.963 139.348 244.084 139.46 245.092 139.572C249.236 140.244 255.509 142.932 259.878 148.645C260.214 149.093 260.102 149.877 259.654 150.213C259.318 150.326 259.094 150.438 258.87 150.438Z" fill="#2F79CD"/>
<path d="M25.0917 198.717C24.4196 198.717 23.7475 198.717 23.1874 198.717C13.666 198.269 7.3931 193.452 6.04891 185.723C5.15278 180.57 5.82487 176.314 8.28923 173.177C10.4175 170.265 13.442 169.033 15.3463 168.473C12.5459 164.216 5.15278 151.222 8.62528 136.212C10.7536 127.027 14.4501 119.298 19.6029 113.361C33.941 96.8943 55.7841 98.0145 61.385 98.6866C61.385 96.3342 61.385 91.0695 61.945 84.7965C62.8412 75.1631 65.4175 61.9452 71.9145 54.1041C82.332 41.5583 98.9104 48.1672 103.391 50.2955C105.519 45.1428 114.705 25.2039 134.532 18.4829C146.629 14.3383 164.888 14.6743 176.426 25.2039C176.874 25.6519 176.874 26.324 176.538 26.7721C176.09 27.2202 175.418 27.2202 174.969 26.8841C164.104 17.0267 146.741 16.6906 135.316 20.6112C114.033 27.8923 105.183 51.9758 105.071 52.1998C104.959 52.5359 104.735 52.7599 104.399 52.8719C104.175 52.8719 103.839 52.8719 103.503 52.7599C102.719 52.3118 84.5723 42.4544 73.7067 55.4483C67.5459 62.8414 65.0815 75.6112 64.1854 84.9086C63.4012 93.1978 63.6253 99.8067 63.6253 99.8067C63.6253 100.143 63.5133 100.479 63.2892 100.703C63.0652 100.927 62.7292 101.039 62.3931 100.927C62.1691 100.927 36.9654 96.6703 21.2831 114.705C16.3544 120.418 12.7699 127.811 10.7536 136.548C6.94504 153.463 18.0347 168.249 18.1467 168.361C18.3707 168.697 18.4827 169.145 18.2587 169.481C18.1467 169.817 17.8106 170.153 17.3626 170.153C17.3626 170.153 12.7699 170.713 10.0815 174.41C8.0652 177.098 7.50512 180.682 8.28923 185.163C9.85746 194.236 18.4827 196.029 23.4114 196.253C35.9573 196.925 52.9837 189.308 56.1202 178.666C56.3442 178.106 56.9043 177.77 57.4644 177.882C58.0245 178.106 58.3605 178.666 58.2485 179.226C55.4481 188.86 40.998 198.717 25.0917 198.717Z" fill="#2F79CD"/>
<path d="M229.857 60.9381C229.185 60.9381 228.737 60.49 228.737 59.818C228.737 45.4799 217.088 33.8302 202.75 33.8302C202.077 33.8302 201.629 33.3821 201.629 32.71C201.629 32.0379 202.077 31.5898 202.75 31.5898C218.32 31.5898 230.978 44.2477 230.978 59.818C230.978 60.378 230.53 60.9381 229.857 60.9381Z" fill="#2F79CD"/>
<path d="M228.065 71.0195C229.117 71.0195 229.969 70.1669 229.969 69.1152C229.969 68.0635 229.117 67.2109 228.065 67.2109C227.013 67.2109 226.161 68.0635 226.161 69.1152C226.161 70.1669 227.013 71.0195 228.065 71.0195Z" fill="#2F79CD"/>
<path d="M216.415 222.465C217.467 222.465 218.32 221.612 218.32 220.561C218.32 219.509 217.467 218.656 216.415 218.656C215.364 218.656 214.511 219.509 214.511 220.561C214.511 221.612 215.364 222.465 216.415 222.465Z" fill="#2F79CD"/>
<path d="M267.271 252.598C268.323 252.598 269.175 251.745 269.175 250.693C269.175 249.642 268.323 248.789 267.271 248.789C266.219 248.789 265.367 249.642 265.367 250.693C265.367 251.745 266.219 252.598 267.271 252.598Z" fill="#2F79CD"/>
<path d="M211.599 256.406C212.65 256.406 213.503 255.554 213.503 254.502C213.503 253.45 212.65 252.598 211.599 252.598C210.547 252.598 209.694 253.45 209.694 254.502C209.694 255.554 210.547 256.406 211.599 256.406Z" fill="#2F79CD"/>
<path d="M168.809 268.727C169.86 268.727 170.713 267.874 170.713 266.822C170.713 265.771 169.86 264.918 168.809 264.918C167.757 264.918 166.904 265.771 166.904 266.822C166.904 267.874 167.757 268.727 168.809 268.727Z" fill="#2F79CD"/>
<path d="M145.957 248.898C147.009 248.898 147.861 248.046 147.861 246.994C147.861 245.942 147.009 245.09 145.957 245.09C144.905 245.09 144.053 245.942 144.053 246.994C144.053 248.046 144.905 248.898 145.957 248.898Z" fill="#2F79CD"/>
<path d="M172.057 224.816C173.109 224.816 173.961 223.964 173.961 222.912C173.961 221.86 173.109 221.008 172.057 221.008C171.005 221.008 170.153 221.86 170.153 222.912C170.153 223.964 171.005 224.816 172.057 224.816Z" fill="#2F79CD"/>
<path d="M238.146 158.278L238.819 153.35H228.849" fill="#FAF9F7"/>
<path d="M238.147 159.398H238.035C237.475 159.286 237.026 158.725 237.138 158.165L237.699 154.469H229.073C228.401 154.469 227.953 154.021 227.953 153.349C227.953 152.677 228.401 152.229 229.073 152.229H239.043C239.379 152.229 239.715 152.341 239.939 152.565C240.163 152.789 240.275 153.125 240.163 153.461L239.491 158.501C239.155 159.062 238.707 159.398 238.147 159.398Z" fill="#2F79CD"/>
<path d="M230.866 161.303C228.625 161.303 226.833 163.095 226.833 165.335C226.833 167.576 228.625 169.368 230.866 169.368H236.691H232.882C230.642 169.368 228.849 171.16 228.849 173.401C228.849 175.641 230.642 177.433 232.882 177.433H239.827V184.042L260.774 183.034C260.774 183.034 259.99 165.895 256.518 158.278C253.045 150.661 245.54 146.741 240.499 145.957C235.794 145.284 228.849 145.508 228.849 145.508C226.609 145.508 224.817 147.301 224.817 149.541C224.817 151.781 226.609 153.574 228.849 153.574C226.609 153.574 224.817 155.366 224.817 157.606C224.817 159.847 226.609 161.639 228.849 161.639H229.858H237.699" fill="#FAF9F7"/>
<path d="M239.827 184.938C239.491 184.938 239.267 184.826 239.043 184.602C238.819 184.378 238.707 184.042 238.707 183.818V178.329H232.882C230.082 178.329 227.729 176.089 227.729 173.176C227.729 171.944 228.177 170.824 228.85 169.928C226.945 169.144 225.713 167.351 225.713 165.223C225.713 163.991 226.161 162.871 226.833 161.975C224.929 161.191 223.697 159.398 223.697 157.27C223.697 155.702 224.481 154.246 225.601 153.237C224.481 152.341 223.697 150.885 223.697 149.205C223.697 146.404 225.937 144.052 228.85 144.052C229.074 144.052 235.907 143.716 240.611 144.5C246.436 145.396 253.941 149.765 257.414 157.382C260.998 165.111 261.782 181.802 261.782 182.586C261.782 183.146 261.334 183.706 260.774 183.706L239.827 184.938ZM232.882 170.376C231.314 170.376 229.97 171.608 229.97 173.288C229.97 174.857 231.202 176.201 232.882 176.201H239.827C240.163 176.201 240.387 176.313 240.611 176.537C240.835 176.761 240.947 176.985 240.947 177.321V182.698L259.542 181.802C259.318 177.881 258.31 164.887 255.397 158.614C252.261 151.781 245.428 147.749 240.275 146.964C235.795 146.292 228.962 146.516 228.85 146.628C227.169 146.628 225.937 147.861 225.937 149.541C225.937 151.109 227.169 152.453 228.85 152.453C229.522 152.453 229.97 152.901 229.97 153.573C229.97 154.246 229.522 154.694 228.85 154.694C227.281 154.694 225.937 155.926 225.937 157.606C225.937 159.174 227.169 160.518 228.85 160.518H237.699C238.371 160.518 238.819 160.967 238.819 161.639C238.819 162.311 238.371 162.759 237.699 162.759H230.866C229.298 162.759 227.953 163.991 227.953 165.671C227.953 167.351 229.186 168.584 230.866 168.584H236.691C237.363 168.584 237.811 169.032 237.811 169.704C237.811 170.376 237.363 170.824 236.691 170.824H232.882V170.376Z" fill="#2F79CD"/>
<path d="M228.849 154.47C228.289 154.47 227.729 154.021 227.729 153.349C227.729 152.677 228.177 152.229 228.849 152.229L237.25 152.117C237.81 152.117 238.371 152.565 238.371 153.237C238.371 153.909 237.922 154.358 237.25 154.358L228.849 154.47Z" fill="#2F79CD"/>
<path d="M201.629 108.992C175.53 108.992 154.247 87.7093 154.247 61.6095C154.247 35.5097 175.53 14.2266 201.629 14.2266C227.729 14.2266 249.012 35.5097 249.012 61.6095C249.012 87.7093 227.729 108.992 201.629 108.992ZM201.629 20.8355C179.226 20.8355 160.968 39.0942 160.968 61.4974C160.968 83.9007 179.226 102.159 201.629 102.159C224.033 102.159 242.291 83.9007 242.291 61.4974C242.291 39.0942 224.033 20.8355 201.629 20.8355Z" fill="#2F79CD"/>
<path d="M179.45 98.2365C179.226 98.2365 179.114 98.2365 178.89 98.1245C178.33 97.7884 178.106 97.1163 178.442 96.5563C183.931 86.2508 184.043 65.1917 175.866 54.3261C175.53 53.8781 175.642 53.0939 176.09 52.7579C176.538 52.4218 177.322 52.5339 177.658 52.9819C186.283 64.4076 186.171 86.8108 180.458 97.5644C180.234 98.0125 179.898 98.2365 179.45 98.2365Z" fill="#2F79CD"/>
<path d="M182.81 67.21C182.586 67.21 182.25 67.098 182.138 66.986C181.69 66.5379 181.578 65.8658 182.026 65.4177C182.138 65.3057 195.132 49.1754 186.283 32.3729C184.715 29.3485 182.586 26.6601 180.122 24.4198C179.674 23.9717 179.674 23.2996 180.01 22.8516C180.458 22.4035 181.13 22.4035 181.578 22.7395C184.267 25.0919 186.507 28.0043 188.187 31.2528C197.821 49.3994 183.819 66.6499 183.707 66.7619C183.483 67.098 183.147 67.21 182.81 67.21Z" fill="#2F79CD"/>
<path d="M105.071 182.921C104.959 182.921 104.847 182.921 104.735 182.809C104.175 182.585 103.839 181.913 104.063 181.353C106.528 174.408 104.063 167.127 104.063 167.015C103.839 166.455 104.175 165.782 104.735 165.558C105.296 165.334 105.968 165.67 106.192 166.231C106.304 166.567 108.992 174.408 106.192 182.025C105.968 182.585 105.52 182.921 105.071 182.921Z" fill="#FAF9F7"/>
<path d="M328.88 264.246C328.768 264.246 328.768 264.246 328.88 264.246C304.124 262.678 292.811 254.052 281.945 245.651C277.128 241.955 272.088 238.034 265.927 234.898C254.277 228.849 239.155 227.841 218.432 231.537C214.623 232.209 210.815 232.769 207.118 233.329C205.55 233.553 203.982 233.665 202.078 233.889C169.481 237.026 155.927 228.513 140.133 218.655C131.507 213.278 122.658 207.79 109.664 203.421C82.2201 194.348 64.4095 208.798 54.3281 222.464C52.5358 224.816 51.0796 227.056 49.6234 229.185C45.8148 234.673 42.9024 239.042 37.7497 243.187C17.3627 259.541 0.560263 248.003 0.448247 247.891C0.000181464 247.555 -0.223851 246.883 0.224214 246.323C0.560263 245.763 1.23236 245.651 1.79244 246.099C2.46454 246.547 17.3627 256.853 36.4055 241.506C41.2222 237.586 44.1346 233.329 47.8311 227.953C49.2873 225.824 50.7436 223.584 52.5358 221.232C63.0654 206.893 81.6601 191.883 110.336 201.405C123.554 205.773 132.515 211.374 141.253 216.863C156.711 226.496 170.041 234.786 201.854 231.761C203.758 231.537 205.326 231.425 206.782 231.201C210.367 230.753 214.175 230.193 217.984 229.521C239.155 225.712 254.725 226.832 266.823 233.105C273.208 236.354 278.249 240.274 283.177 244.083C294.267 252.596 304.684 260.661 328.768 262.23C329.44 262.23 329.888 262.79 329.776 263.462C329.888 263.798 329.44 264.246 328.88 264.246Z" fill="#2F79CD"/>
<path d="M266.375 183.257C266.375 182.473 265.815 181.801 265.031 181.801H234.674C234.674 181.913 234.674 182.025 234.674 182.137L222.688 218.43C222.576 218.878 222.128 219.215 221.68 219.215C221.568 219.215 221.456 219.214 221.344 219.102C220.784 218.878 220.448 218.318 220.672 217.646L230.081 189.082C229.969 188.41 229.857 187.738 229.745 187.066C225.153 162.758 215.967 133.298 199.949 118.736C187.515 107.422 164.664 112.463 164.664 112.463C164.664 112.463 164.44 131.842 143.717 129.601C131.059 128.257 128.483 124.225 119.297 117.504C111.68 111.903 85.9166 105.07 65.1936 130.834C57.2404 140.803 50.2954 187.402 53.5439 221.791C65.4176 205.661 83.7883 193.675 110.112 202.3C146.965 214.51 152.23 237.473 202.077 232.656L201.293 233.889C203.31 233.441 205.214 232.768 207.006 232.096C210.591 231.648 214.287 231.088 218.208 230.304C241.059 226.16 255.621 228.176 266.375 233.777V183.257ZM186.731 190.986C186.619 190.986 186.507 190.986 186.395 190.986C185.947 190.986 185.499 190.65 185.275 190.202L179.338 169.479C179.114 168.919 179.562 168.247 180.122 168.135C180.682 168.023 181.354 168.359 181.466 168.919L187.403 189.642C187.627 190.202 187.291 190.874 186.731 190.986Z" fill="#2F79CD"/>
<path d="M328.88 286.201H1.12016C0.448065 286.201 0 285.753 0 285.081C0 284.409 0.448065 283.961 1.12016 283.961H328.88C329.552 283.961 330 284.409 330 285.081C330 285.753 329.44 286.201 328.88 286.201Z" fill="#2F79CD"/>
<path d="M87 284.223L86.9335 260.583C86.9335 255.677 82.9094 251.551 77.8792 251.551H70.0544C65.136 251.551 61 247.537 61 242.519V202.265C61 197.358 65.0242 193.232 70.0544 193.232C75.0846 193.232 79.1088 197.247 79.1088 202.265V231.48C79.1088 234.156 81.3444 236.386 84.0272 236.386C86.71 236.386 88.9456 234.156 88.9456 231.48V168.255C88.9456 163.348 92.9698 159.223 98 159.223C103.03 159.223 107.054 163.237 107.054 168.255V217.987C107.054 220.663 109.29 222.893 111.973 222.893C114.656 222.893 116.891 220.663 116.891 217.987V184.535C116.891 179.629 120.915 175.503 125.946 175.503C130.976 175.503 135 179.517 135 184.535V243.299C135 248.206 130.976 252.331 125.946 252.331H116.332C111.414 252.331 107.278 256.346 107.278 261.364L107 284.223" fill="#F1F6FA"/>
<path d="M107.536 286.201C106.864 286.201 106.416 285.753 106.416 285.081V262.118C106.416 256.517 111.008 252.036 116.609 252.036H126.019C130.387 252.036 133.972 248.452 133.972 244.083V185.05C133.972 180.682 130.387 177.209 126.019 177.209C121.65 177.209 118.065 180.794 118.065 185.05V218.879C118.065 222.24 115.377 224.928 112.016 224.928C108.656 224.928 105.968 222.24 105.968 218.879V168.92C105.968 164.551 102.383 160.967 98.0144 160.967C93.6458 160.967 90.0613 164.551 90.0613 168.92V232.433C90.0613 235.794 87.3729 238.482 84.0124 238.482C80.6519 238.482 77.9635 235.794 77.9635 232.433V203.085C77.9635 198.716 74.379 195.244 70.0104 195.244C65.6417 195.244 62.0572 198.828 62.0572 203.085V243.523C62.0572 247.892 65.6417 251.364 70.0104 251.364H77.8515C83.4523 251.364 88.045 255.957 88.045 261.558V285.193C88.045 285.865 87.5969 286.313 86.9248 286.313C86.2527 286.313 85.8047 285.865 85.8047 285.193V261.558C85.8047 257.189 82.2201 253.604 77.8515 253.604H70.0104C64.4096 253.604 59.8169 249.012 59.8169 243.523V203.085C59.8169 197.484 64.4096 193.004 70.0104 193.004C75.6112 193.004 80.2039 197.596 80.2039 203.085V232.433C80.2039 234.562 81.8841 236.242 84.0124 236.242C86.1407 236.242 87.821 234.562 87.821 232.433V168.92C87.821 163.319 92.4136 158.727 98.0144 158.727C103.615 158.727 108.208 163.319 108.208 168.92V218.879C108.208 221.008 109.888 222.688 112.016 222.688C114.145 222.688 115.825 221.008 115.825 218.879V185.05C115.825 179.45 120.418 174.969 126.019 174.969C131.619 174.969 136.212 179.562 136.212 185.05V244.083C136.212 249.684 131.619 254.276 126.019 254.276H116.497C112.128 254.276 108.544 257.861 108.544 262.118V285.081C108.656 285.641 108.096 286.201 107.536 286.201Z" fill="#2F79CD"/>
</g>
<defs>
<clipPath id="clip0">
<rect width="330" height="286" fill="white"/>
</clipPath>
</defs>
</svg>
