<svg width="24" height="32" viewBox="0 0 24 32" fill="none" xmlns="http://www.w3.org/2000/svg">
<path d="M20.487 3.28258C18.2204 1.16588 15.2066 0 12.0012 0C8.79525 0 5.78203 1.16588 3.51539 3.28258C-0.679337 7.19923 -1.20063 14.5685 2.38645 19.0333L12.0012 32L21.6016 19.0514C25.2031 14.5685 24.6818 7.19923 20.487 3.28258Z" fill="#107C10"/>
<circle cx="12" cy="12" r="10" fill="white"/>
<path d="M17.0625 7.5C17.1914 7.5 17.3125 7.52539 17.4258 7.57617C17.5391 7.62305 17.6387 7.68945 17.7246 7.77539C17.8105 7.86133 17.877 7.96094 17.9238 8.07422C17.9746 8.1875 18 8.30859 18 8.4375V14.8125C18 14.9414 17.9746 15.0625 17.9238 15.1758C17.877 15.2891 17.8105 15.3887 17.7246 15.4746C17.6387 15.5605 17.5391 15.6289 17.4258 15.6797C17.3125 15.7266 17.1914 15.75 17.0625 15.75H6.9375C6.80859 15.75 6.6875 15.7266 6.57422 15.6797C6.46094 15.6289 6.36133 15.5605 6.27539 15.4746C6.18945 15.3887 6.12109 15.2891 6.07031 15.1758C6.02344 15.0625 6 14.9414 6 14.8125V8.4375C6 8.30859 6.02344 8.1875 6.07031 8.07422C6.12109 7.96094 6.18945 7.86133 6.27539 7.77539C6.36133 7.68945 6.46094 7.62305 6.57422 7.57617C6.6875 7.52539 6.80859 7.5 6.9375 7.5H17.0625ZM6.9375 8.25C6.88281 8.25 6.83789 8.26758 6.80273 8.30273C6.76758 8.33789 6.75 8.38281 6.75 8.4375V9.75H17.25V8.4375C17.25 8.38281 17.2324 8.33789 17.1973 8.30273C17.1621 8.26758 17.1172 8.25 17.0625 8.25H6.9375ZM17.0625 15C17.1172 15 17.1621 14.9824 17.1973 14.9473C17.2324 14.9121 17.25 14.8672 17.25 14.8125V10.5H6.75V14.8125C6.75 14.8672 6.76758 14.9121 6.80273 14.9473C6.83789 14.9824 6.88281 15 6.9375 15H17.0625ZM14.25 12.75H15.75V13.5H14.25V12.75Z" fill="#107C10"/>
</svg>
