<svg width="24" height="32" viewBox="0 0 24 32" fill="none" xmlns="http://www.w3.org/2000/svg">
<path d="M20.487 3.28258C18.2204 1.16588 15.2066 0 12.0012 0C8.79525 0 5.78203 1.16588 3.51539 3.28258C-0.679337 7.19923 -1.20063 14.5685 2.38645 19.0333L12.0012 32L21.6016 19.0514C25.2031 14.5685 24.6818 7.19923 20.487 3.28258Z" fill="#106EBE"/>
<circle cx="12" cy="12" r="10" fill="white"/>
<path d="M13.5 14.3848C13.6484 14.4043 13.8242 14.4355 14.0273 14.4785C14.2344 14.5176 14.4492 14.5703 14.6719 14.6367C14.8945 14.6992 15.1152 14.7754 15.334 14.8652C15.5527 14.9551 15.748 15.0625 15.9199 15.1875C16.0918 15.3086 16.2305 15.4473 16.3359 15.6035C16.4453 15.7559 16.5 15.9297 16.5 16.125C16.5 16.3203 16.4453 16.4941 16.3359 16.6465C16.2305 16.7988 16.0977 16.9336 15.9375 17.0508C15.7812 17.1641 15.6113 17.2617 15.4277 17.3438C15.2441 17.4258 15.0762 17.4922 14.9238 17.543C14.6738 17.6289 14.4102 17.7012 14.1328 17.7598C13.8594 17.8184 13.5801 17.8652 13.2949 17.9004C13.0098 17.9355 12.7246 17.9609 12.4395 17.9766C12.1582 17.9922 11.8867 18 11.625 18C11.3594 18 11.0859 17.9922 10.8047 17.9766C10.5234 17.9609 10.2402 17.9355 9.95508 17.9004C9.66992 17.8652 9.38867 17.8184 9.11133 17.7598C8.83789 17.7012 8.57617 17.6289 8.32617 17.543C8.17383 17.4922 8.00586 17.4258 7.82227 17.3438C7.63867 17.2617 7.4668 17.1641 7.30664 17.0508C7.15039 16.9336 7.01758 16.7988 6.9082 16.6465C6.80273 16.4941 6.75 16.3203 6.75 16.125C6.75 15.9297 6.80273 15.7559 6.9082 15.6035C7.01758 15.4473 7.1582 15.3086 7.33008 15.1875C7.50195 15.0625 7.69727 14.9551 7.91602 14.8652C8.13477 14.7754 8.35547 14.6992 8.57812 14.6367C8.80078 14.5703 9.01367 14.5176 9.2168 14.4785C9.42383 14.4395 9.60156 14.4082 9.75 14.3848V13.4355C9.63672 13.3965 9.5332 13.3418 9.43945 13.2715C9.34961 13.2012 9.27148 13.1191 9.20508 13.0254C9.13867 12.9316 9.08789 12.8301 9.05273 12.7207C9.01758 12.6074 9 12.4922 9 12.375V9.375C9 9.21875 9.0293 9.07227 9.08789 8.93555C9.14648 8.79883 9.22656 8.67969 9.32812 8.57812C9.42969 8.47656 9.54883 8.39648 9.68555 8.33789C9.82227 8.2793 9.96875 8.25 10.125 8.25H10.3242C10.1914 8.01562 10.125 7.76562 10.125 7.5C10.125 7.29297 10.1641 7.09961 10.2422 6.91992C10.3203 6.73633 10.4277 6.57617 10.5645 6.43945C10.7012 6.30273 10.8594 6.19531 11.0391 6.11719C11.2227 6.03906 11.418 6 11.625 6C11.832 6 12.0254 6.03906 12.2051 6.11719C12.3887 6.19531 12.5488 6.30273 12.6855 6.43945C12.8223 6.57617 12.9297 6.73633 13.0078 6.91992C13.0859 7.09961 13.125 7.29297 13.125 7.5C13.125 7.76562 13.0586 8.01562 12.9258 8.25H13.125C13.2812 8.25 13.4277 8.2793 13.5645 8.33789C13.7012 8.39648 13.8203 8.47656 13.9219 8.57812C14.0234 8.67969 14.1035 8.79883 14.1621 8.93555C14.2207 9.07227 14.25 9.21875 14.25 9.375V12.375C14.25 12.4922 14.2324 12.6074 14.1973 12.7207C14.1621 12.8301 14.1113 12.9316 14.0449 13.0254C13.9785 13.1191 13.8984 13.2012 13.8047 13.2715C13.7148 13.3418 13.6133 13.3965 13.5 13.4355V14.3848ZM10.875 7.5C10.875 7.60547 10.8945 7.70312 10.9336 7.79297C10.9727 7.88281 11.0254 7.96289 11.0918 8.0332C11.1621 8.09961 11.2422 8.15234 11.332 8.19141C11.4219 8.23047 11.5195 8.25 11.625 8.25C11.7305 8.25 11.8281 8.23047 11.918 8.19141C12.0078 8.15234 12.0859 8.09961 12.1523 8.0332C12.2227 7.96289 12.2773 7.88281 12.3164 7.79297C12.3555 7.70312 12.375 7.60547 12.375 7.5C12.375 7.39453 12.3555 7.29688 12.3164 7.20703C12.2773 7.11719 12.2227 7.03906 12.1523 6.97266C12.0859 6.90234 12.0078 6.84766 11.918 6.80859C11.8281 6.76953 11.7305 6.75 11.625 6.75C11.5195 6.75 11.4219 6.76953 11.332 6.80859C11.2422 6.84766 11.1621 6.90234 11.0918 6.97266C11.0254 7.03906 10.9727 7.11719 10.9336 7.20703C10.8945 7.29688 10.875 7.39453 10.875 7.5ZM11.625 17.25C11.793 17.25 11.9883 17.2461 12.2109 17.2383C12.4336 17.2266 12.666 17.209 12.9082 17.1855C13.1543 17.1582 13.4043 17.125 13.6582 17.0859C13.9121 17.043 14.1562 16.9902 14.3906 16.9277C14.625 16.8652 14.8398 16.793 15.0352 16.7109C15.2344 16.625 15.4023 16.5254 15.5391 16.4121C15.5781 16.3809 15.623 16.3398 15.6738 16.2891C15.7246 16.2344 15.75 16.1797 15.75 16.125C15.75 16.0703 15.7246 16.0156 15.6738 15.9609C15.623 15.9062 15.5625 15.8555 15.4922 15.8086C15.4258 15.7578 15.3574 15.7148 15.2871 15.6797C15.2168 15.6406 15.1621 15.6113 15.123 15.5918C14.873 15.4746 14.6074 15.3809 14.3262 15.3105C14.0488 15.2402 13.7734 15.1836 13.5 15.1406V16.125C13.5 16.1719 13.4668 16.2129 13.4004 16.248C13.334 16.2832 13.2578 16.3125 13.1719 16.3359C13.0859 16.3594 13.002 16.3789 12.9199 16.3945C12.8379 16.4102 12.7812 16.4199 12.75 16.4238V12.75C12.8203 12.75 12.8984 12.752 12.9844 12.7559C13.0742 12.7559 13.1562 12.7461 13.2305 12.7266C13.3086 12.707 13.373 12.6719 13.4238 12.6211C13.4746 12.5664 13.5 12.4844 13.5 12.375V9.375C13.5 9.27344 13.4629 9.18555 13.3887 9.11133C13.3145 9.03711 13.2266 9 13.125 9H10.125C10.0234 9 9.93555 9.03711 9.86133 9.11133C9.78711 9.18555 9.75 9.27344 9.75 9.375V12.375C9.75 12.4844 9.77539 12.5664 9.82617 12.6211C9.87695 12.6719 9.93945 12.707 10.0137 12.7266C10.0918 12.7461 10.1738 12.7559 10.2598 12.7559C10.3496 12.752 10.4297 12.75 10.5 12.75V16.4238C10.4688 16.4199 10.4121 16.4102 10.3301 16.3945C10.248 16.3789 10.1641 16.3594 10.0781 16.3359C9.99219 16.3125 9.91602 16.2832 9.84961 16.248C9.7832 16.2129 9.75 16.1719 9.75 16.125V15.1406C9.47656 15.1836 9.19922 15.2402 8.91797 15.3105C8.64062 15.3809 8.37695 15.4746 8.12695 15.5918C8.08789 15.6113 8.0332 15.6406 7.96289 15.6797C7.89258 15.7148 7.82227 15.7578 7.75195 15.8086C7.68555 15.8555 7.62695 15.9062 7.57617 15.9609C7.52539 16.0156 7.5 16.0703 7.5 16.125C7.5 16.1797 7.52539 16.2344 7.57617 16.2891C7.62695 16.3398 7.67188 16.3809 7.71094 16.4121C7.84375 16.5254 8.00977 16.625 8.20898 16.7109C8.4082 16.793 8.625 16.8652 8.85938 16.9277C9.09375 16.9902 9.33789 17.043 9.5918 17.0859C9.8457 17.125 10.0938 17.1582 10.3359 17.1855C10.582 17.209 10.8164 17.2266 11.0391 17.2383C11.2617 17.2461 11.457 17.25 11.625 17.25ZM11.25 12.75H12V16.4941C11.9375 16.498 11.875 16.5 11.8125 16.5C11.75 16.5 11.6875 16.5 11.625 16.5C11.5625 16.5 11.5 16.5 11.4375 16.5C11.375 16.5 11.3125 16.498 11.25 16.4941V12.75Z" fill="#106EBE"/>
</svg>
