<svg width="24" height="32" viewBox="0 0 24 32" fill="none" xmlns="http://www.w3.org/2000/svg">
<path d="M20.487 3.28258C18.2204 1.16588 15.2066 0 12.0012 0C8.79525 0 5.78203 1.16588 3.51539 3.28258C-0.679337 7.19923 -1.20063 14.5685 2.38645 19.0333L12.0012 32L21.6016 19.0514C25.2031 14.5685 24.6818 7.19923 20.487 3.28258Z" fill="#D83B01"/>
<circle cx="12" cy="12" r="10" fill="white"/>
<path d="M11.625 6.70312L16.5 9.14062V15.2344L11.625 17.666L6.75 15.2344V9.14062L11.625 6.70312ZM15.2871 9.375L11.625 7.54688L10.2129 8.25L13.8516 10.0898L15.2871 9.375ZM11.625 11.2031L13.0195 10.5117L9.375 8.67188L7.96289 9.375L11.625 11.2031ZM7.5 9.98438V14.7656L11.25 16.6406V11.8594L7.5 9.98438ZM12 16.6406L15.75 14.7656V9.98438L12 11.8594V16.6406Z" fill="#D83B01"/>
</svg>
