<svg width="100" height="100" viewBox="0 0 7 7" fill="none" xmlns="http://www.w3.org/2000/svg">
<path d="M4.78906 3.55859L6.5 1.5V6.5H0.5V1.5L2.23828 3.55469L3.5 1.5L4.78906 3.55859ZM1 0.5C1 0.570312 0.986979 0.635417 0.960938 0.695312C0.934896 0.755208 0.898438 0.808594 0.851562 0.855469C0.807292 0.89974 0.755208 0.934896 0.695312 0.960938C0.635417 0.986979 0.570312 1 0.5 1C0.429688 1 0.364583 0.986979 0.304688 0.960938C0.244792 0.934896 0.191406 0.89974 0.144531 0.855469C0.10026 0.808594 0.0651042 0.755208 0.0390625 0.695312C0.0130208 0.635417 0 0.570312 0 0.5C0 0.429688 0.0130208 0.364583 0.0390625 0.304688C0.0651042 0.244792 0.10026 0.192708 0.144531 0.148438C0.191406 0.101562 0.244792 0.0651042 0.304688 0.0390625C0.364583 0.0130208 0.429688 0 0.5 0C0.570312 0 0.635417 0.0130208 0.695312 0.0390625C0.755208 0.0651042 0.807292 0.101562 0.851562 0.148438C0.898438 0.192708 0.934896 0.244792 0.960938 0.304688C0.986979 0.364583 1 0.429688 1 0.5ZM3.5 1C3.42969 1 3.36458 0.986979 3.30469 0.960938C3.24479 0.934896 3.19141 0.89974 3.14453 0.855469C3.10026 0.808594 3.0651 0.755208 3.03906 0.695312C3.01302 0.635417 3 0.570312 3 0.5C3 0.429688 3.01302 0.364583 3.03906 0.304688C3.0651 0.244792 3.10026 0.192708 3.14453 0.148438C3.19141 0.101562 3.24479 0.0651042 3.30469 0.0390625C3.36458 0.0130208 3.42969 0 3.5 0C3.57031 0 3.63542 0.0130208 3.69531 0.0390625C3.75521 0.0651042 3.80729 0.101562 3.85156 0.148438C3.89844 0.192708 3.9349 0.244792 3.96094 0.304688C3.98698 0.364583 4 0.429688 4 0.5C4 0.570312 3.98698 0.635417 3.96094 0.695312C3.9349 0.755208 3.89844 0.808594 3.85156 0.855469C3.80729 0.89974 3.75521 0.934896 3.69531 0.960938C3.63542 0.986979 3.57031 1 3.5 1ZM6.5 0C6.57031 0 6.63542 0.0130208 6.69531 0.0390625C6.75521 0.0651042 6.80729 0.101562 6.85156 0.148438C6.89844 0.192708 6.9349 0.244792 6.96094 0.304688C6.98698 0.364583 7 0.429688 7 0.5C7 0.570312 6.98698 0.635417 6.96094 0.695312C6.9349 0.755208 6.89844 0.808594 6.85156 0.855469C6.80729 0.89974 6.75521 0.934896 6.69531 0.960938C6.63542 0.986979 6.57031 1 6.5 1C6.42969 1 6.36458 0.986979 6.30469 0.960938C6.24479 0.934896 6.19141 0.89974 6.14453 0.855469C6.10026 0.808594 6.0651 0.755208 6.03906 0.695312C6.01302 0.635417 6 0.570312 6 0.5C6 0.429688 6.01302 0.364583 6.03906 0.304688C6.0651 0.244792 6.10026 0.192708 6.14453 0.148438C6.19141 0.101562 6.24479 0.0651042 6.30469 0.0390625C6.36458 0.0130208 6.42969 0 6.5 0Z" fill="#0078D4"/>
</svg>
