<svg width="12" height="12" viewBox="0 0 12 12" fill="none" xmlns="http://www.w3.org/2000/svg">
    <path d="M5.625 11.25C5.10547 11.25 4.60547 11.1836 4.125 11.0508C3.64844 10.918 3.20117 10.7305 2.7832 10.4883C2.36523 10.2422 1.98438 9.94922 1.64062 9.60938C1.30078 9.26562 1.00781 8.88477 0.761719 8.4668C0.519531 8.04883 0.332031 7.60156 0.199219 7.125C0.0664062 6.64453 0 6.14453 0 5.625C0 5.10547 0.0664062 4.60742 0.199219 4.13086C0.332031 3.65039 0.519531 3.20117 0.761719 2.7832C1.00781 2.36523 1.30078 1.98633 1.64062 1.64648C1.98438 1.30273 2.36523 1.00977 2.7832 0.767578C3.20117 0.521484 3.64844 0.332031 4.125 0.199219C4.60547 0.0664062 5.10547 0 5.625 0C6.14453 0 6.64258 0.0664062 7.11914 0.199219C7.59961 0.332031 8.04883 0.521484 8.4668 0.767578C8.88477 1.00977 9.26367 1.30273 9.60352 1.64648C9.94727 1.98633 10.2402 2.36523 10.4824 2.7832C10.7285 3.20117 10.918 3.65039 11.0508 4.13086C11.1836 4.60742 11.25 5.10547 11.25 5.625C11.25 6.14453 11.1836 6.64453 11.0508 7.125C10.918 7.60156 10.7285 8.04883 10.4824 8.4668C10.2402 8.88477 9.94727 9.26562 9.60352 9.60938C9.26367 9.94922 8.88477 10.2422 8.4668 10.4883C8.04883 10.7305 7.59961 10.918 7.11914 11.0508C6.64258 11.1836 6.14453 11.25 5.625 11.25ZM5.625 0.75C5.17578 0.75 4.74414 0.808594 4.33008 0.925781C3.91602 1.04297 3.52734 1.20703 3.16406 1.41797C2.80469 1.62891 2.47656 1.88281 2.17969 2.17969C1.88281 2.47656 1.62891 2.80664 1.41797 3.16992C1.20703 3.5293 1.04297 3.91797 0.925781 4.33594C0.808594 4.75 0.75 5.17969 0.75 5.625C0.75 6.07031 0.808594 6.50195 0.925781 6.91992C1.04297 7.33398 1.20703 7.72266 1.41797 8.08594C1.62891 8.44531 1.88281 8.77344 2.17969 9.07031C2.47656 9.36719 2.80469 9.62109 3.16406 9.83203C3.52734 10.043 3.91602 10.207 4.33008 10.3242C4.74414 10.4414 5.17578 10.5 5.625 10.5C6.07031 10.5 6.5 10.4414 6.91406 10.3242C7.33203 10.207 7.7207 10.043 8.08008 9.83203C8.44336 9.62109 8.77344 9.36719 9.07031 9.07031C9.36719 8.77344 9.62109 8.44531 9.83203 8.08594C10.043 7.72266 10.207 7.33398 10.3242 6.91992C10.4414 6.50586 10.5 6.07422 10.5 5.625C10.5 5.17969 10.4414 4.75 10.3242 4.33594C10.207 3.91797 10.043 3.5293 9.83203 3.16992C9.62109 2.80664 9.36719 2.47656 9.07031 2.17969C8.77344 1.88281 8.44336 1.62891 8.08008 1.41797C7.7207 1.20703 7.33203 1.04297 6.91406 0.925781C6.5 0.808594 6.07031 0.75 5.625 0.75ZM5.25 4.5H6V8.25H5.25V4.5ZM5.25 3H6V3.75H5.25V3Z" fill="#605E5C"/>
</svg>
