<svg width="12" height="11" viewBox="0 0 12 11" fill="none" xmlns="http://www.w3.org/2000/svg">
<path d="M6 11C5.51562 11 5.04883 10.9375 4.59961 10.8125C4.1543 10.6875 3.73633 10.5117 3.3457 10.2852C2.95898 10.0547 2.60547 9.78125 2.28516 9.46484C1.96875 9.14453 1.69531 8.79102 1.46484 8.4043C1.23828 8.01367 1.0625 7.5957 0.9375 7.15039C0.8125 6.70117 0.75 6.23438 0.75 5.75C0.75 5.26562 0.8125 4.80078 0.9375 4.35547C1.0625 3.90625 1.23828 3.48828 1.46484 3.10156C1.69531 2.71094 1.96875 2.35742 2.28516 2.04102C2.60547 1.7207 2.95898 1.44727 3.3457 1.2207C3.73633 0.990234 4.1543 0.8125 4.59961 0.6875C5.04883 0.5625 5.51562 0.5 6 0.5C6.48438 0.5 6.94922 0.5625 7.39453 0.6875C7.84375 0.8125 8.26172 0.990234 8.64844 1.2207C9.03906 1.44727 9.39258 1.7207 9.70898 2.04102C10.0293 2.35742 10.3027 2.71094 10.5293 3.10156C10.7598 3.48828 10.9375 3.90625 11.0625 4.35547C11.1875 4.80078 11.25 5.26562 11.25 5.75C11.25 6.23438 11.1875 6.70117 11.0625 7.15039C10.9375 7.5957 10.7598 8.01367 10.5293 8.4043C10.3027 8.79102 10.0293 9.14453 9.70898 9.46484C9.39258 9.78125 9.03906 10.0547 8.64844 10.2852C8.26172 10.5117 7.84375 10.6875 7.39453 10.8125C6.94922 10.9375 6.48438 11 6 11ZM6 1.25C5.37891 1.25 4.79492 1.36914 4.24805 1.60742C3.70508 1.8418 3.22852 2.16406 2.81836 2.57422C2.41211 2.98047 2.08984 3.45703 1.85156 4.00391C1.61719 4.54688 1.5 5.12891 1.5 5.75C1.5 6.37109 1.61719 6.95508 1.85156 7.50195C2.08984 8.04492 2.41211 8.52148 2.81836 8.93164C3.22852 9.33789 3.70508 9.66016 4.24805 9.89844C4.79492 10.1328 5.37891 10.25 6 10.25C6.62109 10.25 7.20312 10.1328 7.74609 9.89844C8.29297 9.66016 8.76953 9.33789 9.17578 8.93164C9.58594 8.52148 9.9082 8.04492 10.1426 7.50195C10.3809 6.95508 10.5 6.37109 10.5 5.75C10.5 5.12891 10.3809 4.54688 10.1426 4.00391C9.9082 3.45703 9.58594 2.98047 9.17578 2.57422C8.76953 2.16406 8.29297 1.8418 7.74609 1.60742C7.20312 1.36914 6.62109 1.25 6 1.25ZM6 5.75V2.75H5.25V6.5H8.25V5.75H6Z" fill="#A19F9D"/>
</svg>
