<svg width="12" height="12" viewBox="0 0 12 12" fill="none" xmlns="http://www.w3.org/2000/svg">
<path d="M6 0C6.55078 0 7.08203 0.0722656 7.59375 0.216797C8.10547 0.357422 8.58203 0.558594 9.02344 0.820312C9.46875 1.08203 9.87305 1.39648 10.2363 1.76367C10.6035 2.12695 10.918 2.53125 11.1797 2.97656C11.4414 3.41797 11.6426 3.89453 11.7832 4.40625C11.9277 4.91797 12 5.44922 12 6C12 6.55078 11.9277 7.08203 11.7832 7.59375C11.6426 8.10547 11.4414 8.58398 11.1797 9.0293C10.918 9.4707 10.6035 9.875 10.2363 10.2422C9.87305 10.6055 9.46875 10.918 9.02344 11.1797C8.58203 11.4414 8.10547 11.6445 7.59375 11.7891C7.08203 11.9297 6.55078 12 6 12C5.44922 12 4.91797 11.9297 4.40625 11.7891C3.89453 11.6445 3.41602 11.4414 2.9707 11.1797C2.5293 10.918 2.125 10.6055 1.75781 10.2422C1.39453 9.875 1.08203 9.4707 0.820312 9.0293C0.558594 8.58398 0.355469 8.10547 0.210938 7.59375C0.0703125 7.08203 0 6.55078 0 6C0 5.44922 0.0703125 4.91797 0.210938 4.40625C0.355469 3.89453 0.558594 3.41797 0.820312 2.97656C1.08203 2.53125 1.39453 2.12695 1.75781 1.76367C2.125 1.39648 2.5293 1.08203 2.9707 0.820312C3.41602 0.558594 3.89453 0.357422 4.40625 0.216797C4.91797 0.0722656 5.44922 0 6 0ZM9 6H6V2.25H5.25V6.75H9V6Z" fill="#D83B01"/>
</svg>
